#
#
#

mtllib Ball.mtl


#
#  メッシュ
#
g  メッシュ


#
#  メッシュ_Ball
#
usemtl  メッシュ_Ball

v 0.000000 0.490393 -0.097545
v 0.000000 0.500000 0.000000
v 0.019030 0.490393 -0.095671
v 0.000000 -0.500000 0.000000
v 0.000000 -0.490393 -0.097545
v 0.019030 -0.490393 -0.095671
v 0.000000 -0.097545 -0.490393
v 0.000000 0.000000 -0.500000
v 0.097545 0.000000 -0.490393
v 0.095671 -0.097545 -0.480970
v 0.000000 0.461940 -0.191342
v 0.037329 0.461940 -0.187665
v 0.000000 -0.191342 -0.461940
v 0.090120 -0.191342 -0.453064
v 0.000000 0.415735 -0.277785
v 0.054193 0.415735 -0.272448
v 0.000000 -0.277785 -0.415735
v 0.081106 -0.277785 -0.407747
v 0.000000 0.353553 -0.353553
v 0.068975 0.353553 -0.346760
v 0.000000 -0.353553 -0.353553
v 0.068975 -0.353553 -0.346760
v 0.000000 0.277785 -0.415735
v 0.081106 0.277785 -0.407747
v 0.000000 -0.415735 -0.277785
v 0.054193 -0.415735 -0.272448
v 0.000000 0.191342 -0.461940
v 0.090120 0.191342 -0.453064
v 0.000000 -0.461940 -0.191342
v 0.037329 -0.461940 -0.187665
v 0.000000 0.097545 -0.490393
v 0.095671 0.097545 -0.480970
v 0.073223 -0.461940 -0.176777
v 0.037329 -0.490393 -0.090120
v 0.187665 0.097545 -0.453064
v 0.191342 0.000000 -0.461940
v 0.037329 0.490393 -0.090120
v 0.187665 -0.097545 -0.453064
v 0.073223 0.461940 -0.176777
v 0.176777 -0.191342 -0.426777
v 0.106304 0.415735 -0.256640
v 0.159095 -0.277785 -0.384089
v 0.135299 0.353553 -0.326641
v 0.135299 -0.353553 -0.326641
v 0.159095 0.277785 -0.384089
v 0.106304 -0.415735 -0.256640
v 0.176777 0.191342 -0.426777
v 0.154329 0.415735 -0.230970
v 0.196424 0.353553 -0.293969
v 0.230970 -0.277785 -0.345671
v 0.196424 -0.353553 -0.293969
v 0.230970 0.277785 -0.345671
v 0.154329 -0.415735 -0.230970
v 0.256640 0.191342 -0.384089
v 0.106304 -0.461940 -0.159095
v 0.272448 0.097545 -0.407747
v 0.054193 -0.490393 -0.081106
v 0.277785 0.000000 -0.415735
v 0.054193 0.490393 -0.081106
v 0.272448 -0.097545 -0.407747
v 0.106304 0.461940 -0.159095
v 0.256640 -0.191342 -0.384089
v 0.346760 0.097545 -0.346760
v 0.353553 0.000000 -0.353553
v 0.068975 0.490393 -0.068975
v 0.068975 -0.490393 -0.068975
v 0.346760 -0.097545 -0.346760
v 0.135299 0.461940 -0.135299
v 0.326641 -0.191342 -0.326641
v 0.196424 0.415735 -0.196424
v 0.293969 -0.277785 -0.293969
v 0.250000 0.353553 -0.250000
v 0.250000 -0.353553 -0.250000
v 0.293969 0.277785 -0.293969
v 0.196424 -0.415735 -0.196424
v 0.326641 0.191342 -0.326641
v 0.135299 -0.461940 -0.135299
v 0.345671 -0.277785 -0.230970
v 0.293969 -0.353553 -0.196424
v 0.293969 0.353553 -0.196424
v 0.345671 0.277785 -0.230970
v 0.230970 -0.415735 -0.154329
v 0.384089 0.191342 -0.256640
v 0.159095 -0.461940 -0.106304
v 0.407747 0.097545 -0.272447
v 0.081106 -0.490393 -0.054193
v 0.415735 0.000000 -0.277785
v 0.081106 0.490393 -0.054193
v 0.407747 -0.097545 -0.272447
v 0.159095 0.461940 -0.106304
v 0.384089 -0.191342 -0.256640
v 0.230970 0.415735 -0.154329
v 0.090120 0.490393 -0.037329
v 0.090120 -0.490393 -0.037329
v 0.461940 0.000000 -0.191342
v 0.453064 -0.097545 -0.187665
v 0.176777 0.461940 -0.073223
v 0.426777 -0.191342 -0.176777
v 0.256640 0.415735 -0.106304
v 0.384089 -0.277785 -0.159095
v 0.326641 0.353553 -0.135299
v 0.326641 -0.353553 -0.135299
v 0.384089 0.277785 -0.159095
v 0.256640 -0.415735 -0.106304
v 0.426777 0.191342 -0.176777
v 0.176777 -0.461940 -0.073223
v 0.453064 0.097545 -0.187665
v 0.346760 0.353553 -0.068975
v 0.407746 0.277785 -0.081106
v 0.346760 -0.353553 -0.068975
v 0.272448 -0.415735 -0.054193
v 0.453064 0.191342 -0.090120
v 0.187665 -0.461940 -0.037329
v 0.480970 0.097545 -0.095671
v 0.095671 -0.490393 -0.019030
v 0.490393 0.000000 -0.097545
v 0.095671 0.490393 -0.019030
v 0.480970 -0.097545 -0.095671
v 0.187665 0.461940 -0.037329
v 0.453064 -0.191342 -0.090120
v 0.272448 0.415735 -0.054193
v 0.407746 -0.277785 -0.081106
v 0.500000 0.000000 0.000000
v 0.490393 -0.097545 0.000000
v 0.097545 0.490393 0.000000
v 0.191342 0.461940 0.000000
v 0.461940 -0.191342 0.000000
v 0.277785 0.415735 0.000000
v 0.415735 -0.277785 0.000000
v 0.353553 0.353553 0.000000
v 0.353553 -0.353553 0.000000
v 0.415735 0.277785 0.000000
v 0.277785 -0.415735 0.000000
v 0.461940 0.191342 0.000000
v 0.191342 -0.461940 0.000000
v 0.490393 0.097545 0.000000
v 0.097545 -0.490393 0.000000
v 0.346760 -0.353553 0.068975
v 0.272447 -0.415735 0.054193
v 0.407746 0.277785 0.081106
v 0.453064 0.191342 0.090120
v 0.187665 -0.461940 0.037329
v 0.480970 0.097545 0.095671
v 0.095671 -0.490393 0.019030
v 0.490392 0.000000 0.097545
v 0.095671 0.490393 0.019030
v 0.480970 -0.097545 0.095671
v 0.187665 0.461940 0.037329
v 0.453064 -0.191342 0.090120
v 0.272447 0.415735 0.054193
v 0.407746 -0.277785 0.081106
v 0.346760 0.353553 0.068975
v 0.453064 -0.097545 0.187665
v 0.426777 -0.191342 0.176777
v 0.176777 0.461940 0.073223
v 0.256640 0.415735 0.106304
v 0.384089 -0.277785 0.159095
v 0.326641 0.353553 0.135299
v 0.326641 -0.353553 0.135299
v 0.384089 0.277785 0.159095
v 0.256640 -0.415735 0.106304
v 0.426777 0.191342 0.176777
v 0.176777 -0.461940 0.073223
v 0.453064 0.097545 0.187665
v 0.090120 -0.490393 0.037329
v 0.461940 0.000000 0.191342
v 0.090120 0.490393 0.037329
v 0.230970 -0.415735 0.154329
v 0.159095 -0.461940 0.106304
v 0.384089 0.191342 0.256640
v 0.407746 0.097545 0.272448
v 0.081106 -0.490393 0.054193
v 0.415735 0.000000 0.277785
v 0.081106 0.490393 0.054193
v 0.407746 -0.097545 0.272448
v 0.159095 0.461940 0.106304
v 0.384089 -0.191342 0.256640
v 0.230970 0.415735 0.154329
v 0.345671 -0.277785 0.230970
v 0.293969 0.353553 0.196424
v 0.293969 -0.353553 0.196424
v 0.345671 0.277785 0.230970
v 0.135299 0.461940 0.135299
v 0.196424 0.415735 0.196424
v 0.326641 -0.191342 0.326641
v 0.293969 -0.277785 0.293969
v 0.250000 0.353553 0.250000
v 0.250000 -0.353553 0.250000
v 0.293969 0.277785 0.293969
v 0.196424 -0.415735 0.196424
v 0.326641 0.191342 0.326641
v 0.135299 -0.461940 0.135299
v 0.346760 0.097545 0.346760
v 0.068975 -0.490393 0.068975
v 0.353553 0.000000 0.353553
v 0.068975 0.490393 0.068975
v 0.346760 -0.097545 0.346760
v 0.256640 0.191342 0.384089
v 0.272447 0.097545 0.407746
v 0.106304 -0.461940 0.159095
v 0.054193 -0.490393 0.081106
v 0.277785 0.000000 0.415735
v 0.054193 0.490393 0.081106
v 0.272447 -0.097545 0.407746
v 0.106304 0.461940 0.159095
v 0.256640 -0.191342 0.384089
v 0.154329 0.415735 0.230970
v 0.230970 -0.277785 0.345671
v 0.196424 0.353553 0.293969
v 0.196424 -0.353553 0.293969
v 0.230970 0.277785 0.345671
v 0.154329 -0.415735 0.230970
v 0.176777 -0.191342 0.426777
v 0.159095 -0.277785 0.384089
v 0.106304 0.415735 0.256640
v 0.135299 0.353553 0.326641
v 0.135299 -0.353553 0.326641
v 0.159095 0.277785 0.384089
v 0.106304 -0.415735 0.256640
v 0.176777 0.191342 0.426777
v 0.073223 -0.461940 0.176777
v 0.187665 0.097545 0.453064
v 0.037329 -0.490393 0.090120
v 0.191341 0.000000 0.461940
v 0.037329 0.490393 0.090120
v 0.187665 -0.097545 0.453064
v 0.073223 0.461940 0.176777
v 0.037329 -0.461940 0.187665
v 0.019030 -0.490393 0.095671
v 0.095671 0.097545 0.480970
v 0.097545 0.000000 0.490392
v 0.019030 0.490393 0.095671
v 0.095671 -0.097545 0.480970
v 0.037329 0.461940 0.187665
v 0.090120 -0.191342 0.453064
v 0.054193 0.415735 0.272447
v 0.081106 -0.277785 0.407746
v 0.068975 0.353553 0.346760
v 0.068975 -0.353553 0.346760
v 0.081106 0.277785 0.407746
v 0.054193 -0.415735 0.272447
v 0.090120 0.191342 0.453064
v 0.000000 0.415735 0.277785
v 0.000000 0.353553 0.353553
v 0.000000 -0.277785 0.415735
v 0.000000 -0.353553 0.353553
v 0.000000 0.277785 0.415735
v 0.000000 -0.415735 0.277785
v 0.000000 0.191342 0.461940
v 0.000000 -0.461940 0.191342
v 0.000000 0.097545 0.490392
v 0.000000 -0.490393 0.097545
v 0.000000 0.000000 0.500000
v 0.000000 0.490393 0.097545
v 0.000000 -0.097545 0.490392
v 0.000000 0.461940 0.191342
v 0.000000 -0.191342 0.461940
v -0.095671 0.097545 0.480970
v -0.097545 0.000000 0.490392
v -0.019030 0.490393 0.095671
v -0.019030 -0.490393 0.095671
v -0.095671 -0.097545 0.480970
v -0.037329 0.461940 0.187665
v -0.090120 -0.191342 0.453064
v -0.054193 0.415735 0.272447
v -0.081106 -0.277785 0.407746
v -0.068975 0.353553 0.346760
v -0.068975 -0.353553 0.346760
v -0.081106 0.277785 0.407746
v -0.054193 -0.415735 0.272447
v -0.090120 0.191342 0.453064
v -0.037329 -0.461940 0.187665
v -0.159095 -0.277785 0.384089
v -0.135299 -0.353553 0.326641
v -0.135299 0.353553 0.326641
v -0.159095 0.277785 0.384089
v -0.106304 -0.415735 0.256640
v -0.176777 0.191342 0.426777
v -0.073223 -0.461940 0.176777
v -0.187665 0.097545 0.453064
v -0.037329 -0.490393 0.090120
v -0.191342 0.000000 0.461939
v -0.037329 0.490393 0.090120
v -0.187665 -0.097545 0.453064
v -0.073223 0.461940 0.176777
v -0.176777 -0.191342 0.426777
v -0.106304 0.415735 0.256640
v -0.054193 -0.490393 0.081106
v -0.277785 0.000000 0.415734
v -0.272448 -0.097545 0.407746
v -0.054193 0.490393 0.081106
v -0.106304 0.461940 0.159095
v -0.256640 -0.191342 0.384089
v -0.154329 0.415735 0.230970
v -0.230970 -0.277785 0.345671
v -0.196424 0.353553 0.293969
v -0.196424 -0.353553 0.293969
v -0.230970 0.277785 0.345671
v -0.154329 -0.415735 0.230970
v -0.256640 0.191342 0.384089
v -0.106304 -0.461940 0.159095
v -0.272448 0.097545 0.407746
v -0.250000 -0.353553 0.250000
v -0.196424 -0.415735 0.196424
v -0.293969 0.277785 0.293969
v -0.326641 0.191342 0.326641
v -0.135299 -0.461940 0.135299
v -0.346760 0.097545 0.346760
v -0.068975 -0.490393 0.068975
v -0.353553 0.000000 0.353553
v -0.068975 0.490393 0.068975
v -0.346760 -0.097545 0.346760
v -0.135299 0.461940 0.135299
v -0.326641 -0.191342 0.326641
v -0.196424 0.415735 0.196424
v -0.293969 -0.277785 0.293969
v -0.250000 0.353553 0.250000
v -0.081106 0.490393 0.054193
v -0.159095 0.461940 0.106304
v -0.407746 -0.097545 0.272447
v -0.384089 -0.191342 0.256640
v -0.230970 0.415735 0.154329
v -0.345671 -0.277785 0.230970
v -0.293969 0.353553 0.196424
v -0.293969 -0.353553 0.196424
v -0.345671 0.277785 0.230970
v -0.230970 -0.415735 0.154329
v -0.384089 0.191342 0.256640
v -0.159095 -0.461940 0.106304
v -0.407746 0.097545 0.272447
v -0.081106 -0.490393 0.054193
v -0.415735 0.000000 0.277785
v -0.384089 0.277785 0.159095
v -0.426777 0.191342 0.176777
v -0.256640 -0.415735 0.106304
v -0.176777 -0.461940 0.073223
v -0.453064 0.097545 0.187665
v -0.090120 -0.490393 0.037329
v -0.461939 0.000000 0.191341
v -0.090120 0.490393 0.037329
v -0.453064 -0.097545 0.187665
v -0.176777 0.461940 0.073223
v -0.426777 -0.191342 0.176777
v -0.256640 0.415735 0.106304
v -0.384089 -0.277785 0.159095
v -0.326641 0.353553 0.135299
v -0.326641 -0.353553 0.135299
v -0.480970 -0.097545 0.095671
v -0.453064 -0.191342 0.090120
v -0.187665 0.461940 0.037329
v -0.272447 0.415735 0.054193
v -0.407746 -0.277785 0.081106
v -0.346760 0.353553 0.068975
v -0.346760 -0.353553 0.068975
v -0.407746 0.277785 0.081106
v -0.272447 -0.415735 0.054193
v -0.453064 0.191342 0.090120
v -0.187665 -0.461940 0.037329
v -0.480970 0.097545 0.095671
v -0.095671 -0.490393 0.019030
v -0.490392 0.000000 0.097545
v -0.095671 0.490393 0.019030
v -0.277785 -0.415735 0.000000
v -0.191342 -0.461940 0.000000
v -0.461940 0.191342 0.000000
v -0.490392 0.097545 0.000000
v -0.097545 -0.490393 0.000000
v -0.500000 0.000000 0.000000
v -0.097545 0.490393 0.000000
v -0.490392 -0.097545 0.000000
v -0.191342 0.461940 0.000000
v -0.461940 -0.191342 0.000000
v -0.277785 0.415735 0.000000
v -0.415735 -0.277785 0.000000
v -0.353553 0.353553 0.000000
v -0.353553 -0.353553 0.000000
v -0.415735 0.277785 0.000000
v -0.187665 0.461940 -0.037329
v -0.272447 0.415735 -0.054193
v -0.453064 -0.191342 -0.090120
v -0.407746 -0.277785 -0.081106
v -0.346760 0.353553 -0.068975
v -0.346760 -0.353553 -0.068975
v -0.407746 0.277785 -0.081106
v -0.272447 -0.415735 -0.054193
v -0.453064 0.191342 -0.090120
v -0.187665 -0.461940 -0.037329
v -0.480970 0.097545 -0.095671
v -0.095671 -0.490393 -0.019030
v -0.490392 0.000000 -0.097545
v -0.095671 0.490393 -0.019030
v -0.480970 -0.097545 -0.095671
v -0.426776 0.191342 -0.176777
v -0.453063 0.097545 -0.187665
v -0.176777 -0.461940 -0.073223
v -0.090120 -0.490393 -0.037329
v -0.461939 0.000000 -0.191342
v -0.090120 0.490393 -0.037329
v -0.453063 -0.097545 -0.187665
v -0.176777 0.461940 -0.073223
v -0.426776 -0.191342 -0.176777
v -0.256640 0.415735 -0.106304
v -0.384089 -0.277785 -0.159095
v -0.326641 0.353553 -0.135299
v -0.326641 -0.353553 -0.135299
v -0.384089 0.277785 -0.159095
v -0.256640 -0.415735 -0.106304
v -0.384089 -0.191342 -0.256640
v -0.345671 -0.277785 -0.230970
v -0.230970 0.415735 -0.154329
v -0.293969 0.353553 -0.196424
v -0.293969 -0.353553 -0.196424
v -0.345671 0.277785 -0.230970
v -0.230970 -0.415735 -0.154329
v -0.384089 0.191342 -0.256640
v -0.159095 -0.461940 -0.106304
v -0.407746 0.097545 -0.272448
v -0.081106 -0.490393 -0.054193
v -0.415734 0.000000 -0.277785
v -0.081106 0.490393 -0.054193
v -0.407746 -0.097545 -0.272448
v -0.159095 0.461940 -0.106304
v -0.135299 -0.461940 -0.135299
v -0.068975 -0.490393 -0.068975
v -0.346760 0.097545 -0.346760
v -0.353553 0.000000 -0.353553
v -0.068975 0.490393 -0.068975
v -0.346760 -0.097545 -0.346760
v -0.135299 0.461940 -0.135299
v -0.326641 -0.191342 -0.326641
v -0.196423 0.415735 -0.196424
v -0.293969 -0.277785 -0.293969
v -0.250000 0.353553 -0.250000
v -0.250000 -0.353553 -0.250000
v -0.293969 0.277785 -0.293969
v -0.196423 -0.415735 -0.196424
v -0.326641 0.191342 -0.326641
v -0.230970 -0.277785 -0.345671
v -0.196424 -0.353553 -0.293969
v -0.196424 0.353553 -0.293969
v -0.230970 0.277785 -0.345671
v -0.154329 -0.415735 -0.230970
v -0.256640 0.191342 -0.384089
v -0.106304 -0.461940 -0.159095
v -0.272447 0.097545 -0.407746
v -0.054193 -0.490393 -0.081106
v -0.277785 0.000000 -0.415734
v -0.054193 0.490393 -0.081106
v -0.272447 -0.097545 -0.407746
v -0.106304 0.461940 -0.159095
v -0.256640 -0.191342 -0.384089
v -0.154329 0.415735 -0.230970
v -0.037329 0.490393 -0.090120
v -0.037329 -0.490393 -0.090120
v -0.191341 0.000000 -0.461939
v -0.187665 -0.097545 -0.453063
v -0.073223 0.461940 -0.176777
v -0.176777 -0.191342 -0.426776
v -0.106304 0.415735 -0.256640
v -0.159095 -0.277785 -0.384089
v -0.135299 0.353553 -0.326641
v -0.135299 -0.353553 -0.326641
v -0.159095 0.277785 -0.384089
v -0.106304 -0.415735 -0.256640
v -0.176777 0.191342 -0.426776
v -0.073223 -0.461940 -0.176777
v -0.187665 0.097545 -0.453063
v -0.068975 0.353553 -0.346760
v -0.081106 0.277785 -0.407746
v -0.068975 -0.353553 -0.346760
v -0.054193 -0.415735 -0.272447
v -0.090120 0.191342 -0.453063
v -0.037329 -0.461940 -0.187665
v -0.095671 0.097545 -0.480970
v -0.019030 -0.490393 -0.095671
v -0.097545 0.000000 -0.490392
v -0.019030 0.490393 -0.095671
v -0.095671 -0.097545 -0.480970
v -0.037329 0.461940 -0.187665
v -0.090120 -0.191342 -0.453063
v -0.054193 0.415735 -0.272447
v -0.081106 -0.277785 -0.407746
vn 0.000000 0.979592 -0.200998
vn 0.000000 1.000000 0.000000
vn 0.039200 0.979599 -0.197100
vn -0.000000 -1.000000 -0.000000
vn -0.000000 -0.979592 -0.200998
vn 0.039200 -0.979599 -0.197100
vn -0.000000 -0.193904 -0.981020
vn -0.000000 -0.000000 -1.000000
vn 0.195097 0.000000 -0.980784
vn 0.191394 -0.193894 -0.962171
vn 0.000000 0.921701 -0.387901
vn 0.075701 0.921716 -0.380407
vn -0.000000 -0.380493 -0.924784
vn 0.180402 -0.380505 -0.907012
vn 0.000000 0.828619 -0.559813
vn 0.109205 0.828640 -0.549027
vn -0.000000 -0.552806 -0.833310
vn 0.162600 -0.552798 -0.817298
vn 0.000000 0.704100 -0.710100
vn 0.138496 0.704082 -0.696482
vn -0.000000 -0.704100 -0.710100
vn 0.138496 -0.704082 -0.696482
vn 0.000000 0.552806 -0.833310
vn 0.162600 0.552798 -0.817298
vn -0.000000 -0.828619 -0.559813
vn 0.109205 -0.828640 -0.549027
vn 0.000000 0.380493 -0.924784
vn 0.180402 0.380505 -0.907012
vn -0.000000 -0.921701 -0.387901
vn 0.075701 -0.921716 -0.380407
vn 0.000000 0.193904 -0.981020
vn 0.191394 0.193894 -0.962171
vn 0.148400 -0.921698 -0.358399
vn 0.076899 -0.979593 -0.185699
vn 0.375418 0.193910 -0.906344
vn 0.382690 0.000000 -0.923877
vn 0.076899 0.979593 -0.185699
vn 0.375418 -0.193910 -0.906344
vn 0.148400 0.921698 -0.358399
vn 0.353896 -0.380495 -0.854389
vn 0.214205 0.828618 -0.517211
vn 0.318895 -0.552791 -0.769888
vn 0.271787 0.704065 -0.656067
vn 0.271787 -0.704065 -0.656067
vn 0.318895 0.552791 -0.769888
vn 0.214205 -0.828618 -0.517211
vn 0.353896 0.380495 -0.854389
vn 0.311016 0.828643 -0.465424
vn 0.394485 0.704073 -0.590477
vn 0.462984 -0.552781 -0.692877
vn 0.394485 -0.704073 -0.590477
vn 0.462984 0.552781 -0.692877
vn 0.311016 -0.828643 -0.465424
vn 0.513806 0.380504 -0.768909
vn 0.215502 -0.921710 -0.322504
vn 0.545003 0.193901 -0.815705
vn 0.111699 -0.979592 -0.167099
vn 0.555577 0.000000 -0.831465
vn 0.111699 0.979592 -0.167099
vn 0.545003 -0.193901 -0.815705
vn 0.215502 0.921710 -0.322504
vn 0.513806 -0.380504 -0.768909
vn 0.693687 0.193896 -0.693687
vn 0.707107 0.000000 -0.707107
vn 0.142100 0.979600 -0.142100
vn 0.142100 -0.979600 -0.142100
vn 0.693687 -0.193896 -0.693687
vn 0.274298 0.921695 -0.274298
vn 0.653916 -0.380509 -0.653916
vn 0.395821 0.828644 -0.395821
vn 0.589260 -0.552762 -0.589260
vn 0.502109 0.704112 -0.502109
vn 0.502109 -0.704112 -0.502109
vn 0.589260 0.552762 -0.589260
vn 0.395821 -0.828644 -0.395821
vn 0.653916 0.380509 -0.653916
vn 0.274298 -0.921695 -0.274298
vn 0.692877 -0.552781 -0.462984
vn 0.590477 -0.704073 -0.394485
vn 0.590477 0.704073 -0.394485
vn 0.692877 0.552781 -0.462984
vn 0.465424 -0.828643 -0.311016
vn 0.768909 0.380504 -0.513806
vn 0.322504 -0.921710 -0.215502
vn 0.815705 0.193901 -0.545003
vn 0.167099 -0.979592 -0.111699
vn 0.831465 0.000000 -0.555577
vn 0.167099 0.979592 -0.111699
vn 0.815705 -0.193901 -0.545003
vn 0.322504 0.921710 -0.215502
vn 0.768909 -0.380504 -0.513806
vn 0.465424 0.828643 -0.311016
vn 0.185699 0.979593 -0.076899
vn 0.185699 -0.979593 -0.076899
vn 0.923877 0.000000 -0.382690
vn 0.906344 -0.193910 -0.375418
vn 0.358399 0.921698 -0.148400
vn 0.854389 -0.380495 -0.353896
vn 0.517211 0.828618 -0.214205
vn 0.769888 -0.552791 -0.318895
vn 0.656067 0.704065 -0.271787
vn 0.656067 -0.704065 -0.271787
vn 0.769888 0.552791 -0.318895
vn 0.517211 -0.828618 -0.214205
vn 0.854389 0.380495 -0.353896
vn 0.358399 -0.921698 -0.148400
vn 0.906344 0.193910 -0.375418
vn 0.696482 0.704082 -0.138496
vn 0.817298 0.552798 -0.162600
vn 0.696482 -0.704082 -0.138496
vn 0.549027 -0.828640 -0.109205
vn 0.907012 0.380505 -0.180402
vn 0.380407 -0.921716 -0.075701
vn 0.962171 0.193894 -0.191394
vn 0.197100 -0.979599 -0.039200
vn 0.980784 0.000000 -0.195097
vn 0.197100 0.979599 -0.039200
vn 0.962171 -0.193894 -0.191394
vn 0.380407 0.921716 -0.075701
vn 0.907012 -0.380505 -0.180402
vn 0.549027 0.828640 -0.109205
vn 0.817298 -0.552798 -0.162600
vn 1.000000 0.000000 0.000000
vn 0.981020 -0.193904 0.000000
vn 0.200998 0.979592 0.000000
vn 0.387901 0.921701 0.000000
vn 0.924784 -0.380493 0.000000
vn 0.559813 0.828619 0.000000
vn 0.833310 -0.552806 0.000000
vn 0.710100 0.704100 0.000000
vn 0.710100 -0.704100 0.000000
vn 0.833310 0.552806 0.000000
vn 0.559813 -0.828619 0.000000
vn 0.924784 0.380493 0.000000
vn 0.387901 -0.921701 0.000000
vn 0.981020 0.193904 0.000000
vn 0.200998 -0.979592 0.000000
vn 0.696482 -0.704082 0.138496
vn 0.549027 -0.828640 0.109205
vn 0.817298 0.552798 0.162600
vn 0.907012 0.380505 0.180402
vn 0.380407 -0.921716 0.075701
vn 0.962171 0.193894 0.191394
vn 0.197100 -0.979599 0.039200
vn 0.980784 0.000000 0.195097
vn 0.197100 0.979599 0.039200
vn 0.962171 -0.193894 0.191394
vn 0.380407 0.921716 0.075701
vn 0.907012 -0.380505 0.180402
vn 0.549027 0.828640 0.109205
vn 0.817298 -0.552798 0.162600
vn 0.696482 0.704082 0.138496
vn 0.906344 -0.193910 0.375418
vn 0.854389 -0.380495 0.353896
vn 0.358399 0.921698 0.148400
vn 0.517211 0.828618 0.214205
vn 0.769888 -0.552791 0.318895
vn 0.656067 0.704065 0.271787
vn 0.656067 -0.704065 0.271787
vn 0.769888 0.552791 0.318895
vn 0.517211 -0.828618 0.214205
vn 0.854389 0.380495 0.353896
vn 0.358399 -0.921698 0.148400
vn 0.906344 0.193910 0.375418
vn 0.185699 -0.979593 0.076899
vn 0.923877 0.000000 0.382690
vn 0.185699 0.979593 0.076899
vn 0.465424 -0.828643 0.311016
vn 0.322504 -0.921710 0.215502
vn 0.768909 0.380504 0.513806
vn 0.815705 0.193901 0.545003
vn 0.167099 -0.979592 0.111699
vn 0.831465 0.000000 0.555577
vn 0.167099 0.979592 0.111699
vn 0.815705 -0.193901 0.545003
vn 0.322504 0.921710 0.215502
vn 0.768909 -0.380504 0.513806
vn 0.465424 0.828643 0.311016
vn 0.692877 -0.552781 0.462984
vn 0.590477 0.704073 0.394485
vn 0.590477 -0.704073 0.394485
vn 0.692877 0.552781 0.462984
vn 0.274298 0.921695 0.274298
vn 0.395821 0.828644 0.395821
vn 0.653916 -0.380509 0.653916
vn 0.589260 -0.552762 0.589260
vn 0.502109 0.704112 0.502109
vn 0.502109 -0.704112 0.502109
vn 0.589260 0.552762 0.589260
vn 0.395821 -0.828644 0.395821
vn 0.653916 0.380509 0.653916
vn 0.274298 -0.921695 0.274298
vn 0.693687 0.193896 0.693687
vn 0.142100 -0.979600 0.142100
vn 0.707107 0.000000 0.707107
vn 0.142100 0.979600 0.142100
vn 0.693687 -0.193896 0.693687
vn 0.513806 0.380504 0.768909
vn 0.545003 0.193901 0.815705
vn 0.215502 -0.921710 0.322504
vn 0.111699 -0.979592 0.167099
vn 0.555577 0.000000 0.831465
vn 0.111699 0.979592 0.167099
vn 0.545003 -0.193901 0.815705
vn 0.215502 0.921710 0.322504
vn 0.513806 -0.380504 0.768909
vn 0.311016 0.828643 0.465424
vn 0.462984 -0.552781 0.692877
vn 0.394485 0.704073 0.590477
vn 0.394485 -0.704073 0.590477
vn 0.462984 0.552781 0.692877
vn 0.311016 -0.828643 0.465424
vn 0.353896 -0.380495 0.854389
vn 0.318895 -0.552791 0.769888
vn 0.214205 0.828618 0.517211
vn 0.271787 0.704065 0.656067
vn 0.271787 -0.704065 0.656067
vn 0.318895 0.552791 0.769888
vn 0.214205 -0.828618 0.517211
vn 0.353896 0.380495 0.854389
vn 0.148400 -0.921698 0.358399
vn 0.375418 0.193910 0.906344
vn 0.076899 -0.979593 0.185699
vn 0.382690 0.000000 0.923877
vn 0.076899 0.979593 0.185699
vn 0.375418 -0.193910 0.906344
vn 0.148400 0.921698 0.358399
vn 0.075701 -0.921716 0.380407
vn 0.039200 -0.979599 0.197100
vn 0.191394 0.193894 0.962171
vn 0.195097 0.000000 0.980784
vn 0.039200 0.979599 0.197100
vn 0.191394 -0.193894 0.962171
vn 0.075701 0.921716 0.380407
vn 0.180402 -0.380505 0.907012
vn 0.109205 0.828640 0.549027
vn 0.162600 -0.552798 0.817298
vn 0.138496 0.704082 0.696482
vn 0.138496 -0.704082 0.696482
vn 0.162600 0.552798 0.817298
vn 0.109205 -0.828640 0.549027
vn 0.180402 0.380505 0.907012
vn 0.000000 0.828619 0.559813
vn 0.000000 0.704100 0.710100
vn 0.000000 -0.552806 0.833310
vn 0.000000 -0.704100 0.710100
vn 0.000000 0.552806 0.833310
vn 0.000000 -0.828619 0.559813
vn 0.000000 0.380493 0.924784
vn 0.000000 -0.921701 0.387901
vn 0.000000 0.193904 0.981020
vn 0.000000 -0.979592 0.200998
vn 0.000000 0.000000 1.000000
vn 0.000000 0.979592 0.200998
vn 0.000000 -0.193904 0.981020
vn 0.000000 0.921701 0.387901
vn 0.000000 -0.380493 0.924784
vn -0.191394 0.193894 0.962171
vn -0.195097 0.000000 0.980784
vn -0.039200 0.979599 0.197100
vn -0.039200 -0.979599 0.197100
vn -0.191394 -0.193894 0.962171
vn -0.075701 0.921716 0.380407
vn -0.180402 -0.380505 0.907012
vn -0.109205 0.828640 0.549027
vn -0.162600 -0.552798 0.817298
vn -0.138496 0.704082 0.696482
vn -0.138496 -0.704082 0.696482
vn -0.162600 0.552798 0.817298
vn -0.109205 -0.828640 0.549027
vn -0.180402 0.380505 0.907012
vn -0.075701 -0.921716 0.380407
vn -0.318895 -0.552791 0.769888
vn -0.271787 -0.704065 0.656067
vn -0.271787 0.704065 0.656067
vn -0.318895 0.552791 0.769888
vn -0.214205 -0.828618 0.517211
vn -0.353896 0.380495 0.854389
vn -0.148400 -0.921698 0.358399
vn -0.375418 0.193910 0.906344
vn -0.076899 -0.979593 0.185699
vn -0.382690 0.000000 0.923877
vn -0.076899 0.979593 0.185699
vn -0.375418 -0.193910 0.906344
vn -0.148400 0.921698 0.358399
vn -0.353896 -0.380495 0.854389
vn -0.214205 0.828618 0.517211
vn -0.111699 -0.979592 0.167099
vn -0.555577 0.000000 0.831465
vn -0.545003 -0.193901 0.815705
vn -0.111699 0.979592 0.167099
vn -0.215502 0.921710 0.322504
vn -0.513806 -0.380504 0.768909
vn -0.311016 0.828643 0.465424
vn -0.462984 -0.552781 0.692877
vn -0.394485 0.704073 0.590477
vn -0.394485 -0.704073 0.590477
vn -0.462984 0.552781 0.692877
vn -0.311016 -0.828643 0.465424
vn -0.513806 0.380504 0.768909
vn -0.215502 -0.921710 0.322504
vn -0.545003 0.193901 0.815705
vn -0.502109 -0.704112 0.502109
vn -0.395821 -0.828644 0.395821
vn -0.589260 0.552762 0.589260
vn -0.653916 0.380509 0.653916
vn -0.274298 -0.921695 0.274298
vn -0.693687 0.193896 0.693687
vn -0.142100 -0.979600 0.142100
vn -0.707107 0.000000 0.707107
vn -0.142100 0.979600 0.142100
vn -0.693687 -0.193896 0.693687
vn -0.274298 0.921695 0.274298
vn -0.653916 -0.380509 0.653916
vn -0.395821 0.828644 0.395821
vn -0.589260 -0.552762 0.589260
vn -0.502109 0.704112 0.502109
vn -0.167099 0.979592 0.111699
vn -0.322504 0.921710 0.215502
vn -0.815705 -0.193901 0.545003
vn -0.768909 -0.380504 0.513806
vn -0.465424 0.828643 0.311016
vn -0.692877 -0.552781 0.462984
vn -0.590477 0.704073 0.394485
vn -0.590477 -0.704073 0.394485
vn -0.692877 0.552781 0.462984
vn -0.465424 -0.828643 0.311016
vn -0.768909 0.380504 0.513806
vn -0.322504 -0.921710 0.215502
vn -0.815705 0.193901 0.545003
vn -0.167099 -0.979592 0.111699
vn -0.831465 0.000000 0.555577
vn -0.769888 0.552791 0.318895
vn -0.854389 0.380495 0.353896
vn -0.517211 -0.828618 0.214205
vn -0.358399 -0.921698 0.148400
vn -0.906344 0.193910 0.375418
vn -0.185699 -0.979593 0.076899
vn -0.923877 0.000000 0.382690
vn -0.185699 0.979593 0.076899
vn -0.906344 -0.193910 0.375418
vn -0.358399 0.921698 0.148400
vn -0.854389 -0.380495 0.353896
vn -0.517211 0.828618 0.214205
vn -0.769888 -0.552791 0.318895
vn -0.656067 0.704065 0.271787
vn -0.656067 -0.704065 0.271787
vn -0.962171 -0.193894 0.191394
vn -0.907012 -0.380505 0.180402
vn -0.380407 0.921716 0.075701
vn -0.549027 0.828640 0.109205
vn -0.817298 -0.552798 0.162600
vn -0.696482 0.704082 0.138496
vn -0.696482 -0.704082 0.138496
vn -0.817298 0.552798 0.162600
vn -0.549027 -0.828640 0.109205
vn -0.907012 0.380505 0.180402
vn -0.380407 -0.921716 0.075701
vn -0.962171 0.193894 0.191394
vn -0.197100 -0.979599 0.039200
vn -0.980784 0.000000 0.195097
vn -0.197100 0.979599 0.039200
vn -0.559813 -0.828619 -0.000000
vn -0.387901 -0.921701 -0.000000
vn -0.924784 0.380493 0.000000
vn -0.981020 0.193904 0.000000
vn -0.200998 -0.979592 -0.000000
vn -1.000000 -0.000000 -0.000000
vn -0.200998 0.979592 0.000000
vn -0.981020 -0.193904 -0.000000
vn -0.387901 0.921701 0.000000
vn -0.924784 -0.380493 -0.000000
vn -0.559813 0.828619 0.000000
vn -0.833310 -0.552806 -0.000000
vn -0.710100 0.704100 0.000000
vn -0.710100 -0.704100 -0.000000
vn -0.833310 0.552806 0.000000
vn -0.380407 0.921716 -0.075701
vn -0.549027 0.828640 -0.109205
vn -0.907012 -0.380505 -0.180402
vn -0.817298 -0.552798 -0.162600
vn -0.696482 0.704082 -0.138496
vn -0.696482 -0.704082 -0.138496
vn -0.817298 0.552798 -0.162600
vn -0.549027 -0.828640 -0.109205
vn -0.907012 0.380505 -0.180402
vn -0.380407 -0.921716 -0.075701
vn -0.962171 0.193894 -0.191394
vn -0.197100 -0.979599 -0.039200
vn -0.980784 -0.000000 -0.195097
vn -0.197100 0.979599 -0.039200
vn -0.962171 -0.193894 -0.191394
vn -0.854389 0.380495 -0.353896
vn -0.906344 0.193910 -0.375418
vn -0.358399 -0.921698 -0.148400
vn -0.185699 -0.979593 -0.076899
vn -0.923877 -0.000000 -0.382690
vn -0.185699 0.979593 -0.076899
vn -0.906344 -0.193910 -0.375418
vn -0.358399 0.921698 -0.148400
vn -0.854389 -0.380495 -0.353896
vn -0.517211 0.828618 -0.214205
vn -0.769888 -0.552791 -0.318895
vn -0.656067 0.704065 -0.271787
vn -0.656067 -0.704065 -0.271787
vn -0.769888 0.552791 -0.318895
vn -0.517211 -0.828618 -0.214205
vn -0.768909 -0.380504 -0.513806
vn -0.692877 -0.552781 -0.462984
vn -0.465424 0.828643 -0.311016
vn -0.590477 0.704073 -0.394485
vn -0.590477 -0.704073 -0.394485
vn -0.692877 0.552781 -0.462984
vn -0.465424 -0.828643 -0.311016
vn -0.768909 0.380504 -0.513806
vn -0.322504 -0.921710 -0.215502
vn -0.815705 0.193901 -0.545003
vn -0.167099 -0.979592 -0.111699
vn -0.831465 -0.000000 -0.555577
vn -0.167099 0.979592 -0.111699
vn -0.815705 -0.193901 -0.545003
vn -0.322504 0.921710 -0.215502
vn -0.274298 -0.921695 -0.274298
vn -0.142100 -0.979600 -0.142100
vn -0.693687 0.193896 -0.693687
vn -0.707107 -0.000000 -0.707107
vn -0.142100 0.979600 -0.142100
vn -0.693687 -0.193896 -0.693687
vn -0.274298 0.921695 -0.274298
vn -0.653916 -0.380509 -0.653916
vn -0.395821 0.828644 -0.395821
vn -0.589260 -0.552762 -0.589260
vn -0.502109 0.704112 -0.502109
vn -0.502109 -0.704112 -0.502109
vn -0.589260 0.552762 -0.589260
vn -0.395821 -0.828644 -0.395821
vn -0.653916 0.380509 -0.653916
vn -0.462984 -0.552781 -0.692877
vn -0.394485 -0.704073 -0.590477
vn -0.394485 0.704073 -0.590477
vn -0.462984 0.552781 -0.692877
vn -0.311016 -0.828643 -0.465424
vn -0.513806 0.380504 -0.768909
vn -0.215502 -0.921710 -0.322504
vn -0.545003 0.193901 -0.815705
vn -0.111699 -0.979592 -0.167099
vn -0.555577 -0.000000 -0.831465
vn -0.111699 0.979592 -0.167099
vn -0.545003 -0.193901 -0.815705
vn -0.215502 0.921710 -0.322504
vn -0.513806 -0.380504 -0.768909
vn -0.311016 0.828643 -0.465424
vn -0.076899 0.979593 -0.185699
vn -0.076899 -0.979593 -0.185699
vn -0.382690 -0.000000 -0.923877
vn -0.375418 -0.193910 -0.906344
vn -0.148400 0.921698 -0.358399
vn -0.353896 -0.380495 -0.854389
vn -0.214205 0.828618 -0.517211
vn -0.318895 -0.552791 -0.769888
vn -0.271787 0.704065 -0.656067
vn -0.271787 -0.704065 -0.656067
vn -0.318895 0.552791 -0.769888
vn -0.214205 -0.828618 -0.517211
vn -0.353896 0.380495 -0.854389
vn -0.148400 -0.921698 -0.358399
vn -0.375418 0.193910 -0.906344
vn -0.138496 0.704082 -0.696482
vn -0.162600 0.552798 -0.817298
vn -0.138496 -0.704082 -0.696482
vn -0.109205 -0.828640 -0.549027
vn -0.180402 0.380505 -0.907012
vn -0.075701 -0.921716 -0.380407
vn -0.191394 0.193894 -0.962171
vn -0.039200 -0.979599 -0.197100
vn -0.195097 -0.000000 -0.980784
vn -0.039200 0.979599 -0.197100
vn -0.191394 -0.193894 -0.962171
vn -0.075701 0.921716 -0.380407
vn -0.180402 -0.380505 -0.907012
vn -0.109205 0.828640 -0.549027
vn -0.162600 -0.552798 -0.817298
vt 0.750000 0.937500
vt 0.734375 1.000000
vt 0.718750 0.937500
vt 0.734375 0.000000
vt 0.750000 0.062500
vt 0.718750 0.062500
vt 0.750000 0.437500
vt 0.750000 0.500000
vt 0.718750 0.500000
vt 0.718750 0.437500
vt 0.750000 0.875000
vt 0.718750 0.875000
vt 0.750000 0.375000
vt 0.718750 0.375000
vt 0.750000 0.812500
vt 0.718750 0.812500
vt 0.750000 0.312500
vt 0.718750 0.312500
vt 0.750000 0.750000
vt 0.718750 0.750000
vt 0.750000 0.250000
vt 0.718750 0.250000
vt 0.750000 0.687500
vt 0.718750 0.687500
vt 0.750000 0.187500
vt 0.718750 0.187500
vt 0.750000 0.625000
vt 0.718750 0.625000
vt 0.750000 0.125000
vt 0.718750 0.125000
vt 0.750000 0.562500
vt 0.718750 0.562500
vt 0.687500 0.125000
vt 0.687500 0.062500
vt 0.687500 0.562500
vt 0.687500 0.500000
vt 0.703125 1.000000
vt 0.687500 0.937500
vt 0.703125 0.000000
vt 0.687500 0.437500
vt 0.687500 0.875000
vt 0.687500 0.375000
vt 0.687500 0.812500
vt 0.687500 0.312500
vt 0.687500 0.750000
vt 0.687500 0.250000
vt 0.687500 0.687500
vt 0.687500 0.187500
vt 0.687500 0.625000
vt 0.656250 0.812500
vt 0.656250 0.750000
vt 0.656250 0.312500
vt 0.656250 0.250000
vt 0.656250 0.687500
vt 0.656250 0.187500
vt 0.656250 0.625000
vt 0.656250 0.125000
vt 0.656250 0.562500
vt 0.656250 0.062500
vt 0.656250 0.500000
vt 0.671875 1.000000
vt 0.656250 0.937500
vt 0.671875 0.000000
vt 0.656250 0.437500
vt 0.656250 0.875000
vt 0.656250 0.375000
vt 0.625000 0.562500
vt 0.625000 0.500000
vt 0.640625 1.000000
vt 0.625000 0.937500
vt 0.640625 0.000000
vt 0.625000 0.062500
vt 0.625000 0.437500
vt 0.625000 0.875000
vt 0.625000 0.375000
vt 0.625000 0.812500
vt 0.625000 0.312500
vt 0.625000 0.750000
vt 0.625000 0.250000
vt 0.625000 0.687500
vt 0.625000 0.187500
vt 0.625000 0.625000
vt 0.625000 0.125000
vt 0.593750 0.312500
vt 0.593750 0.250000
vt 0.593750 0.750000
vt 0.593750 0.687500
vt 0.593750 0.187500
vt 0.593750 0.625000
vt 0.593750 0.125000
vt 0.593750 0.562500
vt 0.593750 0.062500
vt 0.593750 0.500000
vt 0.609375 1.000000
vt 0.593750 0.937500
vt 0.609375 0.000000
vt 0.593750 0.437500
vt 0.593750 0.875000
vt 0.593750 0.375000
vt 0.593750 0.812500
vt 0.578125 1.000000
vt 0.562500 0.937500
vt 0.578125 0.000000
vt 0.562500 0.062500
vt 0.562500 0.500000
vt 0.562500 0.437500
vt 0.562500 0.875000
vt 0.562500 0.375000
vt 0.562500 0.812500
vt 0.562500 0.312500
vt 0.562500 0.750000
vt 0.562500 0.250000
vt 0.562500 0.687500
vt 0.562500 0.187500
vt 0.562500 0.625000
vt 0.562500 0.125000
vt 0.562500 0.562500
vt 0.531250 0.750000
vt 0.531250 0.687500
vt 0.531250 0.250000
vt 0.531250 0.187500
vt 0.531250 0.625000
vt 0.531250 0.125000
vt 0.531250 0.562500
vt 0.531250 0.062500
vt 0.531250 0.500000
vt 0.546875 1.000000
vt 0.531250 0.937500
vt 0.546875 0.000000
vt 0.531250 0.437500
vt 0.531250 0.875000
vt 0.531250 0.375000
vt 0.531250 0.812500
vt 0.531250 0.312500
vt 0.500000 0.500000
vt 0.500000 0.437500
vt 0.500000 0.937500
vt 0.500000 0.875000
vt 0.500000 0.375000
vt 0.500000 0.812500
vt 0.500000 0.312500
vt 0.500000 0.750000
vt 0.500000 0.250000
vt 0.500000 0.687500
vt 0.500000 0.187500
vt 0.500000 0.625000
vt 0.500000 0.125000
vt 0.500000 0.562500
vt 0.500000 0.062500
vt 0.515625 1.000000
vt 0.515625 0.000000
vt 0.468750 0.250000
vt 0.468750 0.187500
vt 0.468750 0.687500
vt 0.468750 0.625000
vt 0.468750 0.125000
vt 0.468750 0.562500
vt 0.468750 0.062500
vt 0.468750 0.500000
vt 0.484375 1.000000
vt 0.468750 0.937500
vt 0.484375 0.000000
vt 0.468750 0.437500
vt 0.468750 0.875000
vt 0.468750 0.375000
vt 0.468750 0.812500
vt 0.468750 0.312500
vt 0.468750 0.750000
vt 0.437500 0.437500
vt 0.437500 0.375000
vt 0.437500 0.875000
vt 0.437500 0.812500
vt 0.437500 0.312500
vt 0.437500 0.750000
vt 0.437500 0.250000
vt 0.437500 0.687500
vt 0.437500 0.187500
vt 0.437500 0.625000
vt 0.437500 0.125000
vt 0.437500 0.562500
vt 0.437500 0.062500
vt 0.437500 0.500000
vt 0.453125 1.000000
vt 0.437500 0.937500
vt 0.453125 0.000000
vt 0.406250 0.187500
vt 0.406250 0.125000
vt 0.406250 0.625000
vt 0.406250 0.562500
vt 0.406250 0.062500
vt 0.406250 0.500000
vt 0.421875 1.000000
vt 0.406250 0.937500
vt 0.421875 0.000000
vt 0.406250 0.437500
vt 0.406250 0.875000
vt 0.406250 0.375000
vt 0.406250 0.812500
vt 0.406250 0.312500
vt 0.406250 0.750000
vt 0.406250 0.250000
vt 0.406250 0.687500
vt 0.375000 0.875000
vt 0.375000 0.812500
vt 0.375000 0.375000
vt 0.375000 0.312500
vt 0.375000 0.750000
vt 0.375000 0.250000
vt 0.375000 0.687500
vt 0.375000 0.187500
vt 0.375000 0.625000
vt 0.375000 0.125000
vt 0.375000 0.562500
vt 0.375000 0.062500
vt 0.375000 0.500000
vt 0.390625 1.000000
vt 0.375000 0.937500
vt 0.390625 0.000000
vt 0.375000 0.437500
vt 0.343750 0.625000
vt 0.343750 0.562500
vt 0.343750 0.125000
vt 0.343750 0.062500
vt 0.343750 0.500000
vt 0.359375 1.000000
vt 0.343750 0.937500
vt 0.359375 0.000000
vt 0.343750 0.437500
vt 0.343750 0.875000
vt 0.343750 0.375000
vt 0.343750 0.812500
vt 0.343750 0.312500
vt 0.343750 0.750000
vt 0.343750 0.250000
vt 0.343750 0.687500
vt 0.343750 0.187500
vt 0.312500 0.375000
vt 0.312500 0.312500
vt 0.312500 0.812500
vt 0.312500 0.750000
vt 0.312500 0.250000
vt 0.312500 0.687500
vt 0.312500 0.187500
vt 0.312500 0.625000
vt 0.312500 0.125000
vt 0.312500 0.562500
vt 0.312500 0.062500
vt 0.312500 0.500000
vt 0.328125 1.000000
vt 0.312500 0.937500
vt 0.328125 0.000000
vt 0.312500 0.437500
vt 0.312500 0.875000
vt 0.281250 0.125000
vt 0.281250 0.062500
vt 0.281250 0.562500
vt 0.281250 0.500000
vt 0.296875 1.000000
vt 0.281250 0.937500
vt 0.296875 0.000000
vt 0.281250 0.437500
vt 0.281250 0.875000
vt 0.281250 0.375000
vt 0.281250 0.812500
vt 0.281250 0.312500
vt 0.281250 0.750000
vt 0.281250 0.250000
vt 0.281250 0.687500
vt 0.281250 0.187500
vt 0.281250 0.625000
vt 0.250000 0.812500
vt 0.250000 0.750000
vt 0.250000 0.312500
vt 0.250000 0.250000
vt 0.250000 0.687500
vt 0.250000 0.187500
vt 0.250000 0.625000
vt 0.250000 0.125000
vt 0.250000 0.562500
vt 0.250000 0.062500
vt 0.250000 0.500000
vt 0.265625 1.000000
vt 0.250000 0.937500
vt 0.265625 0.000000
vt 0.250000 0.437500
vt 0.250000 0.875000
vt 0.250000 0.375000
vt 0.218750 0.562500
vt 0.218750 0.500000
vt 0.234375 1.000000
vt 0.218750 0.937500
vt 0.234375 0.000000
vt 0.218750 0.062500
vt 0.218750 0.437500
vt 0.218750 0.875000
vt 0.218750 0.375000
vt 0.218750 0.812500
vt 0.218750 0.312500
vt 0.218750 0.750000
vt 0.218750 0.250000
vt 0.218750 0.687500
vt 0.218750 0.187500
vt 0.218750 0.625000
vt 0.218750 0.125000
vt 0.187500 0.312500
vt 0.187500 0.250000
vt 0.187500 0.750000
vt 0.187500 0.687500
vt 0.187500 0.187500
vt 0.187500 0.625000
vt 0.187500 0.125000
vt 0.187500 0.562500
vt 0.187500 0.062500
vt 0.187500 0.500000
vt 0.203125 1.000000
vt 0.187500 0.937500
vt 0.203125 0.000000
vt 0.187500 0.437500
vt 0.187500 0.875000
vt 0.187500 0.375000
vt 0.187500 0.812500
vt 0.171875 0.000000
vt 0.156250 0.062500
vt 0.156250 0.500000
vt 0.156250 0.437500
vt 0.156250 0.937500
vt 0.156250 0.875000
vt 0.156250 0.375000
vt 0.156250 0.812500
vt 0.156250 0.312500
vt 0.156250 0.750000
vt 0.156250 0.250000
vt 0.156250 0.687500
vt 0.156250 0.187500
vt 0.156250 0.625000
vt 0.156250 0.125000
vt 0.156250 0.562500
vt 0.171875 1.000000
vt 0.125000 0.250000
vt 0.125000 0.187500
vt 0.125000 0.687500
vt 0.125000 0.625000
vt 0.125000 0.125000
vt 0.125000 0.562500
vt 0.125000 0.062500
vt 0.125000 0.500000
vt 0.140625 1.000000
vt 0.125000 0.937500
vt 0.140625 0.000000
vt 0.125000 0.437500
vt 0.125000 0.875000
vt 0.125000 0.375000
vt 0.125000 0.812500
vt 0.125000 0.312500
vt 0.125000 0.750000
vt 0.093750 0.937500
vt 0.093750 0.875000
vt 0.093750 0.437500
vt 0.093750 0.375000
vt 0.093750 0.812500
vt 0.093750 0.312500
vt 0.093750 0.750000
vt 0.093750 0.250000
vt 0.093750 0.687500
vt 0.093750 0.187500
vt 0.093750 0.625000
vt 0.093750 0.125000
vt 0.093750 0.562500
vt 0.093750 0.062500
vt 0.093750 0.500000
vt 0.109375 1.000000
vt 0.109375 0.000000
vt 0.062500 0.687500
vt 0.062500 0.625000
vt 0.062500 0.187500
vt 0.062500 0.125000
vt 0.062500 0.562500
vt 0.062500 0.062500
vt 0.062500 0.500000
vt 0.078125 1.000000
vt 0.062500 0.937500
vt 0.078125 0.000000
vt 0.062500 0.437500
vt 0.062500 0.875000
vt 0.062500 0.375000
vt 0.062500 0.812500
vt 0.062500 0.312500
vt 0.062500 0.750000
vt 0.062500 0.250000
vt 0.031250 0.437500
vt 0.031250 0.375000
vt 0.031250 0.875000
vt 0.031250 0.812500
vt 0.031250 0.312500
vt 0.031250 0.750000
vt 0.031250 0.250000
vt 0.031250 0.687500
vt 0.031250 0.187500
vt 0.031250 0.625000
vt 0.031250 0.125000
vt 0.031250 0.562500
vt 0.031250 0.062500
vt 0.031250 0.500000
vt 0.046875 1.000000
vt 0.031250 0.937500
vt 0.046875 0.000000
vt 0.000000 0.187500
vt 0.000000 0.125000
vt 0.000000 0.625000
vt 0.000000 0.562500
vt 0.000000 0.062500
vt 0.000000 0.500000
vt 0.015625 1.000000
vt 0.000000 0.937500
vt 0.015625 0.000000
vt 0.000000 0.437500
vt 0.000000 0.875000
vt 0.000000 0.375000
vt 0.000000 0.812500
vt 0.000000 0.312500
vt 0.000000 0.750000
vt 0.000000 0.250000
vt 0.000000 0.687500
vt 1.000000 0.812500
vt 1.000000 0.875000
vt 0.968750 0.875000
vt 0.968750 0.812500
vt 1.000000 0.312500
vt 1.000000 0.375000
vt 0.968750 0.375000
vt 0.968750 0.312500
vt 1.000000 0.750000
vt 0.968750 0.750000
vt 1.000000 0.250000
vt 0.968750 0.250000
vt 1.000000 0.687500
vt 0.968750 0.687500
vt 1.000000 0.187500
vt 0.968750 0.187500
vt 1.000000 0.625000
vt 0.968750 0.625000
vt 1.000000 0.125000
vt 0.968750 0.125000
vt 1.000000 0.562500
vt 0.968750 0.562500
vt 1.000000 0.062500
vt 0.968750 0.062500
vt 1.000000 0.500000
vt 0.968750 0.500000
vt 1.000000 0.937500
vt 0.984375 1.000000
vt 0.968750 0.937500
vt 0.984375 0.000000
vt 1.000000 0.437500
vt 0.968750 0.437500
vt 0.937500 0.625000
vt 0.937500 0.562500
vt 0.937500 0.125000
vt 0.937500 0.062500
vt 0.937500 0.500000
vt 0.953125 1.000000
vt 0.937500 0.937500
vt 0.953125 0.000000
vt 0.937500 0.437500
vt 0.937500 0.875000
vt 0.937500 0.375000
vt 0.937500 0.812500
vt 0.937500 0.312500
vt 0.937500 0.750000
vt 0.937500 0.250000
vt 0.937500 0.687500
vt 0.937500 0.187500
vt 0.906250 0.375000
vt 0.906250 0.312500
vt 0.906250 0.812500
vt 0.906250 0.750000
vt 0.906250 0.250000
vt 0.906250 0.687500
vt 0.906250 0.187500
vt 0.906250 0.625000
vt 0.906250 0.125000
vt 0.906250 0.562500
vt 0.906250 0.062500
vt 0.906250 0.500000
vt 0.921875 1.000000
vt 0.906250 0.937500
vt 0.921875 0.000000
vt 0.906250 0.437500
vt 0.906250 0.875000
vt 0.875000 0.125000
vt 0.875000 0.062500
vt 0.875000 0.562500
vt 0.875000 0.500000
vt 0.890625 1.000000
vt 0.875000 0.937500
vt 0.890625 0.000000
vt 0.875000 0.437500
vt 0.875000 0.875000
vt 0.875000 0.375000
vt 0.875000 0.812500
vt 0.875000 0.312500
vt 0.875000 0.750000
vt 0.875000 0.250000
vt 0.875000 0.687500
vt 0.875000 0.187500
vt 0.875000 0.625000
vt 0.843750 0.312500
vt 0.843750 0.250000
vt 0.843750 0.750000
vt 0.843750 0.687500
vt 0.843750 0.187500
vt 0.843750 0.625000
vt 0.843750 0.125000
vt 0.843750 0.562500
vt 0.843750 0.062500
vt 0.843750 0.500000
vt 0.859375 1.000000
vt 0.843750 0.937500
vt 0.859375 0.000000
vt 0.843750 0.437500
vt 0.843750 0.875000
vt 0.843750 0.375000
vt 0.843750 0.812500
vt 0.828125 1.000000
vt 0.812500 0.937500
vt 0.828125 0.000000
vt 0.812500 0.062500
vt 0.812500 0.500000
vt 0.812500 0.437500
vt 0.812500 0.875000
vt 0.812500 0.375000
vt 0.812500 0.812500
vt 0.812500 0.312500
vt 0.812500 0.750000
vt 0.812500 0.250000
vt 0.812500 0.687500
vt 0.812500 0.187500
vt 0.812500 0.625000
vt 0.812500 0.125000
vt 0.812500 0.562500
vt 0.781250 0.750000
vt 0.781250 0.687500
vt 0.781250 0.250000
vt 0.781250 0.187500
vt 0.781250 0.625000
vt 0.781250 0.125000
vt 0.781250 0.562500
vt 0.781250 0.062500
vt 0.781250 0.500000
vt 0.796875 1.000000
vt 0.781250 0.937500
vt 0.796875 0.000000
vt 0.781250 0.437500
vt 0.781250 0.875000
vt 0.781250 0.375000
vt 0.781250 0.812500
vt 0.781250 0.312500
vt 0.765625 1.000000
vt 0.765625 0.000000
f 1/1/1 2/2/2 3/3/3
f 4/4/4 5/5/5 6/6/6
f 7/7/7 8/8/8 9/9/9 10/10/10
f 11/11/11 1/1/1 3/3/3 12/12/12
f 13/13/13 7/7/7 10/10/10 14/14/14
f 15/15/15 11/11/11 12/12/12 16/16/16
f 17/17/17 13/13/13 14/14/14 18/18/18
f 19/19/19 15/15/15 16/16/16 20/20/20
f 21/21/21 17/17/17 18/18/18 22/22/22
f 23/23/23 19/19/19 20/20/20 24/24/24
f 25/25/25 21/21/21 22/22/22 26/26/26
f 27/27/27 23/23/23 24/24/24 28/28/28
f 29/29/29 25/25/25 26/26/26 30/30/30
f 31/31/31 27/27/27 28/28/28 32/32/32
f 5/5/5 29/29/29 30/30/30 6/6/6
f 8/8/8 31/31/31 32/32/32 9/9/9
f 6/6/6 30/30/30 33/33/33 34/34/34
f 9/9/9 32/32/32 35/35/35 36/36/36
f 3/3/3 2/37/2 37/38/37
f 4/39/4 6/6/6 34/34/34
f 10/10/10 9/9/9 36/36/36 38/40/38
f 12/12/12 3/3/3 37/38/37 39/41/39
f 14/14/14 10/10/10 38/40/38 40/42/40
f 16/16/16 12/12/12 39/41/39 41/43/41
f 18/18/18 14/14/14 40/42/40 42/44/42
f 20/20/20 16/16/16 41/43/41 43/45/43
f 22/22/22 18/18/18 42/44/42 44/46/44
f 24/24/24 20/20/20 43/45/43 45/47/45
f 26/26/26 22/22/22 44/46/44 46/48/46
f 28/28/28 24/24/24 45/47/45 47/49/47
f 30/30/30 26/26/26 46/48/46 33/33/33
f 32/32/32 28/28/28 47/49/47 35/35/35
f 43/45/43 41/43/41 48/50/48 49/51/49
f 44/46/44 42/44/42 50/52/50 51/53/51
f 45/47/45 43/45/43 49/51/49 52/54/52
f 46/48/46 44/46/44 51/53/51 53/55/53
f 47/49/47 45/47/45 52/54/52 54/56/54
f 33/33/33 46/48/46 53/55/53 55/57/55
f 35/35/35 47/49/47 54/56/54 56/58/56
f 34/34/34 33/33/33 55/57/55 57/59/57
f 36/36/36 35/35/35 56/58/56 58/60/58
f 37/38/37 2/61/2 59/62/59
f 4/63/4 34/34/34 57/59/57
f 38/40/38 36/36/36 58/60/58 60/64/60
f 39/41/39 37/38/37 59/62/59 61/65/61
f 40/42/40 38/40/38 60/64/60 62/66/62
f 41/43/41 39/41/39 61/65/61 48/50/48
f 42/44/42 40/42/40 62/66/62 50/52/50
f 58/60/58 56/58/56 63/67/63 64/68/64
f 59/62/59 2/69/2 65/70/65
f 4/71/4 57/59/57 66/72/66
f 60/64/60 58/60/58 64/68/64 67/73/67
f 61/65/61 59/62/59 65/70/65 68/74/68
f 62/66/62 60/64/60 67/73/67 69/75/69
f 48/50/48 61/65/61 68/74/68 70/76/70
f 50/52/50 62/66/62 69/75/69 71/77/71
f 49/51/49 48/50/48 70/76/70 72/78/72
f 51/53/51 50/52/50 71/77/71 73/79/73
f 52/54/52 49/51/49 72/78/72 74/80/74
f 53/55/53 51/53/51 73/79/73 75/81/75
f 54/56/54 52/54/52 74/80/74 76/82/76
f 55/57/55 53/55/53 75/81/75 77/83/77
f 56/58/56 54/56/54 76/82/76 63/67/63
f 57/59/57 55/57/55 77/83/77 66/72/66
f 73/79/73 71/77/71 78/84/78 79/85/79
f 74/80/74 72/78/72 80/86/80 81/87/81
f 75/81/75 73/79/73 79/85/79 82/88/82
f 76/82/76 74/80/74 81/87/81 83/89/83
f 77/83/77 75/81/75 82/88/82 84/90/84
f 63/67/63 76/82/76 83/89/83 85/91/85
f 66/72/66 77/83/77 84/90/84 86/92/86
f 64/68/64 63/67/63 85/91/85 87/93/87
f 65/70/65 2/94/2 88/95/88
f 4/96/4 66/72/66 86/92/86
f 67/73/67 64/68/64 87/93/87 89/97/89
f 68/74/68 65/70/65 88/95/88 90/98/90
f 69/75/69 67/73/67 89/97/89 91/99/91
f 70/76/70 68/74/68 90/98/90 92/100/92
f 71/77/71 69/75/69 91/99/91 78/84/78
f 72/78/72 70/76/70 92/100/92 80/86/80
f 88/95/88 2/101/2 93/102/93
f 4/103/4 86/92/86 94/104/94
f 89/97/89 87/93/87 95/105/95 96/106/96
f 90/98/90 88/95/88 93/102/93 97/107/97
f 91/99/91 89/97/89 96/106/96 98/108/98
f 92/100/92 90/98/90 97/107/97 99/109/99
f 78/84/78 91/99/91 98/108/98 100/110/100
f 80/86/80 92/100/92 99/109/99 101/111/101
f 79/85/79 78/84/78 100/110/100 102/112/102
f 81/87/81 80/86/80 101/111/101 103/113/103
f 82/88/82 79/85/79 102/112/102 104/114/104
f 83/89/83 81/87/81 103/113/103 105/115/105
f 84/90/84 82/88/82 104/114/104 106/116/106
f 85/91/85 83/89/83 105/115/105 107/117/107
f 86/92/86 84/90/84 106/116/106 94/104/94
f 87/93/87 85/91/85 107/117/107 95/105/95
f 103/113/103 101/111/101 108/118/108 109/119/109
f 104/114/104 102/112/102 110/120/110 111/121/111
f 105/115/105 103/113/103 109/119/109 112/122/112
f 106/116/106 104/114/104 111/121/111 113/123/113
f 107/117/107 105/115/105 112/122/112 114/124/114
f 94/104/94 106/116/106 113/123/113 115/125/115
f 95/105/95 107/117/107 114/124/114 116/126/116
f 93/102/93 2/127/2 117/128/117
f 4/129/4 94/104/94 115/125/115
f 96/106/96 95/105/95 116/126/116 118/130/118
f 97/107/97 93/102/93 117/128/117 119/131/119
f 98/108/98 96/106/96 118/130/118 120/132/120
f 99/109/99 97/107/97 119/131/119 121/133/121
f 100/110/100 98/108/98 120/132/120 122/134/122
f 101/111/101 99/109/99 121/133/121 108/118/108
f 102/112/102 100/110/100 122/134/122 110/120/110
f 118/130/118 116/126/116 123/135/123 124/136/124
f 119/131/119 117/128/117 125/137/125 126/138/126
f 120/132/120 118/130/118 124/136/124 127/139/127
f 121/133/121 119/131/119 126/138/126 128/140/128
f 122/134/122 120/132/120 127/139/127 129/141/129
f 108/118/108 121/133/121 128/140/128 130/142/130
f 110/120/110 122/134/122 129/141/129 131/143/131
f 109/119/109 108/118/108 130/142/130 132/144/132
f 111/121/111 110/120/110 131/143/131 133/145/133
f 112/122/112 109/119/109 132/144/132 134/146/134
f 113/123/113 111/121/111 133/145/133 135/147/135
f 114/124/114 112/122/112 134/146/134 136/148/136
f 115/125/115 113/123/113 135/147/135 137/149/137
f 116/126/116 114/124/114 136/148/136 123/135/123
f 117/128/117 2/150/2 125/137/125
f 4/151/4 115/125/115 137/149/137
f 133/145/133 131/143/131 138/152/138 139/153/139
f 134/146/134 132/144/132 140/154/140 141/155/141
f 135/147/135 133/145/133 139/153/139 142/156/142
f 136/148/136 134/146/134 141/155/141 143/157/143
f 137/149/137 135/147/135 142/156/142 144/158/144
f 123/135/123 136/148/136 143/157/143 145/159/145
f 125/137/125 2/160/2 146/161/146
f 4/162/4 137/149/137 144/158/144
f 124/136/124 123/135/123 145/159/145 147/163/147
f 126/138/126 125/137/125 146/161/146 148/164/148
f 127/139/127 124/136/124 147/163/147 149/165/149
f 128/140/128 126/138/126 148/164/148 150/166/150
f 129/141/129 127/139/127 149/165/149 151/167/151
f 130/142/130 128/140/128 150/166/150 152/168/152
f 131/143/131 129/141/129 151/167/151 138/152/138
f 132/144/132 130/142/130 152/168/152 140/154/140
f 149/165/149 147/163/147 153/169/153 154/170/154
f 150/166/150 148/164/148 155/171/155 156/172/156
f 151/167/151 149/165/149 154/170/154 157/173/157
f 152/168/152 150/166/150 156/172/156 158/174/158
f 138/152/138 151/167/151 157/173/157 159/175/159
f 140/154/140 152/168/152 158/174/158 160/176/160
f 139/153/139 138/152/138 159/175/159 161/177/161
f 141/155/141 140/154/140 160/176/160 162/178/162
f 142/156/142 139/153/139 161/177/161 163/179/163
f 143/157/143 141/155/141 162/178/162 164/180/164
f 144/158/144 142/156/142 163/179/163 165/181/165
f 145/159/145 143/157/143 164/180/164 166/182/166
f 146/161/146 2/183/2 167/184/167
f 4/185/4 144/158/144 165/181/165
f 147/163/147 145/159/145 166/182/166 153/169/153
f 148/164/148 146/161/146 167/184/167 155/171/155
f 163/179/163 161/177/161 168/186/168 169/187/169
f 164/180/164 162/178/162 170/188/170 171/189/171
f 165/181/165 163/179/163 169/187/169 172/190/172
f 166/182/166 164/180/164 171/189/171 173/191/173
f 167/184/167 2/192/2 174/193/174
f 4/194/4 165/181/165 172/190/172
f 153/169/153 166/182/166 173/191/173 175/195/175
f 155/171/155 167/184/167 174/193/174 176/196/176
f 154/170/154 153/169/153 175/195/175 177/197/177
f 156/172/156 155/171/155 176/196/176 178/198/178
f 157/173/157 154/170/154 177/197/177 179/199/179
f 158/174/158 156/172/156 178/198/178 180/200/180
f 159/175/159 157/173/157 179/199/179 181/201/181
f 160/176/160 158/174/158 180/200/180 182/202/182
f 161/177/161 159/175/159 181/201/181 168/186/168
f 162/178/162 160/176/160 182/202/182 170/188/170
f 178/198/178 176/196/176 183/203/183 184/204/184
f 179/199/179 177/197/177 185/205/185 186/206/186
f 180/200/180 178/198/178 184/204/184 187/207/187
f 181/201/181 179/199/179 186/206/186 188/208/188
f 182/202/182 180/200/180 187/207/187 189/209/189
f 168/186/168 181/201/181 188/208/188 190/210/190
f 170/188/170 182/202/182 189/209/189 191/211/191
f 169/187/169 168/186/168 190/210/190 192/212/192
f 171/189/171 170/188/170 191/211/191 193/213/193
f 172/190/172 169/187/169 192/212/192 194/214/194
f 173/191/173 171/189/171 193/213/193 195/215/195
f 174/193/174 2/216/2 196/217/196
f 4/218/4 172/190/172 194/214/194
f 175/195/175 173/191/173 195/215/195 197/219/197
f 176/196/176 174/193/174 196/217/196 183/203/183
f 177/197/177 175/195/175 197/219/197 185/205/185
f 193/213/193 191/211/191 198/220/198 199/221/199
f 194/214/194 192/212/192 200/222/200 201/223/201
f 195/215/195 193/213/193 199/221/199 202/224/202
f 196/217/196 2/225/2 203/226/203
f 4/227/4 194/214/194 201/223/201
f 197/219/197 195/215/195 202/224/202 204/228/204
f 183/203/183 196/217/196 203/226/203 205/229/205
f 185/205/185 197/219/197 204/228/204 206/230/206
f 184/204/184 183/203/183 205/229/205 207/231/207
f 186/206/186 185/205/185 206/230/206 208/232/208
f 187/207/187 184/204/184 207/231/207 209/233/209
f 188/208/188 186/206/186 208/232/208 210/234/210
f 189/209/189 187/207/187 209/233/209 211/235/211
f 190/210/190 188/208/188 210/234/210 212/236/212
f 191/211/191 189/209/189 211/235/211 198/220/198
f 192/212/192 190/210/190 212/236/212 200/222/200
f 208/232/208 206/230/206 213/237/213 214/238/214
f 209/233/209 207/231/207 215/239/215 216/240/216
f 210/234/210 208/232/208 214/238/214 217/241/217
f 211/235/211 209/233/209 216/240/216 218/242/218
f 212/236/212 210/234/210 217/241/217 219/243/219
f 198/220/198 211/235/211 218/242/218 220/244/220
f 200/222/200 212/236/212 219/243/219 221/245/221
f 199/221/199 198/220/198 220/244/220 222/246/222
f 201/223/201 200/222/200 221/245/221 223/247/223
f 202/224/202 199/221/199 222/246/222 224/248/224
f 203/226/203 2/249/2 225/250/225
f 4/251/4 201/223/201 223/247/223
f 204/228/204 202/224/202 224/248/224 226/252/226
f 205/229/205 203/226/203 225/250/225 227/253/227
f 206/230/206 204/228/204 226/252/226 213/237/213
f 207/231/207 205/229/205 227/253/227 215/239/215
f 223/247/223 221/245/221 228/254/228 229/255/229
f 224/248/224 222/246/222 230/256/230 231/257/231
f 225/250/225 2/258/2 232/259/232
f 4/260/4 223/247/223 229/255/229
f 226/252/226 224/248/224 231/257/231 233/261/233
f 227/253/227 225/250/225 232/259/232 234/262/234
f 213/237/213 226/252/226 233/261/233 235/263/235
f 215/239/215 227/253/227 234/262/234 236/264/236
f 214/238/214 213/237/213 235/263/235 237/265/237
f 216/240/216 215/239/215 236/264/236 238/266/238
f 217/241/217 214/238/214 237/265/237 239/267/239
f 218/242/218 216/240/216 238/266/238 240/268/240
f 219/243/219 217/241/217 239/267/239 241/269/241
f 220/244/220 218/242/218 240/268/240 242/270/242
f 221/245/221 219/243/219 241/269/241 228/254/228
f 222/246/222 220/244/220 242/270/242 230/256/230
f 238/266/238 236/264/236 243/271/243 244/272/244
f 239/267/239 237/265/237 245/273/245 246/274/246
f 240/268/240 238/266/238 244/272/244 247/275/247
f 241/269/241 239/267/239 246/274/246 248/276/248
f 242/270/242 240/268/240 247/275/247 249/277/249
f 228/254/228 241/269/241 248/276/248 250/278/250
f 230/256/230 242/270/242 249/277/249 251/279/251
f 229/255/229 228/254/228 250/278/250 252/280/252
f 231/257/231 230/256/230 251/279/251 253/281/253
f 232/259/232 2/282/2 254/283/254
f 4/284/4 229/255/229 252/280/252
f 233/261/233 231/257/231 253/281/253 255/285/255
f 234/262/234 232/259/232 254/283/254 256/286/256
f 235/263/235 233/261/233 255/285/255 257/287/257
f 236/264/236 234/262/234 256/286/256 243/271/243
f 237/265/237 235/263/235 257/287/257 245/273/245
f 253/281/253 251/279/251 258/288/258 259/289/259
f 254/283/254 2/290/2 260/291/260
f 4/292/4 252/280/252 261/293/261
f 255/285/255 253/281/253 259/289/259 262/294/262
f 256/286/256 254/283/254 260/291/260 263/295/263
f 257/287/257 255/285/255 262/294/262 264/296/264
f 243/271/243 256/286/256 263/295/263 265/297/265
f 245/273/245 257/287/257 264/296/264 266/298/266
f 244/272/244 243/271/243 265/297/265 267/299/267
f 246/274/246 245/273/245 266/298/266 268/300/268
f 247/275/247 244/272/244 267/299/267 269/301/269
f 248/276/248 246/274/246 268/300/268 270/302/270
f 249/277/249 247/275/247 269/301/269 271/303/271
f 250/278/250 248/276/248 270/302/270 272/304/272
f 251/279/251 249/277/249 271/303/271 258/288/258
f 252/280/252 250/278/250 272/304/272 261/293/261
f 268/300/268 266/298/266 273/305/273 274/306/274
f 269/301/269 267/299/267 275/307/275 276/308/276
f 270/302/270 268/300/268 274/306/274 277/309/277
f 271/303/271 269/301/269 276/308/276 278/310/278
f 272/304/272 270/302/270 277/309/277 279/311/279
f 258/288/258 271/303/271 278/310/278 280/312/280
f 261/293/261 272/304/272 279/311/279 281/313/281
f 259/289/259 258/288/258 280/312/280 282/314/282
f 260/291/260 2/315/2 283/316/283
f 4/317/4 261/293/261 281/313/281
f 262/294/262 259/289/259 282/314/282 284/318/284
f 263/295/263 260/291/260 283/316/283 285/319/285
f 264/296/264 262/294/262 284/318/284 286/320/286
f 265/297/265 263/295/263 285/319/285 287/321/287
f 266/298/266 264/296/264 286/320/286 273/305/273
f 267/299/267 265/297/265 287/321/287 275/307/275
f 4/322/4 281/313/281 288/323/288
f 284/318/284 282/314/282 289/324/289 290/325/290
f 285/319/285 283/316/283 291/326/291 292/327/292
f 286/320/286 284/318/284 290/325/290 293/328/293
f 287/321/287 285/319/285 292/327/292 294/329/294
f 273/305/273 286/320/286 293/328/293 295/330/295
f 275/307/275 287/321/287 294/329/294 296/331/296
f 274/306/274 273/305/273 295/330/295 297/332/297
f 276/308/276 275/307/275 296/331/296 298/333/298
f 277/309/277 274/306/274 297/332/297 299/334/299
f 278/310/278 276/308/276 298/333/298 300/335/300
f 279/311/279 277/309/277 299/334/299 301/336/301
f 280/312/280 278/310/278 300/335/300 302/337/302
f 281/313/281 279/311/279 301/336/301 288/323/288
f 282/314/282 280/312/280 302/337/302 289/324/289
f 283/316/283 2/338/2 291/326/291
f 299/334/299 297/332/297 303/339/303 304/340/304
f 300/335/300 298/333/298 305/341/305 306/342/306
f 301/336/301 299/334/299 304/340/304 307/343/307
f 302/337/302 300/335/300 306/342/306 308/344/308
f 288/323/288 301/336/301 307/343/307 309/345/309
f 289/324/289 302/337/302 308/344/308 310/346/310
f 291/326/291 2/347/2 311/348/311
f 4/349/4 288/323/288 309/345/309
f 290/325/290 289/324/289 310/346/310 312/350/312
f 292/327/292 291/326/291 311/348/311 313/351/313
f 293/328/293 290/325/290 312/350/312 314/352/314
f 294/329/294 292/327/292 313/351/313 315/353/315
f 295/330/295 293/328/293 314/352/314 316/354/316
f 296/331/296 294/329/294 315/353/315 317/355/317
f 297/332/297 295/330/295 316/354/316 303/339/303
f 298/333/298 296/331/296 317/355/317 305/341/305
f 313/351/313 311/348/311 318/356/318 319/357/319
f 314/352/314 312/350/312 320/358/320 321/359/321
f 315/353/315 313/351/313 319/357/319 322/360/322
f 316/354/316 314/352/314 321/359/321 323/361/323
f 317/355/317 315/353/315 322/360/322 324/362/324
f 303/339/303 316/354/316 323/361/323 325/363/325
f 305/341/305 317/355/317 324/362/324 326/364/326
f 304/340/304 303/339/303 325/363/325 327/365/327
f 306/342/306 305/341/305 326/364/326 328/366/328
f 307/343/307 304/340/304 327/365/327 329/367/329
f 308/344/308 306/342/306 328/366/328 330/368/330
f 309/345/309 307/343/307 329/367/329 331/369/331
f 310/346/310 308/344/308 330/368/330 332/370/332
f 311/348/311 2/371/2 318/356/318
f 4/372/4 309/345/309 331/369/331
f 312/350/312 310/346/310 332/370/332 320/358/320
f 328/366/328 326/364/326 333/373/333 334/374/334
f 329/367/329 327/365/327 335/375/335 336/376/336
f 330/368/330 328/366/328 334/374/334 337/377/337
f 331/369/331 329/367/329 336/376/336 338/378/338
f 332/370/332 330/368/330 337/377/337 339/379/339
f 318/356/318 2/380/2 340/381/340
f 4/382/4 331/369/331 338/378/338
f 320/358/320 332/370/332 339/379/339 341/383/341
f 319/357/319 318/356/318 340/381/340 342/384/342
f 321/359/321 320/358/320 341/383/341 343/385/343
f 322/360/322 319/357/319 342/384/342 344/386/344
f 323/361/323 321/359/321 343/385/343 345/387/345
f 324/362/324 322/360/322 344/386/344 346/388/346
f 325/363/325 323/361/323 345/387/345 347/389/347
f 326/364/326 324/362/324 346/388/346 333/373/333
f 327/365/327 325/363/325 347/389/347 335/375/335
f 343/385/343 341/383/341 348/390/348 349/391/349
f 344/386/344 342/384/342 350/392/350 351/393/351
f 345/387/345 343/385/343 349/391/349 352/394/352
f 346/388/346 344/386/344 351/393/351 353/395/353
f 347/389/347 345/387/345 352/394/352 354/396/354
f 333/373/333 346/388/346 353/395/353 355/397/355
f 335/375/335 347/389/347 354/396/354 356/398/356
f 334/374/334 333/373/333 355/397/355 357/399/357
f 336/376/336 335/375/335 356/398/356 358/400/358
f 337/377/337 334/374/334 357/399/357 359/401/359
f 338/378/338 336/376/336 358/400/358 360/402/360
f 339/379/339 337/377/337 359/401/359 361/403/361
f 340/381/340 2/404/2 362/405/362
f 4/406/4 338/378/338 360/402/360
f 341/383/341 339/379/339 361/403/361 348/390/348
f 342/384/342 340/381/340 362/405/362 350/392/350
f 358/400/358 356/398/356 363/407/363 364/408/364
f 359/401/359 357/399/357 365/409/365 366/410/366
f 360/402/360 358/400/358 364/408/364 367/411/367
f 361/403/361 359/401/359 366/410/366 368/412/368
f 362/405/362 2/413/2 369/414/369
f 4/415/4 360/402/360 367/411/367
f 348/390/348 361/403/361 368/412/368 370/416/370
f 350/392/350 362/405/362 369/414/369 371/417/371
f 349/391/349 348/390/348 370/416/370 372/418/372
f 351/393/351 350/392/350 371/417/371 373/419/373
f 352/394/352 349/391/349 372/418/372 374/420/374
f 353/395/353 351/393/351 373/419/373 375/421/375
f 354/396/354 352/394/352 374/420/374 376/422/376
f 355/397/355 353/395/353 375/421/375 377/423/377
f 356/398/356 354/396/354 376/422/376 363/407/363
f 357/399/357 355/397/355 377/423/377 365/409/365
f 373/424/373 371/425/371 378/426/378 379/427/379
f 374/428/374 372/429/372 380/430/380 381/431/381
f 375/432/375 373/424/373 379/427/379 382/433/382
f 376/434/376 374/428/374 381/431/381 383/435/383
f 377/436/377 375/432/375 382/433/382 384/437/384
f 363/438/363 376/434/376 383/435/383 385/439/385
f 365/440/365 377/436/377 384/437/384 386/441/386
f 364/442/364 363/438/363 385/439/385 387/443/387
f 366/444/366 365/440/365 386/441/386 388/445/388
f 367/446/367 364/442/364 387/443/387 389/447/389
f 368/448/368 366/444/366 388/445/388 390/449/390
f 369/450/369 2/451/2 391/452/391
f 4/453/4 367/446/367 389/447/389
f 370/454/370 368/448/368 390/449/390 392/455/392
f 371/425/371 369/450/369 391/452/391 378/426/378
f 372/429/372 370/454/370 392/455/392 380/430/380
f 388/445/388 386/441/386 393/456/393 394/457/394
f 389/447/389 387/443/387 395/458/395 396/459/396
f 390/449/390 388/445/388 394/457/394 397/460/397
f 391/452/391 2/461/2 398/462/398
f 4/463/4 389/447/389 396/459/396
f 392/455/392 390/449/390 397/460/397 399/464/399
f 378/426/378 391/452/391 398/462/398 400/465/400
f 380/430/380 392/455/392 399/464/399 401/466/401
f 379/427/379 378/426/378 400/465/400 402/467/402
f 381/431/381 380/430/380 401/466/401 403/468/403
f 382/433/382 379/427/379 402/467/402 404/469/404
f 383/435/383 381/431/381 403/468/403 405/470/405
f 384/437/384 382/433/382 404/469/404 406/471/406
f 385/439/385 383/435/383 405/470/405 407/472/407
f 386/441/386 384/437/384 406/471/406 393/456/393
f 387/443/387 385/439/385 407/472/407 395/458/395
f 403/468/403 401/466/401 408/473/408 409/474/409
f 404/469/404 402/467/402 410/475/410 411/476/411
f 405/470/405 403/468/403 409/474/409 412/477/412
f 406/471/406 404/469/404 411/476/411 413/478/413
f 407/472/407 405/470/405 412/477/412 414/479/414
f 393/456/393 406/471/406 413/478/413 415/480/415
f 395/458/395 407/472/407 414/479/414 416/481/416
f 394/457/394 393/456/393 415/480/415 417/482/417
f 396/459/396 395/458/395 416/481/416 418/483/418
f 397/460/397 394/457/394 417/482/417 419/484/419
f 398/462/398 2/485/2 420/486/420
f 4/487/4 396/459/396 418/483/418
f 399/464/399 397/460/397 419/484/419 421/488/421
f 400/465/400 398/462/398 420/486/420 422/489/422
f 401/466/401 399/464/399 421/488/421 408/473/408
f 402/467/402 400/465/400 422/489/422 410/475/410
f 418/483/418 416/481/416 423/490/423 424/491/424
f 419/484/419 417/482/417 425/492/425 426/493/426
f 420/486/420 2/494/2 427/495/427
f 4/496/4 418/483/418 424/491/424
f 421/488/421 419/484/419 426/493/426 428/497/428
f 422/489/422 420/486/420 427/495/427 429/498/429
f 408/473/408 421/488/421 428/497/428 430/499/430
f 410/475/410 422/489/422 429/498/429 431/500/431
f 409/474/409 408/473/408 430/499/430 432/501/432
f 411/476/411 410/475/410 431/500/431 433/502/433
f 412/477/412 409/474/409 432/501/432 434/503/434
f 413/478/413 411/476/411 433/502/433 435/504/435
f 414/479/414 412/477/412 434/503/434 436/505/436
f 415/480/415 413/478/413 435/504/435 437/506/437
f 416/481/416 414/479/414 436/505/436 423/490/423
f 417/482/417 415/480/415 437/506/437 425/492/425
f 434/503/434 432/501/432 438/507/438 439/508/439
f 435/504/435 433/502/433 440/509/440 441/510/441
f 436/505/436 434/503/434 439/508/439 442/511/442
f 437/506/437 435/504/435 441/510/441 443/512/443
f 423/490/423 436/505/436 442/511/442 444/513/444
f 425/492/425 437/506/437 443/512/443 445/514/445
f 424/491/424 423/490/423 444/513/444 446/515/446
f 426/493/426 425/492/425 445/514/445 447/516/447
f 427/495/427 2/517/2 448/518/448
f 4/519/4 424/491/424 446/515/446
f 428/497/428 426/493/426 447/516/447 449/520/449
f 429/498/429 427/495/427 448/518/448 450/521/450
f 430/499/430 428/497/428 449/520/449 451/522/451
f 431/500/431 429/498/429 450/521/450 452/523/452
f 432/501/432 430/499/430 451/522/451 438/507/438
f 433/502/433 431/500/431 452/523/452 440/509/440
f 448/518/448 2/524/2 453/525/453
f 4/526/4 446/515/446 454/527/454
f 449/520/449 447/516/447 455/528/455 456/529/456
f 450/521/450 448/518/448 453/525/453 457/530/457
f 451/522/451 449/520/449 456/529/456 458/531/458
f 452/523/452 450/521/450 457/530/457 459/532/459
f 438/507/438 451/522/451 458/531/458 460/533/460
f 440/509/440 452/523/452 459/532/459 461/534/461
f 439/508/439 438/507/438 460/533/460 462/535/462
f 441/510/441 440/509/440 461/534/461 463/536/463
f 442/511/442 439/508/439 462/535/462 464/537/464
f 443/512/443 441/510/441 463/536/463 465/538/465
f 444/513/444 442/511/442 464/537/464 466/539/466
f 445/514/445 443/512/443 465/538/465 467/540/467
f 446/515/446 444/513/444 466/539/466 454/527/454
f 447/516/447 445/514/445 467/540/467 455/528/455
f 463/536/463 461/534/461 468/541/468 469/542/469
f 464/537/464 462/535/462 470/543/470 471/544/471
f 465/538/465 463/536/463 469/542/469 472/545/472
f 466/539/466 464/537/464 471/544/471 473/546/473
f 467/540/467 465/538/465 472/545/472 474/547/474
f 454/527/454 466/539/466 473/546/473 475/548/475
f 455/528/455 467/540/467 474/547/474 476/549/476
f 453/525/453 2/550/2 477/551/477
f 4/552/4 454/527/454 475/548/475
f 456/529/456 455/528/455 476/549/476 478/553/478
f 457/530/457 453/525/453 477/551/477 479/554/479
f 458/531/458 456/529/456 478/553/478 480/555/480
f 459/532/459 457/530/457 479/554/479 481/556/481
f 460/533/460 458/531/458 480/555/480 482/557/482
f 461/534/461 459/532/459 481/556/481 468/541/468
f 462/535/462 460/533/460 482/557/482 470/543/470
f 478/553/478 476/549/476 8/8/8 7/7/7
f 479/554/479 477/551/477 1/1/1 11/11/11
f 480/555/480 478/553/478 7/7/7 13/13/13
f 481/556/481 479/554/479 11/11/11 15/15/15
f 482/557/482 480/555/480 13/13/13 17/17/17
f 468/541/468 481/556/481 15/15/15 19/19/19
f 470/543/470 482/557/482 17/17/17 21/21/21
f 469/542/469 468/541/468 19/19/19 23/23/23
f 471/544/471 470/543/470 21/21/21 25/25/25
f 472/545/472 469/542/469 23/23/23 27/27/27
f 473/546/473 471/544/471 25/25/25 29/29/29
f 474/547/474 472/545/472 27/27/27 31/31/31
f 475/548/475 473/546/473 29/29/29 5/5/5
f 476/549/476 474/547/474 31/31/31 8/8/8
f 477/551/477 2/558/2 1/1/1
f 4/559/4 475/548/475 5/5/5
