# Blender 4.5.2 LTS
# www.blender.org
mtllib Dice.mtl
o Dice
v -0.468676 -0.500000 0.468676
v -0.468676 -0.468676 0.500000
v -0.500000 -0.468676 0.468676
v -0.468676 -0.495815 0.484318
v -0.484318 -0.495815 0.468676
v -0.483656 -0.491750 0.483656
v -0.484318 -0.468676 0.495815
v -0.468676 -0.484318 0.495815
v -0.483656 -0.483656 0.491750
v -0.495815 -0.484318 0.468676
v -0.495815 -0.468676 0.484318
v -0.491750 -0.483656 0.483656
v -0.468676 0.468676 0.500000
v -0.468676 0.500000 0.468676
v -0.500000 0.468676 0.468676
v -0.468676 0.484318 0.495815
v -0.484318 0.468676 0.495815
v -0.483656 0.483656 0.491750
v -0.484318 0.495815 0.468676
v -0.468676 0.495815 0.484318
v -0.483656 0.491750 0.483656
v -0.495815 0.468676 0.484318
v -0.495815 0.484318 0.468676
v -0.491750 0.483656 0.483656
v -0.468676 -0.500000 -0.468676
v -0.500000 -0.468676 -0.468676
v -0.468676 -0.468676 -0.500000
v -0.484318 -0.495815 -0.468676
v -0.468676 -0.495815 -0.484318
v -0.483656 -0.491750 -0.483656
v -0.495815 -0.468676 -0.484318
v -0.495815 -0.484318 -0.468676
v -0.491750 -0.483656 -0.483656
v -0.468676 -0.484318 -0.495815
v -0.484318 -0.468676 -0.495815
v -0.483656 -0.483656 -0.491750
v -0.468676 0.500000 -0.468676
v -0.468676 0.468676 -0.500000
v -0.500000 0.468676 -0.468676
v -0.468676 0.495815 -0.484318
v -0.484318 0.495815 -0.468676
v -0.483656 0.491750 -0.483656
v -0.484318 0.468676 -0.495815
v -0.468676 0.484318 -0.495815
v -0.483656 0.483656 -0.491750
v -0.495815 0.484318 -0.468676
v -0.495815 0.468676 -0.484318
v -0.491750 0.483656 -0.483656
v 0.468676 -0.500000 0.468676
v 0.500000 -0.468676 0.468676
v 0.468676 -0.468676 0.500000
v 0.484318 -0.495815 0.468676
v 0.468676 -0.495815 0.484318
v 0.483656 -0.491750 0.483656
v 0.495815 -0.468676 0.484318
v 0.495815 -0.484318 0.468676
v 0.491750 -0.483656 0.483656
v 0.468676 -0.484318 0.495815
v 0.484318 -0.468676 0.495815
v 0.483656 -0.483656 0.491750
v 0.468676 0.500000 0.468676
v 0.468676 0.468676 0.500000
v 0.500000 0.468676 0.468676
v 0.468676 0.495815 0.484318
v 0.484318 0.495815 0.468676
v 0.483656 0.491750 0.483656
v 0.484318 0.468676 0.495815
v 0.468676 0.484318 0.495815
v 0.483656 0.483656 0.491750
v 0.495815 0.484318 0.468676
v 0.495815 0.468676 0.484318
v 0.491750 0.483656 0.483656
v 0.468676 -0.500000 -0.468676
v 0.468676 -0.468676 -0.500000
v 0.500000 -0.468676 -0.468676
v 0.468676 -0.495815 -0.484318
v 0.484318 -0.495815 -0.468676
v 0.483656 -0.491750 -0.483656
v 0.484318 -0.468676 -0.495815
v 0.468676 -0.484318 -0.495815
v 0.483656 -0.483656 -0.491750
v 0.495815 -0.484318 -0.468676
v 0.495815 -0.468676 -0.484318
v 0.491750 -0.483656 -0.483656
v 0.468676 0.500000 -0.468676
v 0.500000 0.468676 -0.468676
v 0.468676 0.468676 -0.500000
v 0.484318 0.495815 -0.468676
v 0.468676 0.495815 -0.484318
v 0.483656 0.491750 -0.483656
v 0.495815 0.468676 -0.484318
v 0.495815 0.484318 -0.468676
v 0.491750 0.483656 -0.483656
v 0.468676 0.484318 -0.495815
v 0.484318 0.468676 -0.495815
v 0.483656 0.483656 -0.491750
vn -0.1296 -0.9831 0.1296
vn -0.1296 -0.1296 0.9831
vn -0.9831 -0.1296 0.1296
vn -0.1216 -0.8623 0.4915
vn -0.4915 -0.8623 0.1216
vn -0.4473 -0.7744 0.4473
vn -0.4915 -0.1216 0.8623
vn -0.1216 -0.4915 0.8623
vn -0.4473 -0.4473 0.7744
vn -0.8623 -0.4915 0.1216
vn -0.8623 -0.1216 0.4915
vn -0.7744 -0.4473 0.4473
vn -0.1296 0.1296 0.9831
vn -0.1296 0.9831 0.1296
vn -0.9831 0.1296 0.1296
vn -0.1216 0.4915 0.8623
vn -0.4915 0.1216 0.8623
vn -0.4473 0.4473 0.7744
vn -0.4915 0.8623 0.1216
vn -0.1216 0.8623 0.4915
vn -0.4473 0.7744 0.4473
vn -0.8623 0.1216 0.4915
vn -0.8623 0.4915 0.1216
vn -0.7744 0.4473 0.4473
vn -0.1296 -0.9831 -0.1296
vn -0.9831 -0.1296 -0.1296
vn -0.1296 -0.1296 -0.9831
vn -0.4915 -0.8623 -0.1216
vn -0.1216 -0.8623 -0.4915
vn -0.4473 -0.7744 -0.4473
vn -0.8623 -0.1216 -0.4915
vn -0.8623 -0.4915 -0.1216
vn -0.7744 -0.4473 -0.4473
vn -0.1216 -0.4915 -0.8623
vn -0.4915 -0.1216 -0.8623
vn -0.4473 -0.4473 -0.7744
vn -0.1296 0.9831 -0.1296
vn -0.1296 0.1296 -0.9831
vn -0.9831 0.1296 -0.1296
vn -0.1216 0.8623 -0.4915
vn -0.4915 0.8623 -0.1216
vn -0.4473 0.7744 -0.4473
vn -0.4915 0.1216 -0.8623
vn -0.1216 0.4915 -0.8623
vn -0.4473 0.4473 -0.7744
vn -0.8623 0.4915 -0.1216
vn -0.8623 0.1216 -0.4915
vn -0.7744 0.4473 -0.4473
vn 0.1296 -0.9831 0.1296
vn 0.9831 -0.1296 0.1296
vn 0.1296 -0.1296 0.9831
vn 0.4915 -0.8623 0.1216
vn 0.1216 -0.8623 0.4915
vn 0.4473 -0.7744 0.4473
vn 0.8623 -0.1216 0.4915
vn 0.8623 -0.4915 0.1216
vn 0.7744 -0.4473 0.4473
vn 0.1216 -0.4915 0.8623
vn 0.4915 -0.1216 0.8623
vn 0.4473 -0.4473 0.7744
vn 0.1296 0.9831 0.1296
vn 0.1296 0.1296 0.9831
vn 0.9831 0.1296 0.1296
vn 0.1216 0.8623 0.4915
vn 0.4915 0.8623 0.1216
vn 0.4473 0.7744 0.4473
vn 0.4915 0.1216 0.8623
vn 0.1216 0.4915 0.8623
vn 0.4473 0.4473 0.7744
vn 0.8623 0.4915 0.1216
vn 0.8623 0.1216 0.4915
vn 0.7744 0.4473 0.4473
vn 0.1296 -0.9831 -0.1296
vn 0.1296 -0.1296 -0.9831
vn 0.9831 -0.1296 -0.1296
vn 0.1216 -0.8623 -0.4915
vn 0.4915 -0.8623 -0.1216
vn 0.4473 -0.7744 -0.4473
vn 0.4915 -0.1216 -0.8623
vn 0.1216 -0.4915 -0.8623
vn 0.4473 -0.4473 -0.7744
vn 0.8623 -0.4915 -0.1216
vn 0.8623 -0.1216 -0.4915
vn 0.7744 -0.4473 -0.4473
vn 0.1296 0.9831 -0.1296
vn 0.9831 0.1296 -0.1296
vn 0.1296 0.1296 -0.9831
vn 0.4915 0.8623 -0.1216
vn 0.1216 0.8623 -0.4915
vn 0.4473 0.7744 -0.4473
vn 0.8623 0.1216 -0.4915
vn 0.8623 0.4915 -0.1216
vn 0.7744 0.4473 -0.4473
vn 0.1216 0.4915 -0.8623
vn 0.4915 0.1216 -0.8623
vn 0.4473 0.4473 -0.7744
vt 0.132831 0.742169
vt 0.132831 0.746079
vt 0.129086 0.745914
vt 0.128921 0.742169
vt 0.132831 0.750000
vt 0.129086 0.750000
vt 0.382831 0.992169
vt 0.382831 1.000000
vt 0.375000 0.995914
vt 0.375000 0.992169
vt 0.382831 0.000000
vt 0.382831 0.003921
vt 0.375000 0.004086
vt 0.375000 0.000000
vt 0.382831 0.007831
vt 0.375000 0.007831
vt 0.125000 0.742169
vt 0.125000 0.745914
vt 0.617169 0.992169
vt 0.621079 0.992169
vt 0.620914 1.000000
vt 0.617169 1.000000
vt 0.625000 0.992169
vt 0.625000 1.000000
vt 0.867169 0.742169
vt 0.875000 0.742169
vt 0.875000 0.745914
vt 0.867169 0.750000
vt 0.625000 0.007831
vt 0.621079 0.007831
vt 0.620914 0.004086
vt 0.625000 0.004086
vt 0.617169 0.007831
vt 0.617169 0.003921
vt 0.617169 0.000000
vt 0.620914 0.000000
vt 0.132831 0.507831
vt 0.128921 0.507831
vt 0.129086 0.504086
vt 0.132831 0.503921
vt 0.125000 0.507831
vt 0.125000 0.504086
vt 0.382831 0.242169
vt 0.382831 0.246079
vt 0.375000 0.245914
vt 0.375000 0.242169
vt 0.382831 0.253921
vt 0.375000 0.254086
vt 0.382831 0.257831
vt 0.375000 0.257831
vt 0.132831 0.500000
vt 0.129086 0.500000
vt 0.867169 0.507831
vt 0.867169 0.500000
vt 0.875000 0.504086
vt 0.875000 0.507831
vt 0.625000 0.257831
vt 0.621079 0.257831
vt 0.620914 0.253610
vt 0.625000 0.247716
vt 0.617169 0.257831
vt 0.617169 0.253921
vt 0.617169 0.246079
vt 0.620914 0.245914
vt 0.617169 0.242169
vt 0.621079 0.242169
vt 0.625000 0.242169
vt 0.367169 0.742169
vt 0.371079 0.742169
vt 0.370914 0.745914
vt 0.367169 0.746079
vt 0.378921 0.742169
vt 0.378610 0.745914
vt 0.382831 0.742169
vt 0.382831 0.746079
vt 0.382831 0.753921
vt 0.373499 0.752585
vt 0.382831 0.757831
vt 0.371081 0.753912
vt 0.632831 0.742169
vt 0.628912 0.753919
vt 0.627585 0.751501
vt 0.628920 0.742169
vt 0.621079 0.757831
vt 0.620914 0.754086
vt 0.617169 0.757831
vt 0.617169 0.753921
vt 0.617169 0.746079
vt 0.620914 0.746390
vt 0.617169 0.742169
vt 0.621079 0.742169
vt 0.367169 0.507831
vt 0.367169 0.503921
vt 0.370914 0.504086
vt 0.371079 0.507831
vt 0.371081 0.496088
vt 0.373499 0.497415
vt 0.382831 0.492169
vt 0.382831 0.496079
vt 0.382831 0.503921
vt 0.378610 0.504086
vt 0.382831 0.507831
vt 0.378921 0.507831
vt 0.632831 0.507831
vt 0.628920 0.507831
vt 0.627585 0.498499
vt 0.628912 0.496081
vt 0.621079 0.507831
vt 0.620914 0.503610
vt 0.617169 0.507831
vt 0.617169 0.503921
vt 0.617169 0.496079
vt 0.620914 0.495914
vt 0.617169 0.492169
vt 0.621079 0.492169
s 1
usemtl Dice
f 1/1/1 4/2/4 6/3/6 5/4/5
f 4/2/4 8/5/8 9/6/9 6/3/6
f 2/7/2 7/8/7 9/9/9 8/10/8
f 7/11/7 11/12/11 12/13/12 9/14/9
f 3/15/3 10/16/10 12/13/12 11/12/11
f 10/17/10 5/4/5 6/3/6 12/18/12
f 6/3/6 9/6/9 12/18/12
f 13/19/13 16/20/16 18/21/18 17/22/17
f 16/20/16 20/23/20 21/24/21 18/21/18
f 14/25/14 19/26/19 21/27/21 20/28/20
f 19/29/19 23/30/23 24/31/24 21/32/21
f 15/33/15 22/34/22 24/31/24 23/30/23
f 22/34/22 17/35/17 18/36/18 24/31/24
f 18/36/18 21/32/21 24/31/24
f 25/37/25 28/38/28 30/39/30 29/40/29
f 28/38/28 32/41/32 33/42/33 30/39/30
f 26/43/26 31/44/31 33/45/33 32/46/32
f 31/44/31 35/47/35 36/48/36 33/45/33
f 27/49/27 34/50/34 36/48/36 35/47/35
f 34/51/34 29/40/29 30/39/30 36/52/36
f 30/39/30 33/42/33 36/52/36
f 37/53/37 40/54/40 42/55/42 41/56/41
f 40/57/40 44/58/44 45/59/45 42/60/42
f 38/61/38 43/62/43 45/59/45 44/58/44
f 43/62/43 47/63/47 48/64/48 45/59/45
f 39/65/39 46/66/46 48/64/48 47/63/47
f 46/66/46 41/67/41 42/60/42 48/64/48
f 42/60/42 45/59/45 48/64/48
f 49/68/49 52/69/52 54/70/54 53/71/53
f 52/69/52 56/72/56 57/73/57 54/70/54
f 50/74/50 55/75/55 57/73/57 56/72/56
f 55/75/55 59/76/59 60/77/60 57/73/57
f 51/78/51 58/79/58 60/77/60 59/76/59
f 58/79/58 53/71/53 54/70/54 60/77/60
f 54/70/54 57/73/57 60/77/60
f 61/80/61 64/81/64 66/82/66 65/83/65
f 64/81/64 68/84/68 69/85/69 66/82/66
f 62/86/62 67/87/67 69/85/69 68/84/68
f 67/87/67 71/88/71 72/89/72 69/85/69
f 63/90/63 70/91/70 72/89/72 71/88/71
f 70/91/70 65/83/65 66/82/66 72/89/72
f 66/82/66 69/85/69 72/89/72
f 73/92/73 76/93/76 78/94/78 77/95/77
f 76/93/76 80/96/80 81/97/81 78/94/78
f 74/98/74 79/99/79 81/97/81 80/96/80
f 79/99/79 83/100/83 84/101/84 81/97/81
f 75/102/75 82/103/82 84/101/84 83/100/83
f 82/103/82 77/95/77 78/94/78 84/101/84
f 78/94/78 81/97/81 84/101/84
f 85/104/85 88/105/88 90/106/90 89/107/89
f 88/105/88 92/108/92 93/109/93 90/106/90
f 86/110/86 91/111/91 93/109/93 92/108/92
f 91/111/91 95/112/95 96/113/96 93/109/93
f 87/114/87 94/115/94 96/113/96 95/112/95
f 94/115/94 89/107/89 90/106/90 96/113/96
f 90/106/90 93/109/93 96/113/96
f 25/37/25 1/1/1 5/4/5 28/38/28
f 28/38/28 5/4/5 10/17/10 32/41/32
f 32/46/32 10/16/10 3/15/3 26/43/26
f 2/7/2 13/19/13 17/22/17 7/8/7
f 7/11/7 17/35/17 22/34/22 11/12/11
f 11/12/11 22/34/22 15/33/15 3/15/3
f 14/25/14 37/53/37 41/56/41 19/26/19
f 19/29/19 41/67/41 46/66/46 23/30/23
f 23/30/23 46/66/46 39/65/39 15/33/15
f 38/61/38 27/49/27 35/47/35 43/62/43
f 43/62/43 35/47/35 31/44/31 47/63/47
f 47/63/47 31/44/31 26/43/26 39/65/39
f 73/92/73 25/37/25 29/40/29 76/93/76
f 76/93/76 29/40/29 34/51/34 80/96/80
f 80/96/80 34/50/34 27/49/27 74/98/74
f 37/53/37 85/104/85 89/107/89 40/54/40
f 40/57/40 89/107/89 94/115/94 44/58/44
f 44/58/44 94/115/94 87/114/87 38/61/38
f 86/110/86 75/102/75 83/100/83 91/111/91
f 91/111/91 83/100/83 79/99/79 95/112/95
f 95/112/95 79/99/79 74/98/74 87/114/87
f 49/68/49 73/92/73 77/95/77 52/69/52
f 52/69/52 77/95/77 82/103/82 56/72/56
f 56/72/56 82/103/82 75/102/75 50/74/50
f 85/104/85 61/80/61 65/83/65 88/105/88
f 88/105/88 65/83/65 70/91/70 92/108/92
f 92/108/92 70/91/70 63/90/63 86/110/86
f 62/86/62 51/78/51 59/76/59 67/87/67
f 67/87/67 59/76/59 55/75/55 71/88/71
f 71/88/71 55/75/55 50/74/50 63/90/63
f 1/1/1 49/68/49 53/71/53 4/2/4
f 4/2/4 53/71/53 58/79/58 8/5/8
f 8/10/8 58/79/58 51/78/51 2/7/2
f 61/80/61 14/25/14 20/28/20 64/81/64
f 64/81/64 20/23/20 16/20/16 68/84/68
f 68/84/68 16/20/16 13/19/13 62/86/62
f 25/37/25 73/92/73 49/68/49 1/1/1
f 3/15/3 15/33/15 39/65/39 26/43/26
f 51/78/51 62/86/62 13/19/13 2/7/2
f 85/104/85 37/53/37 14/25/14 61/80/61
f 27/49/27 38/61/38 87/114/87 74/98/74
f 75/102/75 86/110/86 63/90/63 50/74/50
