# Blender 4.5.2 LTS
# www.blender.org
mtllib Fighter.mtl
o Fighter
v 0.162162 0.000000 0.081081
v 1.000000 -0.162162 -0.675676
v 0.189189 0.000000 0.351351
v 1.000000 -0.162162 -0.729730
v 1.000000 -0.162162 -0.675676
v 0.162162 0.000000 0.081081
v 0.000000 -0.108108 0.837838
v -0.064865 -0.081081 0.756757
v 0.064865 -0.081081 0.756757
v -0.162162 0.000000 0.081081
v -1.000000 -0.162162 -0.675676
v -0.189189 0.000000 0.351351
v -1.000000 -0.162162 -0.729730
v -1.000000 -0.162162 -0.675676
v -0.162162 0.000000 0.081081
v 0.189189 0.000000 0.351351
v 1.000000 -0.162162 -0.675676
v 0.162162 0.000000 0.081081
v 0.162162 0.000000 0.081081
v 1.000000 -0.162162 -0.675676
v 1.000000 -0.162162 -0.729730
v 0.162162 0.108108 0.162162
v 0.108108 0.162162 0.135135
v 0.081081 0.135135 0.297297
v 0.189189 0.000000 0.351351
v 0.162162 0.108108 0.162162
v 0.081081 0.135135 0.297297
v 0.108108 0.162162 0.135135
v -0.108108 0.162162 0.135135
v -0.081081 0.135135 0.297297
v 0.081081 0.135135 0.297297
v 0.000000 -0.108108 0.837838
v 0.027027 -0.054054 0.918919
v -0.027027 -0.054054 0.918919
v 0.064865 -0.081081 0.756757
v 0.105405 -0.027027 0.810811
v 0.027027 -0.054054 0.918919
v 0.000000 -0.108108 0.837838
v 0.064865 -0.081081 0.756757
v -0.064865 -0.081081 0.756757
v 0.000000 -0.108108 0.837838
v 0.091892 -0.108108 0.351351
v 0.189189 0.000000 0.351351
v 0.105405 -0.027027 0.810811
v 0.064865 -0.081081 0.756757
v 0.064865 -0.081081 0.756757
v -0.064865 -0.081081 0.756757
v -0.091892 -0.108108 0.351351
v 0.091892 -0.108108 0.351351
v 0.078378 -0.081081 -0.027027
v 0.135135 -0.000000 -0.216216
v 0.189189 0.000000 0.351351
v 0.091892 -0.108108 0.351351
v 0.091892 -0.108108 0.351351
v -0.091892 -0.108108 0.351351
v -0.078378 -0.081081 -0.027027
v 0.078378 -0.081081 -0.027027
v -0.135135 -0.000000 -0.216216
v 0.135135 -0.000000 -0.216216
v 0.078378 -0.081081 -0.027027
v -0.078378 -0.081081 -0.027027
v -0.189189 0.000000 0.351351
v -1.000000 -0.162162 -0.675676
v -0.162162 0.000000 0.081081
v -0.162162 0.000000 0.081081
v -1.000000 -0.162162 -0.675676
v -1.000000 -0.162162 -0.729730
v -0.081081 0.135135 0.297297
v -0.108108 0.162162 0.135135
v -0.162162 0.108108 0.162162
v -0.081081 0.135135 0.297297
v -0.162162 0.108108 0.162162
v -0.189189 0.000000 0.351351
v 0.000000 -0.108108 0.837838
v -0.027027 -0.054054 0.918919
v -0.105405 -0.027027 0.810811
v -0.064865 -0.081081 0.756757
v -0.064865 -0.081081 0.756757
v -0.105405 -0.027027 0.810811
v -0.189189 0.000000 0.351351
v -0.091892 -0.108108 0.351351
v -0.091892 -0.108108 0.351351
v -0.189189 0.000000 0.351351
v -0.135135 -0.000000 -0.216216
v -0.078378 -0.081081 -0.027027
v 1.000000 -0.167568 -0.783784
v 0.162162 -0.027027 -0.108108
v 0.162162 0.000000 0.081081
v 1.000000 -0.162162 -0.729730
v -1.000000 -0.167568 -0.783784
v -0.162162 -0.027027 -0.108108
v -0.162162 0.000000 0.081081
v -1.000000 -0.162162 -0.729730
v 0.189189 0.000000 0.351351
v 0.351351 0.027027 0.216216
v 0.162162 0.108108 0.162162
v 0.135135 -0.000000 -0.216216
v 0.351351 0.027027 0.216216
v 0.189189 0.000000 0.351351
v 1.000000 -0.162162 -0.729730
v 0.162162 0.000000 0.081081
v 0.162162 -0.027027 -0.108108
v 1.000000 -0.167568 -0.783784
v 0.135135 -0.000000 -0.216216
v -0.162162 0.108108 0.162162
v -0.351351 0.027027 0.216216
v -0.189189 0.000000 0.351351
v -0.189189 0.000000 0.351351
v -0.351351 0.027027 0.216216
v -0.135135 -0.000000 -0.216216
v -1.000000 -0.162162 -0.729730
v -0.162162 0.000000 0.081081
v -0.162162 -0.027027 -0.108108
v -1.000000 -0.167568 -0.783784
v -0.135135 -0.000000 -0.216216
v 0.108108 0.162162 0.135135
v 0.162162 0.108108 0.162162
v 0.135135 -0.000000 -0.216216
v 0.045946 0.135135 -0.135135
v -0.108108 0.162162 0.135135
v 0.108108 0.162162 0.135135
v 0.045946 0.135135 -0.135135
v -0.045946 0.135135 -0.135135
v 0.135135 -0.000000 -0.216216
v -0.135135 -0.000000 -0.216216
v -0.045946 0.135135 -0.135135
v 0.045946 0.135135 -0.135135
v -0.045946 0.135135 -0.135135
v -0.135135 -0.000000 -0.216216
v -0.162162 0.108108 0.162162
v -0.108108 0.162162 0.135135
v 0.081081 0.135135 0.297297
v -0.081081 0.135135 0.297297
v -0.054054 0.054054 0.729730
v 0.054054 0.054054 0.729730
v 0.105405 -0.027027 0.810811
v 0.189189 0.000000 0.351351
v 0.027027 -0.054054 0.918919
v -0.027027 -0.054054 0.918919
v -0.189189 0.000000 0.351351
v -0.105405 -0.027027 0.810811
vn -0.1748 -0.9845 0.0175
vn -0.1900 -0.9818 -0.0000
vn -0.0000 -0.9487 -0.3162
vn -0.1748 0.9845 -0.0175
vn -0.1900 0.9818 -0.0000
vn 0.1748 0.9845 -0.0175
vn 0.1900 0.9818 -0.0000
vn 0.6288 0.7432 0.2287
vn 0.6912 0.6656 0.2816
vn -0.0000 0.9864 0.1644
vn -0.0000 -0.8321 0.5547
vn 0.6297 -0.7290 0.2684
vn 0.6296 -0.7291 0.2684
vn 0.6296 -0.7290 0.2684
vn -0.0000 0.9487 0.3162
vn 0.7426 -0.6629 0.0951
vn -0.0000 -0.9978 0.0665
vn 0.7371 -0.6720 -0.0718
vn 0.7371 -0.6720 -0.0719
vn 0.7370 -0.6720 -0.0718
vn -0.0000 -0.9975 -0.0712
vn -0.0000 -0.9191 -0.3939
vn 0.1748 -0.9845 0.0175
vn 0.1900 -0.9818 -0.0000
vn -0.6288 0.7432 0.2287
vn -0.6912 0.6656 0.2816
vn -0.6296 -0.7290 0.2684
vn -0.6296 -0.7291 0.2684
vn -0.7426 -0.6630 0.0951
vn -0.7426 -0.6629 0.0951
vn -0.7370 -0.6720 -0.0718
vn -0.7370 -0.6720 -0.0719
vn 0.0617 0.9893 -0.1319
vn 0.0617 -0.9893 0.1319
vn 0.2295 0.8582 0.4591
vn 0.3595 0.9288 0.0899
vn 0.3595 0.9288 0.0898
vn 0.1526 -0.9882 -0.0145
vn -0.0617 -0.9893 0.1319
vn 0.4425 0.8547 -0.2715
vn -0.3596 0.9288 0.0899
vn -0.3595 0.9288 0.0899
vn -0.2295 0.8582 0.4591
vn -0.1526 -0.9882 -0.0145
vn -0.0617 0.9893 -0.1319
vn -0.4424 0.8547 -0.2715
vn 0.7422 0.6284 -0.2329
vn 0.7421 0.6285 -0.2330
vn -0.0000 0.9950 -0.0995
vn -0.0000 0.5145 -0.8575
vn -0.7419 0.6288 -0.2328
vn -0.7420 0.6286 -0.2329
vn -0.7421 0.6285 -0.2330
vn -0.7422 0.6284 -0.2330
vn 0.3988 0.8973 0.1894
vn -0.3987 0.8973 0.1894
vn -0.3100 0.8800 0.3600
vn 0.3100 0.8800 0.3600
vn 0.5975 0.7269 0.3386
vn 0.7368 0.6571 0.1593
vn 0.2100 0.8401 0.5001
vn -0.2100 0.8401 0.5001
vn -0.7368 0.6571 0.1593
vn -0.5974 0.7269 0.3386
s 1
usemtl mat0.001
f 1//1 2//1 3//1
f 4//2 5//2 6//2
f 7//3 8//3 9//3
f 10//4 11//4 12//4
f 13//5 14//5 15//5
f 16//6 17//6 18//6
f 19//7 20//7 21//7
f 22//8 23//8 24//8
f 25//9 26//9 27//9
f 28//10 29//10 30//10
f 28//10 30//10 31//10
f 32//11 33//11 34//11
f 35//12 36//13 37//14
f 35//12 37//14 38//13
f 39//15 40//15 41//15
f 42//16 43//16 44//16
f 42//16 44//16 45//16
f 46//17 47//17 48//17
f 46//17 48//17 49//17
f 50//18 51//19 52//19
f 50//18 52//19 53//20
f 54//21 55//21 56//21
f 54//21 56//21 57//21
f 58//22 59//22 60//22
f 58//22 60//22 61//22
f 62//23 63//23 64//23
f 65//24 66//24 67//24
f 68//25 69//25 70//25
f 71//26 72//26 73//26
f 74//27 75//27 76//28
f 74//27 76//28 77//28
f 78//29 79//30 80//29
f 78//29 80//29 81//29
f 82//31 83//31 84//32
f 82//31 84//32 85//31
usemtl mat1.001
f 86//33 87//33 88//33
f 86//33 88//33 89//33
f 90//34 91//34 92//34
f 90//34 92//34 93//34
f 94//35 95//36 96//37
f 97//38 98//38 99//38
f 100//39 101//39 102//39
f 100//39 102//39 103//39
f 96//37 95//36 104//40
f 105//41 106//42 107//43
f 108//44 109//44 110//44
f 111//45 112//45 113//45
f 111//45 113//45 114//45
f 115//46 106//42 105//41
usemtl mat2.001
f 116//47 117//47 118//48
f 116//47 118//48 119//48
f 120//49 121//49 122//49
f 120//49 122//49 123//49
f 124//50 125//50 126//50
f 124//50 126//50 127//50
f 128//51 129//52 130//53
f 128//51 130//53 131//54
usemtl mat3.001
f 132//55 133//56 134//57
f 132//55 134//57 135//58
f 136//59 137//60 132//55
f 136//59 132//55 135//58
f 135//58 138//61 136//59
f 134//57 139//62 138//61
f 134//57 138//61 135//58
f 134//57 133//56 140//63
f 134//57 140//63 141//64
f 141//64 139//62 134//57
