#
#
#

mtllib Monkey.mtl


#
#  メッシュ
#
g  メッシュ


#
#  メッシュ_Monkey
#
usemtl  メッシュ_Monkey

v 0.468750 0.242188 0.757812
v 0.437500 0.164062 0.765625
v 0.500000 0.093750 0.687500
v 0.562500 0.242188 0.671875
v -0.500000 0.093750 0.687500
v -0.437500 0.164062 0.765625
v -0.468750 0.242188 0.757812
v -0.562500 0.242188 0.671875
v 0.546875 0.054688 0.578125
v 0.625000 0.242188 0.562500
v -0.546875 0.054688 0.578125
v -0.625000 0.242188 0.562500
v 0.351562 0.031250 0.718750
v 0.351562 -0.023438 0.617188
v -0.351562 -0.023438 0.617188
v -0.351562 0.031250 0.718750
v 0.351562 0.132812 0.781250
v -0.351562 0.132812 0.781250
v 0.273438 0.164062 0.796875
v 0.203125 0.093750 0.742188
v -0.203125 0.093750 0.742188
v -0.273438 0.164062 0.796875
v 0.156250 0.054688 0.648438
v -0.156250 0.054688 0.648438
v 0.140625 0.242188 0.742188
v 0.078125 0.242188 0.656250
v -0.078125 0.242188 0.656250
v -0.140625 0.242188 0.742188
v 0.242188 0.242188 0.796875
v -0.242188 0.242188 0.796875
v 0.273438 0.328125 0.796875
v 0.203125 0.390625 0.742188
v -0.203125 0.390625 0.742188
v -0.273438 0.328125 0.796875
v 0.156250 0.437500 0.648438
v -0.156250 0.437500 0.648438
v 0.351562 0.453125 0.718750
v 0.351562 0.515625 0.617188
v -0.351562 0.515625 0.617188
v -0.351562 0.453125 0.718750
v 0.351562 0.359375 0.781250
v -0.351562 0.359375 0.781250
v 0.437500 0.328125 0.765625
v 0.500000 0.390625 0.687500
v -0.500000 0.390625 0.687500
v -0.437500 0.328125 0.765625
v 0.546875 0.437500 0.578125
v -0.546875 0.437500 0.578125
v 0.445312 0.335938 0.781250
v 0.476562 0.242188 0.773438
v -0.445312 0.335938 0.781250
v -0.476562 0.242188 0.773438
v 0.351562 0.375000 0.804688
v -0.351562 0.375000 0.804688
v 0.265625 0.335938 0.820312
v -0.265625 0.335938 0.820312
v 0.226562 0.242188 0.820312
v -0.226562 0.242188 0.820312
v 0.265625 0.156250 0.820312
v -0.265625 0.156250 0.820312
v 0.351562 0.117188 0.804688
v -0.351562 0.117188 0.804688
v 0.445312 0.156250 0.781250
v -0.445312 0.156250 0.781250
v 0.351562 0.242188 0.828125
v -0.351562 0.242188 0.828125
v 0.179688 -0.968750 0.554688
v 0.164062 -0.929688 0.632812
v 0.000000 -0.945312 0.640625
v 0.000000 -0.984375 0.578125
v -0.164062 -0.929688 0.632812
v -0.179688 -0.968750 0.554688
v 0.328125 -0.945312 0.523438
v 0.234375 -0.914062 0.632812
v -0.234375 -0.914062 0.632812
v -0.328125 -0.945312 0.523438
v 0.367188 -0.890625 0.531250
v 0.265625 -0.820312 0.664062
v -0.265625 -0.820312 0.664062
v -0.367188 -0.890625 0.531250
v 0.351562 -0.695312 0.570312
v 0.250000 -0.703125 0.687500
v -0.250000 -0.703125 0.687500
v -0.351562 -0.695312 0.570312
v 0.312500 -0.437500 0.570312
v 0.210938 -0.445312 0.710938
v -0.210938 -0.445312 0.710938
v -0.312500 -0.437500 0.570312
v 0.203125 -0.187500 0.562500
v 0.437500 -0.140625 0.531250
v 0.398438 -0.046875 0.671875
v 0.125000 -0.101562 0.812500
v -0.398438 -0.046875 0.671875
v -0.437500 -0.140625 0.531250
v -0.203125 -0.187500 0.562500
v -0.125000 -0.101562 0.812500
v 0.632812 -0.039062 0.539062
v 0.617188 0.054688 0.625000
v -0.617188 0.054688 0.625000
v -0.632812 -0.039062 0.539062
v 0.828125 0.148438 0.445312
v 0.726562 0.203125 0.601562
v -0.726562 0.203125 0.601562
v -0.828125 0.148438 0.445312
v 0.859375 0.429688 0.593750
v 0.742188 0.375000 0.656250
v -0.742188 0.375000 0.656250
v -0.859375 0.429688 0.593750
v 0.710938 0.484375 0.625000
v 0.687500 0.414062 0.726562
v -0.687500 0.414062 0.726562
v -0.710938 0.484375 0.625000
v 0.492188 0.601562 0.687500
v 0.437500 0.546875 0.796875
v -0.437500 0.546875 0.796875
v -0.492188 0.601562 0.687500
v 0.320312 0.757812 0.734375
v 0.312500 0.640625 0.835938
v -0.312500 0.640625 0.835938
v -0.320312 0.757812 0.734375
v 0.156250 0.718750 0.757812
v 0.203125 0.617188 0.851562
v -0.203125 0.617188 0.851562
v -0.156250 0.718750 0.757812
v 0.062500 0.492188 0.750000
v 0.101562 0.429688 0.843750
v -0.101562 0.429688 0.843750
v -0.062500 0.492188 0.750000
v 0.000000 0.429688 0.742188
v 0.000000 0.351562 0.820312
v 0.164062 0.414062 0.773438
v 0.250000 0.468750 0.757812
v -0.250000 0.468750 0.757812
v -0.164062 0.414062 0.773438
v 0.328125 0.476562 0.742188
v -0.328125 0.476562 0.742188
v 0.429688 0.437500 0.718750
v -0.429688 0.437500 0.718750
v 0.601562 0.375000 0.664062
v -0.601562 0.375000 0.664062
v 0.640625 0.296875 0.648438
v -0.640625 0.296875 0.648438
v 0.625000 0.187500 0.648438
v -0.625000 0.187500 0.648438
v 0.492188 0.062500 0.671875
v -0.492188 0.062500 0.671875
v 0.375000 0.015625 0.703125
v -0.375000 0.015625 0.703125
v 0.203125 0.093750 0.742188
v -0.203125 0.093750 0.742188
v 0.164062 0.140625 0.750000
v 0.000000 0.046875 0.726562
v -0.164062 0.140625 0.750000
v 0.125000 0.304688 0.765625
v -0.125000 0.304688 0.765625
v 0.000000 0.210938 0.765625
v 0.132812 0.210938 0.757812
v -0.132812 0.210938 0.757812
v 0.062500 -0.882812 0.695312
v 0.000000 -0.890625 0.687500
v -0.062500 -0.882812 0.695312
v 0.117188 -0.835938 0.710938
v -0.117188 -0.835938 0.710938
v 0.109375 -0.718750 0.734375
v -0.109375 -0.718750 0.734375
v 0.078125 -0.445312 0.750000
v 0.117188 -0.687500 0.734375
v -0.117188 -0.687500 0.734375
v -0.078125 -0.445312 0.750000
v 0.085938 -0.289062 0.742188
v 0.000000 -0.328125 0.742188
v 0.000000 -0.445312 0.750000
v -0.085938 -0.289062 0.742188
v 0.000000 -0.679688 0.734375
v 0.000000 -0.765625 0.734375
v 0.125000 -0.226562 0.750000
v 0.132812 -0.226562 0.796875
v 0.093750 -0.273438 0.781250
v -0.093750 -0.273438 0.781250
v -0.132812 -0.226562 0.796875
v -0.125000 -0.226562 0.750000
v 0.101562 -0.148438 0.742188
v 0.109375 -0.132812 0.781250
v -0.109375 -0.132812 0.781250
v -0.101562 -0.148438 0.742188
v 0.000000 -0.140625 0.742188
v 0.039062 -0.125000 0.781250
v -0.039062 -0.125000 0.781250
v 0.000000 -0.195312 0.750000
v 0.000000 -0.187500 0.796875
v 0.000000 -0.320312 0.781250
v 0.078125 -0.250000 0.804688
v 0.000000 -0.289062 0.804688
v -0.078125 -0.250000 0.804688
v 0.000000 -0.203125 0.828125
v 0.046875 -0.148438 0.812500
v -0.046875 -0.148438 0.812500
v 0.093750 -0.156250 0.812500
v -0.093750 -0.156250 0.812500
v 0.109375 -0.226562 0.828125
v -0.109375 -0.226562 0.828125
v 0.164062 -0.242188 0.710938
v -0.164062 -0.242188 0.710938
v 0.179688 -0.312500 0.710938
v -0.179688 -0.312500 0.710938
v 0.257812 -0.312500 0.554688
v -0.257812 -0.312500 0.554688
v 0.234375 -0.250000 0.554688
v -0.234375 -0.250000 0.554688
v 0.000000 -0.773438 0.718750
v 0.093750 -0.742188 0.726562
v -0.093750 -0.742188 0.726562
v 0.093750 -0.820312 0.710938
v -0.093750 -0.820312 0.710938
v 0.046875 -0.867188 0.687500
v -0.046875 -0.867188 0.687500
v 0.000000 -0.875000 0.687500
v 0.046875 -0.851562 0.632812
v 0.000000 -0.859375 0.632812
v -0.046875 -0.851562 0.632812
v 0.093750 -0.812500 0.640625
v -0.093750 -0.812500 0.640625
v 0.093750 -0.750000 0.664062
v -0.093750 -0.750000 0.664062
v 0.000000 -0.781250 0.656250
v 0.187500 0.156250 0.773438
v 0.171875 0.218750 0.781250
v -0.187500 0.156250 0.773438
v -0.171875 0.218750 0.781250
v 0.179688 0.296875 0.781250
v -0.179688 0.296875 0.781250
v 0.210938 0.375000 0.781250
v -0.210938 0.375000 0.781250
v 0.226562 0.109375 0.781250
v -0.226562 0.109375 0.781250
v 0.375000 0.062500 0.742188
v -0.375000 0.062500 0.742188
v 0.476562 0.101562 0.718750
v -0.476562 0.101562 0.718750
v 0.578125 0.195312 0.679688
v -0.578125 0.195312 0.679688
v 0.585938 0.289062 0.687500
v -0.585938 0.289062 0.687500
v 0.562500 0.351562 0.695312
v -0.562500 0.351562 0.695312
v 0.421875 0.398438 0.773438
v -0.421875 0.398438 0.773438
v 0.335938 0.429688 0.757812
v -0.335938 0.429688 0.757812
v 0.273438 0.421875 0.773438
v -0.273438 0.421875 0.773438
v 0.234375 0.359375 0.757812
v 0.281250 0.398438 0.765625
v -0.234375 0.359375 0.757812
v -0.281250 0.398438 0.765625
v 0.335938 0.406250 0.750000
v -0.335938 0.406250 0.750000
v 0.414062 0.390625 0.750000
v -0.414062 0.390625 0.750000
v 0.531250 0.335938 0.679688
v -0.531250 0.335938 0.679688
v 0.554688 0.281250 0.671875
v -0.554688 0.281250 0.671875
v 0.546875 0.210938 0.671875
v -0.546875 0.210938 0.671875
v 0.460938 0.117188 0.703125
v -0.460938 0.117188 0.703125
v 0.375000 0.085938 0.726562
v -0.375000 0.085938 0.726562
v 0.242188 0.125000 0.757812
v -0.242188 0.125000 0.757812
v 0.203125 0.171875 0.750000
v -0.203125 0.171875 0.750000
v 0.195312 0.296875 0.757812
v -0.195312 0.296875 0.757812
v 0.195312 0.226562 0.750000
v -0.195312 0.226562 0.750000
v 0.109375 0.460938 0.609375
v 0.000000 0.406250 0.601562
v -0.109375 0.460938 0.609375
v 0.195312 0.664062 0.617188
v -0.195312 0.664062 0.617188
v 0.335938 0.687500 0.593750
v -0.335938 0.687500 0.593750
v 0.484375 0.554688 0.554688
v -0.484375 0.554688 0.554688
v 0.679688 0.453125 0.492188
v -0.679688 0.453125 0.492188
v 0.796875 0.406250 0.460938
v -0.796875 0.406250 0.460938
v 0.773438 0.164062 0.375000
v -0.773438 0.164062 0.375000
v 0.601562 0.000000 0.414062
v -0.601562 0.000000 0.414062
v 0.437500 -0.093750 0.468750
v -0.437500 -0.093750 0.468750
v 0.000000 -0.570312 0.320312
v 0.000000 -0.484375 0.281250
v 0.179688 -0.414062 0.257812
v 0.125000 -0.539062 0.359375
v -0.179688 -0.414062 0.257812
v -0.125000 -0.539062 0.359375
v 0.000000 -0.804688 0.343750
v 0.140625 -0.757812 0.367188
v -0.140625 -0.757812 0.367188
v 0.000000 -0.976562 0.460938
v 0.164062 -0.945312 0.437500
v -0.164062 -0.945312 0.437500
v 0.328125 -0.914062 0.398438
v -0.328125 -0.914062 0.398438
v 0.289062 -0.710938 0.382812
v -0.289062 -0.710938 0.382812
v 0.250000 -0.500000 0.390625
v -0.250000 -0.500000 0.390625
v 0.234375 -0.351562 0.406250
v -0.234375 -0.351562 0.406250
v 0.218750 -0.281250 0.429688
v 0.210938 -0.226562 0.468750
v -0.210938 -0.226562 0.468750
v -0.218750 -0.281250 0.429688
v 0.203125 -0.171875 0.500000
v -0.203125 -0.171875 0.500000
v 0.000000 0.070312 -0.828125
v 0.335938 0.054688 -0.664062
v 0.343750 -0.148438 -0.539062
v 0.000000 -0.195312 -0.671875
v -0.343750 -0.148438 -0.539062
v -0.335938 0.054688 -0.664062
v 0.296875 -0.312500 -0.265625
v 0.000000 -0.382812 -0.351562
v -0.296875 -0.312500 -0.265625
v 0.210938 -0.390625 0.164062
v 0.000000 -0.460938 0.187500
v -0.210938 -0.390625 0.164062
v 0.734375 -0.046875 0.070312
v 0.851562 0.234375 0.054688
v -0.734375 -0.046875 0.070312
v -0.851562 0.234375 0.054688
v 0.000000 0.562500 -0.851562
v 0.460938 0.437500 -0.703125
v -0.460938 0.437500 -0.703125
v 0.000000 0.898438 0.289062
v 0.453125 0.851562 0.234375
v 0.453125 0.929688 -0.070312
v 0.000000 0.984375 -0.078125
v -0.453125 0.929688 -0.070312
v -0.453125 0.851562 0.234375
v 0.453125 0.867188 -0.382812
v 0.000000 0.898438 -0.546875
v -0.453125 0.867188 -0.382812
v 0.726562 0.406250 0.335938
v 0.632812 0.453125 0.281250
v -0.726562 0.406250 0.335938
v -0.632812 0.453125 0.281250
v 0.796875 0.562500 0.125000
v 0.640625 0.703125 0.054688
v -0.796875 0.562500 0.125000
v -0.640625 0.703125 0.054688
v 0.796875 0.617188 -0.117188
v 0.640625 0.750000 -0.195312
v -0.796875 0.617188 -0.117188
v -0.640625 0.750000 -0.195312
v 0.796875 0.539062 -0.359375
v 0.640625 0.679688 -0.445312
v -0.796875 0.539062 -0.359375
v -0.640625 0.679688 -0.445312
v 0.773438 0.265625 -0.437500
v 0.617188 0.328125 -0.585938
v -0.617188 0.328125 -0.585938
v -0.773438 0.265625 -0.437500
v 0.460938 0.523438 0.429688
v -0.460938 0.523438 0.429688
v 0.000000 0.570312 0.570312
v 0.859375 0.320312 -0.046875
v -0.859375 0.320312 -0.046875
v 0.820312 0.328125 -0.203125
v -0.820312 0.328125 -0.203125
v 0.429688 -0.195312 -0.210938
v 0.406250 -0.171875 0.148438
v -0.429688 -0.195312 -0.210938
v -0.406250 -0.171875 0.148438
v 0.593750 -0.125000 -0.164062
v -0.593750 -0.125000 -0.164062
v 0.640625 -0.007812 -0.429688
v 0.484375 0.023438 -0.546875
v -0.484375 0.023438 -0.546875
v -0.640625 -0.007812 -0.429688
v 1.023438 0.476562 -0.312500
v 0.890625 0.406250 -0.234375
v 0.921875 0.359375 -0.218750
v 1.015625 0.414062 -0.289062
v -0.921875 0.359375 -0.218750
v -0.890625 0.406250 -0.234375
v -1.023438 0.476562 -0.312500
v -1.015625 0.414062 -0.289062
v 1.187500 0.437500 -0.390625
v 1.234375 0.507812 -0.421875
v -1.187500 0.437500 -0.390625
v -1.234375 0.507812 -0.421875
v 1.265625 0.289062 -0.406250
v 1.351562 0.320312 -0.421875
v -1.265625 0.289062 -0.406250
v -1.351562 0.320312 -0.421875
v 1.210938 0.078125 -0.406250
v 1.281250 0.054688 -0.429688
v -1.210938 0.078125 -0.406250
v -1.281250 0.054688 -0.429688
v 1.031250 -0.039062 -0.304688
v 1.039062 -0.101562 -0.328125
v -1.031250 -0.039062 -0.304688
v -1.039062 -0.101562 -0.328125
v 0.828125 -0.070312 -0.132812
v 0.773438 -0.140625 -0.125000
v -0.828125 -0.070312 -0.132812
v -0.773438 -0.140625 -0.125000
v 1.039062 0.000000 -0.367188
v 0.882812 -0.023438 -0.210938
v -0.882812 -0.023438 -0.210938
v -1.039062 0.000000 -0.367188
v 1.187500 0.093750 -0.445312
v -1.187500 0.093750 -0.445312
v 1.234375 0.250000 -0.445312
v -1.234375 0.250000 -0.445312
v 1.171875 0.359375 -0.437500
v -1.171875 0.359375 -0.437500
v 1.023438 0.343750 -0.359375
v -1.023438 0.343750 -0.359375
v 0.945312 0.304688 -0.289062
v -0.945312 0.304688 -0.289062
v 0.718750 -0.023438 -0.171875
v 0.726562 0.000000 -0.070312
v -0.718750 -0.023438 -0.171875
v -0.726562 0.000000 -0.070312
v 0.843750 0.289062 -0.210938
v -0.843750 0.289062 -0.210938
v 0.812500 -0.015625 -0.273438
v -0.812500 -0.015625 -0.273438
v 0.843750 0.015625 -0.273438
v 0.718750 0.039062 -0.187500
v -0.718750 0.039062 -0.187500
v -0.843750 0.015625 -0.273438
v 0.757812 0.093750 -0.273438
v 0.820312 0.085938 -0.273438
v -0.757812 0.093750 -0.273438
v -0.820312 0.085938 -0.273438
v 0.835938 0.171875 -0.273438
v 0.796875 0.203125 -0.210938
v -0.796875 0.203125 -0.210938
v -0.835938 0.171875 -0.273438
v 0.890625 0.242188 -0.265625
v -0.890625 0.242188 -0.265625
v 0.890625 0.234375 -0.320312
v 0.953125 0.289062 -0.343750
v -0.890625 0.234375 -0.320312
v -0.953125 0.289062 -0.343750
v 0.843750 0.171875 -0.320312
v -0.843750 0.171875 -0.320312
v 0.765625 0.093750 -0.320312
v -0.765625 0.093750 -0.320312
v 0.828125 0.078125 -0.320312
v -0.828125 0.078125 -0.320312
v 0.851562 0.015625 -0.320312
v -0.851562 0.015625 -0.320312
v 0.812500 -0.015625 -0.320312
v -0.812500 -0.015625 -0.320312
v 0.882812 -0.015625 -0.265625
v -0.882812 -0.015625 -0.265625
v 1.039062 0.328125 -0.414062
v -1.039062 0.328125 -0.414062
v 1.187500 0.343750 -0.484375
v -1.187500 0.343750 -0.484375
v 1.257812 0.242188 -0.492188
v -1.257812 0.242188 -0.492188
v 1.210938 0.085938 -0.484375
v -1.210938 0.085938 -0.484375
v 1.046875 0.000000 -0.421875
v -1.046875 0.000000 -0.421875
v 0.937500 0.062500 -0.335938
v 0.890625 0.109375 -0.328125
v -0.937500 0.062500 -0.335938
v -0.890625 0.109375 -0.328125
v 1.000000 0.125000 -0.367188
v 0.960938 0.171875 -0.351562
v -1.000000 0.125000 -0.367188
v -0.960938 0.171875 -0.351562
v 1.054688 0.187500 -0.382812
v 1.015625 0.234375 -0.375000
v -1.054688 0.187500 -0.382812
v -1.015625 0.234375 -0.375000
v 1.109375 0.210938 -0.390625
v 1.085938 0.273438 -0.390625
v -1.109375 0.210938 -0.390625
v -1.085938 0.273438 -0.390625
v 0.789062 -0.125000 -0.328125
v 1.039062 -0.085938 -0.492188
v -0.789062 -0.125000 -0.328125
v -1.039062 -0.085938 -0.492188
v 1.312500 0.054688 -0.531250
v -1.312500 0.054688 -0.531250
v 1.367188 0.296875 -0.500000
v -1.367188 0.296875 -0.500000
v 1.250000 0.468750 -0.546875
v -1.250000 0.468750 -0.546875
v 1.023438 0.437500 -0.484375
v -1.023438 0.437500 -0.484375
v 0.859375 0.382812 -0.382812
v -0.859375 0.382812 -0.382812
vn 0.664973 -0.200792 0.719370
vn -0.664973 -0.200792 0.719370
vn 0.829423 -0.303608 0.468913
vn -0.829423 -0.303608 0.468913
vn 0.415521 -0.793339 0.444922
vn -0.415521 -0.793339 0.444922
vn 0.359981 -0.508874 0.781960
vn -0.359981 -0.508874 0.781960
vn -0.078698 -0.539384 0.838375
vn 0.078698 -0.539384 0.838375
vn -0.269605 -0.841316 0.468509
vn 0.269605 -0.841316 0.468509
vn -0.770661 -0.335183 0.541972
vn 0.770661 -0.335183 0.541972
vn -0.468893 -0.193997 0.861687
vn 0.468893 -0.193997 0.861687
vn -0.476713 0.190705 0.858124
vn 0.476713 0.190705 0.858124
vn -0.767220 0.326409 0.552115
vn 0.767220 0.326409 0.552115
vn -0.251905 0.817315 0.518209
vn 0.251905 0.817315 0.518209
vn -0.094902 0.569612 0.816417
vn 0.094902 0.569612 0.816417
vn 0.366703 0.537005 0.759707
vn -0.366703 0.537005 0.759707
vn 0.414104 0.767208 0.489805
vn -0.414104 0.767208 0.489805
vn 0.827760 0.295221 0.477135
vn -0.827760 0.295221 0.477135
vn 0.671299 0.197100 0.714499
vn -0.671299 0.197100 0.714499
vn 0.811102 0.324401 -0.486701
vn -0.811102 0.324401 -0.486701
vn 0.205199 0.820597 -0.533398
vn -0.205199 0.820597 -0.533398
vn -0.422317 0.780632 -0.460719
vn 0.422317 0.780632 -0.460719
vn -0.824052 0.322481 -0.465773
vn 0.824052 0.322481 -0.465773
vn -0.813731 -0.348713 -0.465018
vn 0.813731 -0.348713 -0.465018
vn -0.422317 -0.780632 -0.460719
vn 0.422317 -0.780632 -0.460719
vn 0.205199 -0.820597 -0.533398
vn -0.205199 -0.820597 -0.533398
vn 0.799477 -0.350990 -0.487486
vn -0.799477 -0.350990 -0.487486
vn 0.399998 -0.062300 0.914396
vn -0.399998 -0.062300 0.914396
vn 0.306911 -0.175407 0.935435
vn -0.306911 -0.175407 0.935435
vn 0.094497 -0.183494 0.978468
vn -0.094497 -0.183494 0.978468
vn -0.062397 -0.028299 0.997650
vn 0.062397 -0.028299 0.997650
vn -0.062401 0.026000 0.997712
vn 0.062401 0.026000 0.997712
vn 0.099599 0.172898 0.979891
vn -0.099599 0.172898 0.979891
vn 0.303600 0.165600 0.938299
vn -0.303600 0.165600 0.938299
vn 0.400178 0.057197 0.914651
vn -0.400178 0.057197 0.914651
vn 0.123102 -0.861615 0.492408
vn -0.123102 -0.861615 0.492408
vn 0.219003 -0.864713 0.452007
vn -0.219003 -0.864713 0.452007
vn 0.590205 -0.455004 0.666806
vn -0.590205 -0.455004 0.666806
vn 0.768882 -0.050599 0.637385
vn -0.768882 -0.050599 0.637385
vn 0.779637 0.090004 0.619730
vn -0.779637 0.090004 0.619730
vn 0.324091 -0.818777 0.473887
vn -0.324091 -0.818777 0.473887
vn 0.385704 -0.662907 0.641707
vn -0.385704 -0.662907 0.641707
vn 0.689489 -0.419293 0.590591
vn -0.689489 -0.419293 0.590591
vn 0.658769 -0.363383 0.658769
vn -0.658769 -0.363383 0.658769
vn 0.546519 0.370713 0.750926
vn -0.546519 0.370713 0.750926
vn 0.506436 0.646446 0.570640
vn -0.506436 0.646446 0.570640
vn 0.609229 0.516724 0.601528
vn -0.609229 0.516724 0.601528
vn -0.044100 0.660994 0.749094
vn 0.044100 0.660994 0.749094
vn -0.724623 0.318710 0.611020
vn 0.724623 0.318710 0.611020
vn -0.588013 0.555412 0.588013
vn 0.588013 0.555412 0.588013
vn 0.536098 -0.390898 0.748197
vn -0.536098 -0.390898 0.748197
vn 0.220696 -0.468991 0.855184
vn -0.220696 -0.468991 0.855184
vn -0.079403 -0.532123 0.842936
vn 0.079403 -0.532123 0.842936
vn -0.082495 -0.657463 0.748958
vn 0.082495 -0.657463 0.748958
vn 0.045702 -0.566726 0.822638
vn -0.045702 -0.566726 0.822638
vn 0.278413 -0.213010 0.936543
vn -0.278413 -0.213010 0.936543
vn 0.381293 -0.182396 0.906282
vn -0.381293 -0.182396 0.906282
vn 0.335708 -0.287807 0.896921
vn -0.335708 -0.287807 0.896921
vn 0.376191 0.060299 0.924578
vn -0.376191 0.060299 0.924578
vn -0.135198 0.267996 0.953887
vn 0.135198 0.267996 0.953887
vn 0.396094 -0.432094 0.810188
vn -0.396094 -0.432094 0.810188
vn 0.185595 -0.247393 0.950974
vn -0.185595 -0.247393 0.950974
vn 0.009900 -0.194799 0.980793
vn -0.009900 -0.194799 0.980793
vn 0.072101 -0.696614 0.713814
vn -0.072101 -0.696614 0.713814
vn 0.186300 -0.572301 0.798601
vn -0.186300 -0.572301 0.798601
vn 0.315699 -0.270799 0.909397
vn -0.315699 -0.270799 0.909397
vn 0.306290 -0.026499 0.951569
vn -0.306290 -0.026499 0.951569
vn 0.326599 -0.130600 0.936097
vn -0.326599 -0.130600 0.936097
vn -0.013699 0.057398 0.998257
vn 0.013699 0.057398 0.998257
vn -0.002600 -0.065603 0.997842
vn 0.002600 -0.065603 0.997842
vn 0.000000 0.000000 1.000000
vn 0.817387 -0.574391 -0.044199
vn -0.817387 -0.574391 -0.044199
vn 0.949357 0.229690 -0.214390
vn -0.949357 0.229690 -0.214390
vn 0.082497 0.907267 -0.412385
vn -0.082497 0.907267 -0.412385
vn -0.883613 0.355505 0.304704
vn 0.883613 0.355505 0.304704
vn 0.420688 -0.879675 0.221794
vn -0.420688 -0.879675 0.221794
vn 0.287295 -0.574689 0.766286
vn -0.287295 -0.574689 0.766286
vn -0.654192 0.601892 0.457994
vn 0.654192 0.601892 0.457994
vn 0.105197 0.789180 0.605085
vn -0.105197 0.789180 0.605085
vn 0.758192 0.291597 0.583194
vn -0.758192 0.291597 0.583194
vn 0.388906 -0.713012 0.583409
vn -0.388906 -0.713012 0.583409
vn 0.046298 0.231390 0.971759
vn -0.046298 0.231390 0.971759
vn 0.033500 -0.401805 0.915112
vn -0.033500 -0.401805 0.915112
vn -0.445176 -0.160991 0.880852
vn 0.445176 -0.160991 0.880852
vn -0.218199 -0.436398 0.872895
vn 0.218199 -0.436398 0.872895
vn 0.434093 -0.128998 0.891585
vn -0.434093 -0.128998 0.891585
vn 0.300792 0.050099 0.952373
vn -0.300792 0.050099 0.952373
vn 0.812287 0.300995 0.499592
vn -0.812287 0.300995 0.499592
vn 0.875330 0.257409 0.409314
vn -0.875330 0.257409 0.409314
vn 0.938476 0.160096 0.305992
vn -0.938476 0.160096 0.305992
vn 0.223709 -0.653926 0.722728
vn -0.223709 -0.653926 0.722728
vn -0.153606 -0.199708 0.967740
vn 0.153606 -0.199708 0.967740
vn -0.273288 -0.102495 0.956456
vn 0.273288 -0.102495 0.956456
vn -0.097600 0.195199 0.975895
vn 0.097600 0.195199 0.975895
vn -0.158201 0.949404 0.271301
vn 0.158201 0.949404 0.271301
vn -0.693405 0.708205 0.132801
vn 0.693405 0.708205 0.132801
vn -1.000000 -0.000000 -0.000000
vn 1.000000 0.000000 0.000000
vn 0.305091 -0.944972 0.118097
vn -0.305091 -0.944972 0.118097
vn 0.029799 -0.298091 0.954072
vn -0.029799 -0.298091 0.954072
vn 0.135302 -0.347906 0.927715
vn -0.135302 -0.347906 0.927715
vn -0.508499 -0.275500 0.815799
vn 0.508499 -0.275500 0.815799
vn -0.384285 -0.041898 0.922263
vn 0.384285 -0.041898 0.922263
vn -0.208290 0.037398 0.977352
vn 0.208290 0.037398 0.977352
vn -0.572110 -0.476709 0.667412
vn 0.572110 -0.476709 0.667412
vn -0.136900 -0.753102 0.643502
vn 0.136900 -0.753102 0.643502
vn 0.408801 -0.607102 0.681402
vn -0.408801 -0.607102 0.681402
vn 0.574030 -0.413022 0.707038
vn -0.574030 -0.413022 0.707038
vn 0.566526 -0.096804 0.818338
vn -0.566526 -0.096804 0.818338
vn 0.570308 0.118002 0.812911
vn -0.570308 0.118002 0.812911
vn 0.482295 0.562095 0.671893
vn -0.482295 0.562095 0.671893
vn 0.260390 0.611377 0.747272
vn -0.260390 0.611377 0.747272
vn 0.163992 0.360683 0.918158
vn -0.163992 0.360683 0.918158
vn -0.017800 0.249503 0.968211
vn 0.017800 0.249503 0.968211
vn 0.327307 -0.416609 0.848119
vn -0.327307 -0.416609 0.848119
vn 0.281101 -0.261001 0.923504
vn -0.281101 -0.261001 0.923504
vn -0.254197 -0.651393 0.714892
vn 0.254197 -0.651393 0.714892
vn -0.026001 -0.845519 0.533312
vn 0.026001 -0.845519 0.533312
vn -0.351790 -0.260593 0.899075
vn 0.351790 -0.260593 0.899075
vn -0.352307 -0.011000 0.935820
vn 0.352307 -0.011000 0.935820
vn -0.131697 0.460791 0.877683
vn 0.131697 0.460791 0.877683
vn -0.034202 0.615940 0.787051
vn 0.034202 0.615940 0.787051
vn 0.360309 0.583614 0.727717
vn -0.360309 0.583614 0.727717
vn 0.498794 0.529994 0.685792
vn -0.498794 0.529994 0.685792
vn 0.666678 -0.333289 0.666678
vn -0.666678 -0.333289 0.666678
vn 0.816500 -0.073100 0.572700
vn -0.816500 -0.073100 0.572700
vn 0.784003 0.116101 0.609803
vn -0.784003 0.116101 0.609803
vn -0.530604 0.811106 -0.246102
vn 0.530604 0.811106 -0.246102
vn -0.851087 0.369494 -0.372994
vn 0.851087 0.369494 -0.372994
vn -0.244605 0.867517 -0.433108
vn 0.244605 0.867517 -0.433108
vn 0.592397 0.746497 -0.302999
vn -0.592397 0.746497 -0.302999
vn 0.368493 0.875784 -0.311794
vn -0.368493 0.875784 -0.311794
vn 0.282110 0.915131 -0.288010
vn -0.282110 0.915131 -0.288010
vn 0.856115 0.134002 -0.499109
vn -0.856115 0.134002 -0.499109
vn 0.534193 -0.723291 -0.437594
vn -0.534193 -0.723291 -0.437594
vn 0.384886 -0.813070 -0.436784
vn -0.384886 -0.813070 -0.436784
vn 0.233498 -0.580595 -0.779993
vn -0.233498 -0.580595 -0.779993
vn 0.244899 -0.058300 -0.967794
vn -0.244899 -0.058300 -0.967794
vn 0.116293 -0.453474 -0.883650
vn -0.116293 -0.453474 -0.883650
vn 0.115200 -0.983597 -0.138800
vn -0.115200 -0.983597 -0.138800
vn 0.118401 -0.966905 -0.226001
vn -0.118401 -0.966905 -0.226001
vn 0.959726 -0.008500 -0.280808
vn -0.959726 -0.008500 -0.280808
vn 0.931863 0.162894 -0.324187
vn -0.931863 0.162894 -0.324187
vn 0.162596 0.020699 -0.986476
vn -0.162596 0.020699 -0.986476
vn -0.018801 -0.217707 -0.975833
vn 0.018801 -0.217707 -0.975833
vn 0.753784 -0.292594 -0.588387
vn -0.753784 -0.292594 -0.588387
vn 0.919620 0.137903 -0.367808
vn -0.919620 0.137903 -0.367808
vn 0.929740 0.312713 -0.194408
vn -0.929740 0.312713 -0.194408
vn 0.912018 0.337607 -0.232905
vn -0.912018 0.337607 -0.232905
vn 0.940689 0.333796 -0.060699
vn -0.940689 0.333796 -0.060699
vn 0.176094 -0.880470 -0.440185
vn -0.176094 -0.880470 -0.440185
vn 0.370788 -0.473284 -0.799074
vn -0.370788 -0.473284 -0.799074
vn 0.310710 -0.828426 -0.466015
vn -0.310710 -0.828426 -0.466015
vn 0.279311 -0.951536 -0.128705
vn -0.279311 -0.951536 -0.128705
vn 0.313901 -0.932102 -0.180700
vn -0.313901 -0.932102 -0.180700
vn 0.976169 -0.208293 -0.060898
vn -0.976169 -0.208293 -0.060898
vn 0.826719 -0.506612 0.244706
vn -0.826719 -0.506612 0.244706
vn 0.344890 -0.115797 -0.931473
vn -0.344890 -0.115797 -0.931473
vn 0.120300 0.964400 0.235500
vn -0.120300 0.964400 0.235500
vn 0.127502 0.974413 -0.185102
vn -0.127502 0.974413 -0.185102
vn 0.349212 0.594721 -0.724126
vn -0.349212 0.594721 -0.724126
vn 0.415289 0.898076 -0.144896
vn -0.415289 0.898076 -0.144896
vn 0.184491 0.703565 0.686265
vn -0.184491 0.703565 0.686265
vn 0.605578 0.779372 0.160794
vn -0.605578 0.779372 0.160794
vn 0.703302 0.680602 -0.205300
vn -0.703302 0.680602 -0.205300
vn 0.667938 0.200711 -0.716641
vn -0.667938 0.200711 -0.716641
vn 0.494784 0.434186 -0.752776
vn -0.494784 0.434186 -0.752776
vn 0.642323 0.745927 -0.176106
vn -0.642323 0.745927 -0.176106
vn 0.718204 0.678804 0.153001
vn -0.718204 0.678804 0.153001
vn 0.738813 0.397207 0.544410
vn -0.738813 0.397207 0.544410
vn 0.342782 0.926051 -0.157892
vn -0.342782 0.926051 -0.157892
vn 0.227011 0.574028 0.786739
vn -0.227011 0.574028 0.786739
vn -0.172199 0.104599 -0.979493
vn 0.172199 0.104599 -0.979493
vn 0.042498 0.914967 0.401285
vn -0.042498 0.914967 0.401285
vn -0.161603 0.184703 0.969417
vn 0.161603 0.184703 0.969417
vn 0.979151 0.197310 0.048302
vn -0.979151 0.197310 0.048302
vn 0.946982 0.091798 0.307894
vn -0.946982 0.091798 0.307894
vn 0.979457 0.190511 -0.066104
vn -0.979457 0.190511 -0.066104
vn 0.993770 0.031199 -0.106997
vn -0.993770 0.031199 -0.106997
vn 0.711598 -0.700798 0.050100
vn -0.711598 -0.700798 0.050100
vn 0.372193 -0.924283 0.084698
vn -0.372193 -0.924283 0.084698
vn 0.446520 -0.864439 0.231010
vn -0.446520 -0.864439 0.231010
vn 0.606580 -0.757775 0.240492
vn -0.606580 -0.757775 0.240492
vn 0.732498 -0.636798 0.240699
vn -0.732498 -0.636798 0.240699
vn 0.263691 -0.449885 0.853271
vn -0.263691 -0.449885 0.853271
vn 0.556810 -0.318106 -0.767314
vn -0.556810 -0.318106 -0.767314
vn 0.500412 -0.280707 -0.819019
vn -0.500412 -0.280707 -0.819019
vn 0.318990 -0.849374 -0.420487
vn -0.318990 -0.849374 -0.420487
vn 0.719761 -0.635566 -0.279285
vn -0.719761 -0.635566 -0.279285
vn 0.497208 -0.440807 -0.747311
vn -0.497208 -0.440807 -0.747311
vn 0.350587 0.380686 0.855668
vn -0.350587 0.380686 0.855668
vn 0.456594 0.171498 0.872989
vn -0.456594 0.171498 0.872989
vn 0.258297 0.105499 0.960288
vn -0.258297 0.105499 0.960288
vn 0.245494 -0.080198 0.966075
vn -0.245494 -0.080198 0.966075
vn 0.464280 -0.059897 0.883661
vn -0.464280 -0.059897 0.883661
vn 0.622479 -0.304490 0.720976
vn -0.622479 -0.304490 0.720976
vn 0.449994 0.658991 0.602692
vn -0.449994 0.658991 0.602692
vn -0.266692 0.830876 0.488386
vn 0.266692 0.830876 0.488386
vn -0.828418 0.229105 0.511111
vn 0.828418 0.229105 0.511111
vn -0.525111 -0.356607 0.772716
vn 0.525111 -0.356607 0.772716
vn 0.454608 -0.566510 0.687312
vn -0.454608 -0.566510 0.687312
vn 0.699629 -0.449719 0.555223
vn -0.699629 -0.449719 0.555223
vn 0.721985 -0.682686 -0.112598
vn -0.721985 -0.682686 -0.112598
vn -0.191903 0.286005 0.938816
vn 0.191903 0.286005 0.938816
vn 0.904803 -0.373401 -0.204701
vn -0.904803 -0.373401 -0.204701
vn 0.103397 0.155096 0.982474
vn -0.103397 0.155096 0.982474
vn 0.084103 0.931831 0.353012
vn -0.084103 0.931831 0.353012
vn 0.644602 -0.088300 0.759402
vn -0.644602 -0.088300 0.759402
vn 0.430929 0.474031 0.767851
vn -0.430929 0.474031 0.767851
vn 0.803233 -0.484720 0.346214
vn -0.803233 -0.484720 0.346214
vn 0.581088 -0.412791 0.701385
vn -0.581088 -0.412791 0.701385
vn 0.590998 -0.430498 0.682197
vn -0.590998 -0.430498 0.682197
vn 0.981816 -0.180403 -0.059101
vn -0.981816 -0.180403 -0.059101
vn 0.910487 -0.396494 -0.117498
vn -0.910487 -0.396494 -0.117498
vn 0.997204 -0.018100 -0.072500
vn -0.997204 -0.018100 -0.072500
vn 0.731313 -0.654312 0.192503
vn -0.731313 -0.654312 0.192503
vn 0.786719 -0.607914 0.107303
vn -0.786719 -0.607914 0.107303
vn 0.702250 -0.702250 0.117008
vn -0.702250 -0.702250 0.117008
vn 0.183999 0.981597 -0.051100
vn -0.183999 0.981597 -0.051100
vn 0.935176 0.330092 0.128397
vn -0.935176 0.330092 0.128397
vn 0.663304 -0.746304 0.055300
vn -0.663304 -0.746304 0.055300
vn -0.008500 0.997018 0.076701
vn 0.008500 0.997018 0.076701
vn 0.623678 -0.706075 0.335388
vn -0.623678 -0.706075 0.335388
vn 0.273312 -0.892538 0.358715
vn -0.273312 -0.892538 0.358715
vn -0.832792 -0.507995 -0.219998
vn 0.832792 -0.507995 -0.219998
vn -0.833902 0.237701 -0.498102
vn 0.833902 0.237701 -0.498102
vn -0.565497 0.784696 -0.253899
vn 0.565497 0.784696 -0.253899
vn -0.055998 0.996167 0.067198
vn 0.055998 0.996167 0.067198
vn 0.144494 0.022199 0.989257
vn -0.144494 0.022199 0.989257
vn 0.327484 0.064497 0.942653
vn -0.327484 0.064497 0.942653
vn 0.312691 0.023199 0.949572
vn -0.312691 0.023199 0.949572
vn 0.170998 0.027400 0.984890
vn -0.170998 0.027400 0.984890
vn 0.348695 0.284896 0.892887
vn -0.348695 0.284896 0.892887
vn 0.400604 -0.034300 0.915609
vn -0.400604 -0.034300 0.915609
vn 0.257194 -0.060299 0.964477
vn -0.257194 -0.060299 0.964477
vn 0.063701 -0.010600 0.997913
vn -0.063701 -0.010600 0.997913
vn -0.363705 0.703909 0.610108
vn 0.363705 0.703909 0.610108
vn 0.629883 0.035499 0.775879
vn -0.629883 0.035499 0.775879
vn 0.447216 -0.200207 0.871731
vn -0.447216 -0.200207 0.871731
vn 0.507205 -0.214102 0.834808
vn -0.507205 -0.214102 0.834808
vn 0.525794 0.261897 0.809290
vn -0.525794 0.261897 0.809290
vn 0.298000 0.580200 0.758000
vn -0.298000 0.580200 0.758000
vn 0.093001 -0.992406 -0.080501
vn -0.093001 -0.992406 -0.080501
vn 0.500575 -0.865656 0.008000
vn -0.500575 -0.865656 0.008000
vn 0.928510 -0.249703 0.274803
vn -0.928510 -0.249703 0.274803
vn 0.839279 0.542386 -0.037799
vn -0.839279 0.542386 -0.037799
vn -0.235512 0.936749 -0.258913
vn 0.235512 0.936749 -0.258913
vn -0.449894 0.883789 -0.128498
vn 0.449894 0.883789 -0.128498
vn -0.538369 -0.009799 -0.842652
vn 0.538369 -0.009799 -0.842652
vn -0.190999 -0.024100 -0.981294
vn 0.190999 -0.024100 -0.981294
vn 0.404603 0.026600 -0.914106
vn -0.404603 0.026600 -0.914106
vn -0.781896 0.623097 0.019700
vn 0.781896 0.623097 0.019700
vn 0.542769 -0.206288 -0.814154
vn -0.542769 -0.206288 -0.814154
vn -0.247394 -0.923077 -0.294493
vn 0.247394 -0.923077 -0.294493
vt 0.843250 0.588863
vt 0.833697 0.611927
vt 0.794218 0.611927
vt 0.815334 0.560948
vt 0.866314 0.937441
vt 0.866314 0.897962
vt 0.889378 0.888409
vt 0.917293 0.916324
vt 0.746541 0.611927
vt 0.781622 0.527235
vt 0.866314 0.985118
vt 0.951006 0.950037
vt 0.815334 0.662907
vt 0.781622 0.696619
vt 0.781622 0.950037
vt 0.815334 0.916325
vt 0.843250 0.634991
vt 0.843250 0.888409
vt 0.866314 0.644544
vt 0.866314 0.684023
vt 0.794218 0.865345
vt 0.833697 0.865345
vt 0.866314 0.731700
vt 0.746541 0.865345
vt 0.917293 0.662907
vt 0.951006 0.696619
vt 0.781622 0.780653
vt 0.815334 0.814366
vt 0.889378 0.634991
vt 0.843250 0.842281
vt 0.898931 0.611927
vt 0.938410 0.611927
vt 0.866314 0.793249
vt 0.866314 0.832728
vt 0.986087 0.611927
vt 0.866314 0.745572
vt 0.917294 0.560947
vt 0.951006 0.527235
vt 0.951006 0.780653
vt 0.917294 0.814365
vt 0.889378 0.588863
vt 0.889378 0.842281
vt 0.866314 0.579310
vt 0.866314 0.539831
vt 0.938410 0.865345
vt 0.898931 0.865345
vt 0.866314 0.492154
vt 0.986087 0.865345
vt 0.866314 0.585461
vt 0.847600 0.593213
vt 0.892780 0.865345
vt 0.885028 0.884059
vt 0.885028 0.593213
vt 0.885028 0.846631
vt 0.892780 0.611927
vt 0.866314 0.838879
vt 0.885028 0.630641
vt 0.847600 0.846631
vt 0.866314 0.638393
vt 0.839848 0.865345
vt 0.847600 0.630641
vt 0.847600 0.884059
vt 0.839848 0.611927
vt 0.866314 0.891811
vt 0.866314 0.611927
vt 0.866314 0.865345
vt 0.520711 0.060503
vt 0.517028 0.068490
vt 0.500000 0.064527
vt 0.500000 0.054411
vt 0.482972 0.068490
vt 0.479289 0.060503
vt 0.530457 0.065062
vt 0.522612 0.070678
vt 0.477388 0.070678
vt 0.469543 0.065062
vt 0.532878 0.067822
vt 0.526301 0.079422
vt 0.473699 0.079422
vt 0.467122 0.067822
vt 0.544695 0.083023
vt 0.529228 0.091098
vt 0.470772 0.091098
vt 0.455305 0.083023
vt 0.565647 0.115495
vt 0.537536 0.127779
vt 0.462464 0.127779
vt 0.434353 0.115495
vt 0.586916 0.172042
vt 0.626605 0.208159
vt 0.600470 0.238288
vt 0.535885 0.215568
vt 0.399530 0.238288
vt 0.373395 0.208159
vt 0.413084 0.172042
vt 0.464115 0.215568
vt 0.650908 0.240294
vt 0.636962 0.261221
vt 0.363038 0.261221
vt 0.349092 0.240294
vt 0.689501 0.268805
vt 0.655896 0.284413
vt 0.344104 0.284413
vt 0.310499 0.268805
vt 0.684517 0.317795
vt 0.659507 0.313152
vt 0.340493 0.313152
vt 0.315483 0.317795
vt 0.671357 0.334694
vt 0.649107 0.322437
vt 0.350893 0.322437
vt 0.328643 0.334694
vt 0.636775 0.370732
vt 0.613636 0.353108
vt 0.386364 0.353108
vt 0.363225 0.370732
vt 0.602261 0.395588
vt 0.594178 0.371277
vt 0.405822 0.371277
vt 0.397739 0.395588
vt 0.581044 0.398468
vt 0.577351 0.373341
vt 0.422649 0.373341
vt 0.418956 0.398468
vt 0.532016 0.387365
vt 0.539817 0.354339
vt 0.460183 0.354339
vt 0.467984 0.387365
vt 0.500000 0.382860
vt 0.500000 0.340417
vt 0.559135 0.334326
vt 0.579057 0.335646
vt 0.420943 0.335646
vt 0.440865 0.334326
vt 0.592090 0.332885
vt 0.407910 0.332885
vt 0.606163 0.325516
vt 0.393837 0.325516
vt 0.628251 0.311636
vt 0.371749 0.311636
vt 0.635551 0.300507
vt 0.364449 0.300507
vt 0.631484 0.283889
vt 0.368516 0.283889
vt 0.611331 0.264411
vt 0.388669 0.264411
vt 0.592372 0.254897
vt 0.407628 0.254897
vt 0.559669 0.267717
vt 0.440331 0.267717
vt 0.550878 0.277832
vt 0.500000 0.252445
vt 0.449122 0.277832
vt 0.544001 0.314523
vt 0.455999 0.314523
vt 0.500000 0.295691
vt 0.543637 0.293371
vt 0.456363 0.293371
vt 0.506819 0.075382
vt 0.500000 0.073497
vt 0.493181 0.075382
vt 0.511782 0.080633
vt 0.488218 0.080633
vt 0.512172 0.093457
vt 0.487828 0.093457
vt 0.514257 0.133422
vt 0.513874 0.097191
vt 0.486126 0.097191
vt 0.485743 0.133422
vt 0.520226 0.164615
vt 0.500000 0.157864
vt 0.500000 0.134352
vt 0.479774 0.164615
vt 0.500000 0.100063
vt 0.500000 0.091346
vt 0.530258 0.180239
vt 0.521901 0.181560
vt 0.517666 0.172353
vt 0.482334 0.172353
vt 0.478099 0.181560
vt 0.469742 0.180239
vt 0.523673 0.198817
vt 0.518957 0.194728
vt 0.481043 0.194728
vt 0.476327 0.198817
vt 0.500000 0.203867
vt 0.508211 0.197295
vt 0.491789 0.197295
vt 0.500000 0.197278
vt 0.500000 0.192167
vt 0.500000 0.165170
vt 0.513538 0.176949
vt 0.500000 0.171718
vt 0.486462 0.176949
vt 0.500000 0.186182
vt 0.508818 0.192407
vt 0.491182 0.192407
vt 0.515232 0.190709
vt 0.484768 0.190709
vt 0.516908 0.181873
vt 0.483092 0.181873
vt 0.544209 0.172814
vt 0.455791 0.172814
vt 0.541327 0.154899
vt 0.458673 0.154899
vt 0.578661 0.139176
vt 0.421339 0.139176
vt 0.583245 0.154155
vt 0.416755 0.154155
vt 0.500000 0.089977
vt 0.509911 0.090724
vt 0.490089 0.090724
vt 0.509713 0.082236
vt 0.490287 0.082236
vt 0.505196 0.077083
vt 0.494804 0.077083
vt 0.500000 0.075473
vt 0.503445 0.080840
vt 0.500000 0.080320
vt 0.496555 0.080840
vt 0.506660 0.083289
vt 0.493340 0.083289
vt 0.506822 0.086791
vt 0.493178 0.086791
vt 0.500000 0.085637
vt 0.562361 0.284338
vt 0.559190 0.294882
vt 0.437639 0.284338
vt 0.440810 0.294882
vt 0.563180 0.307151
vt 0.436820 0.307151
vt 0.570458 0.318697
vt 0.429542 0.318697
vt 0.569243 0.278245
vt 0.430757 0.278245
vt 0.589914 0.271772
vt 0.410086 0.271772
vt 0.602190 0.277180
vt 0.397810 0.277180
vt 0.617110 0.287175
vt 0.382890 0.287175
vt 0.618074 0.299197
vt 0.381926 0.299197
vt 0.615871 0.307438
vt 0.384129 0.307438
vt 0.598424 0.313725
vt 0.401576 0.313725
vt 0.590828 0.319797
vt 0.409172 0.319797
vt 0.582130 0.320991
vt 0.417870 0.320991
vt 0.578615 0.309394
vt 0.583998 0.312892
vt 0.421385 0.309394
vt 0.416002 0.312892
vt 0.589656 0.312336
vt 0.410344 0.312336
vt 0.596347 0.309249
vt 0.403653 0.309249
vt 0.606014 0.302517
vt 0.393986 0.302517
vt 0.607735 0.297520
vt 0.392265 0.297520
vt 0.606985 0.291216
vt 0.393015 0.291216
vt 0.598275 0.283083
vt 0.401725 0.283083
vt 0.589866 0.280167
vt 0.410134 0.280167
vt 0.576352 0.284624
vt 0.423648 0.284624
vt 0.572831 0.289915
vt 0.427169 0.289915
vt 0.573307 0.303342
vt 0.426693 0.303342
vt 0.572447 0.295716
vt 0.427553 0.295716
vt 0.529647 0.428636
vt 0.500000 0.428636
vt 0.470353 0.428636
vt 0.584616 0.428636
vt 0.415384 0.428636
vt 0.622301 0.417889
vt 0.377699 0.417889
vt 0.666214 0.388954
vt 0.333786 0.388954
vt 0.701481 0.344467
vt 0.298519 0.344467
vt 0.712163 0.315527
vt 0.287837 0.315527
vt 0.704305 0.260225
vt 0.295695 0.260225
vt 0.672947 0.224880
vt 0.327053 0.224880
vt 0.640497 0.198841
vt 0.359503 0.198841
vt 0.603553 0.023452
vt 0.625128 0.029461
vt 0.635753 0.082198
vt 0.598617 0.056841
vt 0.364247 0.082198
vt 0.374872 0.029461
vt 0.396447 0.023452
vt 0.401383 0.056841
vt 0.546781 0.009442
vt 0.556354 0.040906
vt 0.453219 0.009442
vt 0.443646 0.040906
vt 0.500000 0.033223
vt 0.527159 0.049514
vt 0.472841 0.049514
vt 0.537222 0.060794
vt 0.462778 0.060794
vt 0.558499 0.065137
vt 0.441501 0.065137
vt 0.588127 0.085177
vt 0.411873 0.085177
vt 0.607239 0.113940
vt 0.392761 0.113940
vt 0.612663 0.133675
vt 0.605467 0.151503
vt 0.394533 0.151503
vt 0.387337 0.133675
vt 0.600708 0.162985
vt 0.399292 0.162985
vt 0.922374 0.064228
vt 0.859647 0.117994
vt 0.823287 0.101559
vt 0.861342 0.027230
vt 0.176713 0.101559
vt 0.140353 0.117994
vt 0.077626 0.064228
vt 0.138658 0.027230
vt 0.765863 0.087001
vt 0.774604 0.010837
vt 0.234137 0.087001
vt 0.225396 0.010837
vt 0.661952 0.087561
vt 0.647010 0.028716
vt 0.338048 0.087561
vt 0.352990 0.028716
vt 0.743592 0.198572
vt 0.766410 0.233065
vt 0.256408 0.198572
vt 0.233590 0.233065
vt 0.987633 0.154243
vt 0.889478 0.177602
vt 0.110522 0.177602
vt 0.012367 0.154243
vt 0.899807 0.420886
vt 0.844317 0.347370
vt 0.881169 0.309153
vt 0.958963 0.357385
vt 0.118831 0.309153
vt 0.155683 0.347370
vt 0.100193 0.420886
vt 0.041037 0.357385
vt 0.903302 0.261367
vt 0.999860 0.253531
vt 0.096698 0.261367
vt 0.000140 0.253531
vt 0.724763 0.340212
vt 0.744725 0.304629
vt 0.766113 0.319494
vt 0.255275 0.304629
vt 0.275237 0.340212
vt 0.233887 0.319494
vt 0.793427 0.280495
vt 0.826663 0.297810
vt 0.206573 0.280495
vt 0.173337 0.297810
vt 0.823620 0.254612
vt 0.855331 0.267956
vt 0.176380 0.254612
vt 0.144669 0.267956
vt 0.835860 0.225225
vt 0.868309 0.233525
vt 0.164140 0.225225
vt 0.131691 0.233525
vt 0.813499 0.190705
vt 0.851288 0.181145
vt 0.148712 0.181145
vt 0.186501 0.190705
vt 0.772263 0.374010
vt 0.227737 0.374010
vt 0.744519 0.390057
vt 0.255481 0.390057
vt 0.824765 0.470987
vt 0.175235 0.470987
vt 0.792141 0.464714
vt 0.742181 0.461543
vt 0.726855 0.432574
vt 0.273145 0.432574
vt 0.257819 0.461543
vt 0.207859 0.464714
vt 0.795638 0.489991
vt 0.204362 0.489991
vt 0.786137 0.227788
vt 0.213863 0.227788
vt 0.802950 0.203415
vt 0.197050 0.203415
vt 0.769334 0.128771
vt 0.691484 0.146686
vt 0.230666 0.128771
vt 0.308516 0.146686
vt 0.780113 0.169386
vt 0.219887 0.169386
vt 0.803789 0.171181
vt 0.830917 0.139518
vt 0.169083 0.139518
vt 0.196211 0.171181
vt 0.574628 0.959188
vt 0.464516 0.959188
vt 0.477326 0.891852
vt 0.545439 0.884582
vt 0.272900 0.891852
vt 0.285710 0.959188
vt 0.175598 0.959188
vt 0.204787 0.884582
vt 0.605134 0.846978
vt 0.715894 0.897069
vt 0.145092 0.846978
vt 0.034332 0.897069
vt 0.605360 0.784410
vt 0.683874 0.757011
vt 0.144866 0.784410
vt 0.066352 0.757011
vt 0.574835 0.744212
vt 0.617867 0.719156
vt 0.175391 0.744212
vt 0.132359 0.719156
vt 0.534996 0.712528
vt 0.568728 0.682132
vt 0.215230 0.712528
vt 0.181498 0.682132
vt 0.483006 0.686791
vt 0.508539 0.641024
vt 0.267220 0.686791
vt 0.241687 0.641024
vt 0.513415 0.736977
vt 0.478880 0.719593
vt 0.271346 0.719593
vt 0.236811 0.736977
vt 0.541117 0.760754
vt 0.209109 0.760754
vt 0.557599 0.789442
vt 0.192627 0.789442
vt 0.553841 0.821849
vt 0.196385 0.821849
vt 0.524671 0.842380
vt 0.225555 0.842380
vt 0.485193 0.845321
vt 0.265033 0.845321
vt 0.786150 0.181127
vt 0.770208 0.191225
vt 0.213850 0.181127
vt 0.229792 0.191225
vt 0.408153 0.587507
vt 0.409610 0.674022
vt 0.342073 0.587507
vt 0.340616 0.674022
vt 0.400301 0.910556
vt 0.414155 0.878318
vt 0.336071 0.878318
vt 0.349925 0.910556
vt 0.443630 0.713731
vt 0.306596 0.713731
vt 0.429725 0.728622
vt 0.392812 0.710774
vt 0.357414 0.710774
vt 0.320501 0.728622
vt 0.422979 0.754609
vt 0.432640 0.746527
vt 0.327247 0.754609
vt 0.317586 0.746527
vt 0.427719 0.796173
vt 0.391578 0.815187
vt 0.358648 0.815187
vt 0.322507 0.796173
vt 0.448277 0.830976
vt 0.301949 0.830976
vt 0.797710 0.195652
vt 0.802580 0.199758
vt 0.197420 0.199758
vt 0.202290 0.195652
vt 0.789609 0.184671
vt 0.210391 0.184671
vt 0.466042 0.804091
vt 0.490498 0.816075
vt 0.284184 0.804091
vt 0.259728 0.816075
vt 0.448042 0.783921
vt 0.302184 0.783921
vt 0.438745 0.764960
vt 0.311481 0.764960
vt 0.445216 0.756351
vt 0.305010 0.756351
vt 0.449819 0.743458
vt 0.300407 0.743458
vt 0.456307 0.732687
vt 0.293919 0.732687
vt 0.475471 0.740871
vt 0.274755 0.740871
vt 0.514211 0.817769
vt 0.236015 0.817769
vt 0.527961 0.808598
vt 0.222265 0.808598
vt 0.530079 0.790754
vt 0.220147 0.790754
vt 0.518620 0.772385
vt 0.231606 0.772385
vt 0.498668 0.755033
vt 0.251558 0.755033
vt 0.468029 0.756171
vt 0.459660 0.770459
vt 0.282197 0.756171
vt 0.290566 0.770459
vt 0.487167 0.769899
vt 0.477354 0.785393
vt 0.263059 0.769899
vt 0.272872 0.785393
vt 0.504617 0.782999
vt 0.496545 0.797122
vt 0.245609 0.782999
vt 0.253681 0.797122
vt 0.516137 0.792591
vt 0.513713 0.804019
vt 0.234089 0.792591
vt 0.236513 0.804019
vt 0.574269 0.607668
vt 0.613510 0.655816
vt 0.175957 0.607668
vt 0.136716 0.655816
vt 0.644031 0.693270
vt 0.106195 0.693270
vt 0.668163 0.712097
vt 0.082063 0.712097
vt 0.727131 0.698475
vt 0.676584 0.686010
vt 0.023095 0.698475
vt 0.073642 0.686010
vt 0.729804 0.624370
vt 0.667013 0.640198
vt 0.020422 0.624370
vt 0.083213 0.640198
vt 0.721292 0.572934
vt 0.648152 0.594596
vt 0.028934 0.572934
vt 0.102074 0.594596
vt 0.630034 0.557583
vt 0.717709 0.538143
vt 0.032517 0.538143
vt 0.120192 0.557583
vt 0.526877 0.539235
vt 0.223349 0.539235
f 1/1/1 2/2/1 3/3/1 4/4/1
f 5/5/2 6/6/2 7/7/2 8/8/2
f 4/4/3 3/3/3 9/9/3 10/10/3
f 11/11/4 5/5/4 8/8/4 12/12/4
f 3/3/5 13/13/5 14/14/5 9/9/5
f 15/15/6 16/16/6 5/5/6 11/11/6
f 2/2/7 17/17/7 13/13/7 3/3/7
f 16/16/8 18/18/8 6/6/8 5/5/8
f 17/17/9 19/19/9 20/20/9 13/13/9
f 21/21/10 22/22/10 18/18/10 16/16/10
f 13/13/11 20/20/11 23/23/11 14/14/11
f 24/24/12 21/21/12 16/16/12 15/15/12
f 20/20/13 25/25/13 26/26/13 23/23/13
f 27/27/14 28/28/14 21/21/14 24/24/14
f 19/19/15 29/29/15 25/25/15 20/20/15
f 28/28/16 30/30/16 22/22/16 21/21/16
f 29/29/17 31/31/17 32/32/17 25/25/17
f 33/33/18 34/34/18 30/30/18 28/28/18
f 25/25/19 32/32/19 35/35/19 26/26/19
f 36/36/20 33/33/20 28/28/20 27/27/20
f 32/32/21 37/37/21 38/38/21 35/35/21
f 39/39/22 40/40/22 33/33/22 36/36/22
f 31/31/23 41/41/23 37/37/23 32/32/23
f 40/40/24 42/42/24 34/34/24 33/33/24
f 41/41/25 43/43/25 44/44/25 37/37/25
f 45/45/26 46/46/26 42/42/26 40/40/26
f 37/37/27 44/44/27 47/47/27 38/38/27
f 48/48/28 45/45/28 40/40/28 39/39/28
f 44/44/29 4/4/29 10/10/29 47/47/29
f 12/12/30 8/8/30 45/45/30 48/48/30
f 43/43/31 1/1/31 4/4/31 44/44/31
f 8/8/32 7/7/32 46/46/32 45/45/32
f 1/1/33 43/43/33 49/49/33 50/50/33
f 51/51/34 46/46/34 7/7/34 52/52/34
f 43/43/35 41/41/35 53/53/35 49/49/35
f 54/54/36 42/42/36 46/46/36 51/51/36
f 41/41/37 31/31/37 55/55/37 53/53/37
f 56/56/38 34/34/38 42/42/38 54/54/38
f 31/31/39 29/29/39 57/57/39 55/55/39
f 58/58/40 30/30/40 34/34/40 56/56/40
f 29/29/41 19/19/41 59/59/41 57/57/41
f 60/60/42 22/22/42 30/30/42 58/58/42
f 19/19/43 17/17/43 61/61/43 59/59/43
f 62/62/44 18/18/44 22/22/44 60/60/44
f 17/17/45 2/2/45 63/63/45 61/61/45
f 64/64/46 6/6/46 18/18/46 62/62/46
f 2/2/47 1/1/47 50/50/47 63/63/47
f 52/52/48 7/7/48 6/6/48 64/64/48
f 65/65/49 63/63/49 50/50/49
f 52/52/50 64/64/50 66/66/50
f 61/61/51 63/63/51 65/65/51
f 66/66/52 64/64/52 62/62/52
f 65/65/53 59/59/53 61/61/53
f 62/62/54 60/60/54 66/66/54
f 65/65/55 57/57/55 59/59/55
f 60/60/56 58/58/56 66/66/56
f 65/65/57 55/55/57 57/57/57
f 58/58/58 56/56/58 66/66/58
f 65/65/59 53/53/59 55/55/59
f 56/56/60 54/54/60 66/66/60
f 65/65/61 49/49/61 53/53/61
f 54/54/62 51/51/62 66/66/62
f 65/65/63 50/50/63 49/49/63
f 51/51/64 52/52/64 66/66/64
f 67/67/65 68/68/65 69/69/65 70/70/65
f 69/69/66 71/71/66 72/72/66 70/70/66
f 73/73/67 74/74/67 68/68/67 67/67/67
f 71/71/68 75/75/68 76/76/68 72/72/68
f 77/77/69 78/78/69 74/74/69 73/73/69
f 75/75/70 79/79/70 80/80/70 76/76/70
f 81/81/71 82/82/71 78/78/71 77/77/71
f 79/79/72 83/83/72 84/84/72 80/80/72
f 85/85/73 86/86/73 82/82/73 81/81/73
f 83/83/74 87/87/74 88/88/74 84/84/74
f 89/89/75 90/90/75 91/91/75 92/92/75
f 93/93/76 94/94/76 95/95/76 96/96/76
f 90/90/77 97/97/77 98/98/77 91/91/77
f 99/99/78 100/100/78 94/94/78 93/93/78
f 97/97/79 101/101/79 102/102/79 98/98/79
f 103/103/80 104/104/80 100/100/80 99/99/80
f 101/101/81 105/105/81 106/106/81 102/102/81
f 107/107/82 108/108/82 104/104/82 103/103/82
f 105/105/83 109/109/83 110/110/83 106/106/83
f 111/111/84 112/112/84 108/108/84 107/107/84
f 109/109/85 113/113/85 114/114/85 110/110/85
f 115/115/86 116/116/86 112/112/86 111/111/86
f 113/113/87 117/117/87 118/118/87 114/114/87
f 119/119/88 120/120/88 116/116/88 115/115/88
f 117/117/89 121/121/89 122/122/89 118/118/89
f 123/123/90 124/124/90 120/120/90 119/119/90
f 121/121/91 125/125/91 126/126/91 122/122/91
f 127/127/92 128/128/92 124/124/92 123/123/92
f 125/125/93 129/129/93 130/130/93 126/126/93
f 130/130/94 129/129/94 128/128/94 127/127/94
f 131/131/95 132/132/95 122/122/95 126/126/95
f 123/123/96 133/133/96 134/134/96 127/127/96
f 132/132/97 135/135/97 118/118/97 122/122/97
f 119/119/98 136/136/98 133/133/98 123/123/98
f 137/137/99 114/114/99 118/118/99 135/135/99
f 119/119/100 115/115/100 138/138/100 136/136/100
f 139/139/101 110/110/101 114/114/101 137/137/101
f 115/115/102 111/111/102 140/140/102 138/138/102
f 141/141/103 106/106/103 110/110/103 139/139/103
f 111/111/104 107/107/104 142/142/104 140/140/104
f 143/143/105 102/102/105 106/106/105 141/141/105
f 107/107/106 103/103/106 144/144/106 142/142/106
f 145/145/107 98/98/107 102/102/107 143/143/107
f 103/103/108 99/99/108 146/146/108 144/144/108
f 147/147/109 91/91/109 98/98/109 145/145/109
f 99/99/110 93/93/110 148/148/110 146/146/110
f 149/149/111 92/92/111 91/91/111 147/147/111
f 93/93/112 96/96/112 150/150/112 148/148/112
f 149/149/113 151/151/113 152/152/113 92/92/113
f 152/152/114 153/153/114 150/150/114 96/96/114
f 131/131/115 126/126/115 130/130/115 154/154/115
f 130/130/116 127/127/116 134/134/116 155/155/116
f 154/154/117 130/130/117 156/156/117 157/157/117
f 156/156/118 130/130/118 155/155/118 158/158/118
f 152/152/119 151/151/119 157/157/119 156/156/119
f 158/158/120 153/153/120 152/152/120 156/156/120
f 159/159/121 160/160/121 69/69/121 68/68/121
f 69/69/122 160/160/122 161/161/122 71/71/122
f 162/162/123 159/159/123 68/68/123 74/74/123
f 71/71/124 161/161/124 163/163/124 75/75/124
f 164/164/125 162/162/125 74/74/125 78/78/125
f 75/75/126 163/163/126 165/165/126 79/79/126
f 86/86/127 166/166/127 167/167/127 82/82/127
f 168/168/128 169/169/128 87/87/128 83/83/128
f 164/164/129 78/78/129 82/82/129 167/167/129
f 83/83/130 79/79/130 165/165/130 168/168/130
f 170/170/131 171/171/131 172/172/131 166/166/131
f 172/172/132 171/171/132 173/173/132 169/169/132
f 167/167/133 166/166/133 172/172/133 174/174/133
f 172/172/134 169/169/134 168/168/134 174/174/134
f 175/175/135 164/164/135 167/167/135 174/174/135
f 168/168/135 165/165/135 175/175/135 174/174/135
f 176/176/136 177/177/136 178/178/136 170/170/136
f 179/179/137 180/180/137 181/181/137 173/173/137
f 182/182/138 183/183/138 177/177/138 176/176/138
f 180/180/139 184/184/139 185/185/139 181/181/139
f 186/186/140 187/187/140 183/183/140 182/182/140
f 184/184/141 188/188/141 186/186/141 185/185/141
f 189/189/142 190/190/142 187/187/142 186/186/142
f 188/188/143 190/190/143 189/189/143 186/186/143
f 171/171/144 170/170/144 178/178/144 191/191/144
f 179/179/145 173/173/145 171/171/145 191/191/145
f 191/191/146 178/178/146 192/192/146 193/193/146
f 194/194/147 179/179/147 191/191/147 193/193/147
f 190/190/148 195/195/148 196/196/148 187/187/148
f 197/197/149 195/195/149 190/190/149 188/188/149
f 187/187/150 196/196/150 198/198/150 183/183/150
f 199/199/151 197/197/151 188/188/151 184/184/151
f 183/183/152 198/198/152 200/200/152 177/177/152
f 201/201/153 199/199/153 184/184/153 180/180/153
f 177/177/154 200/200/154 192/192/154 178/178/154
f 194/194/155 201/201/155 180/180/155 179/179/155
f 195/195/156 200/200/156 198/198/156 196/196/156
f 199/199/157 201/201/157 195/195/157 197/197/157
f 195/195/158 193/193/158 192/192/158 200/200/158
f 194/194/159 193/193/159 195/195/159 201/201/159
f 186/186/160 182/182/160 92/92/160 152/152/160
f 96/96/161 185/185/161 186/186/161 152/152/161
f 182/182/162 176/176/162 202/202/162 92/92/162
f 203/203/163 181/181/163 185/185/163 96/96/163
f 176/176/164 170/170/164 204/204/164 202/202/164
f 205/205/165 173/173/165 181/181/165 203/203/165
f 170/170/166 166/166/166 86/86/166 204/204/166
f 87/87/167 169/169/167 173/173/167 205/205/167
f 85/85/168 206/206/168 204/204/168 86/86/168
f 205/205/169 207/207/169 88/88/169 87/87/169
f 206/206/170 208/208/170 202/202/170 204/204/170
f 203/203/171 209/209/171 207/207/171 205/205/171
f 89/89/172 92/92/172 202/202/172 208/208/172
f 203/203/173 96/96/173 95/95/173 209/209/173
f 164/164/174 175/175/174 210/210/174 211/211/174
f 210/210/175 175/175/175 165/165/175 212/212/175
f 162/162/176 164/164/176 211/211/176 213/213/176
f 212/212/177 165/165/177 163/163/177 214/214/177
f 159/159/178 162/162/178 213/213/178 215/215/178
f 214/214/179 163/163/179 161/161/179 216/216/179
f 160/160/180 159/159/180 215/215/180 217/217/180
f 216/216/181 161/161/181 160/160/181 217/217/181
f 217/217/182 215/215/182 218/218/182 219/219/182
f 220/220/183 216/216/183 217/217/183 219/219/183
f 215/215/184 213/213/184 221/221/184 218/218/184
f 222/222/185 214/214/185 216/216/185 220/220/185
f 213/213/186 211/211/186 223/223/186 221/221/186
f 224/224/187 212/212/187 214/214/187 222/222/187
f 211/211/188 210/210/188 225/225/188 223/223/188
f 225/225/189 210/210/189 212/212/189 224/224/189
f 225/225/190 219/219/190 218/218/190 223/223/190
f 220/220/191 219/219/191 225/225/191 224/224/191
f 223/223/192 218/218/192 221/221/192
f 222/222/193 220/220/193 224/224/193
f 157/157/194 151/151/194 226/226/194 227/227/194
f 228/228/195 153/153/195 158/158/195 229/229/195
f 154/154/196 157/157/196 227/227/196 230/230/196
f 229/229/197 158/158/197 155/155/197 231/231/197
f 131/131/198 154/154/198 230/230/198 232/232/198
f 231/231/199 155/155/199 134/134/199 233/233/199
f 151/151/200 149/149/200 234/234/200 226/226/200
f 235/235/201 150/150/201 153/153/201 228/228/201
f 149/149/202 147/147/202 236/236/202 234/234/202
f 237/237/203 148/148/203 150/150/203 235/235/203
f 147/147/204 145/145/204 238/238/204 236/236/204
f 239/239/205 146/146/205 148/148/205 237/237/205
f 145/145/206 143/143/206 240/240/206 238/238/206
f 241/241/207 144/144/207 146/146/207 239/239/207
f 143/143/208 141/141/208 242/242/208 240/240/208
f 243/243/209 142/142/209 144/144/209 241/241/209
f 141/141/210 139/139/210 244/244/210 242/242/210
f 245/245/211 140/140/211 142/142/211 243/243/211
f 139/139/212 137/137/212 246/246/212 244/244/212
f 247/247/213 138/138/213 140/140/213 245/245/213
f 137/137/214 135/135/214 248/248/214 246/246/214
f 249/249/215 136/136/215 138/138/215 247/247/215
f 135/135/216 132/132/216 250/250/216 248/248/216
f 251/251/217 133/133/217 136/136/217 249/249/217
f 132/132/218 131/131/218 232/232/218 250/250/218
f 233/233/219 134/134/219 133/133/219 251/251/219
f 250/250/220 232/232/220 252/252/220 253/253/220
f 254/254/221 233/233/221 251/251/221 255/255/221
f 248/248/222 250/250/222 253/253/222 256/256/222
f 255/255/223 251/251/223 249/249/223 257/257/223
f 246/246/224 248/248/224 256/256/224 258/258/224
f 257/257/225 249/249/225 247/247/225 259/259/225
f 244/244/226 246/246/226 258/258/226 260/260/226
f 259/259/227 247/247/227 245/245/227 261/261/227
f 242/242/228 244/244/228 260/260/228 262/262/228
f 261/261/229 245/245/229 243/243/229 263/263/229
f 240/240/230 242/242/230 262/262/230 264/264/230
f 263/263/231 243/243/231 241/241/231 265/265/231
f 238/238/232 240/240/232 264/264/232 266/266/232
f 265/265/233 241/241/233 239/239/233 267/267/233
f 236/236/234 238/238/234 266/266/234 268/268/234
f 267/267/235 239/239/235 237/237/235 269/269/235
f 234/234/236 236/236/236 268/268/236 270/270/236
f 269/269/237 237/237/237 235/235/237 271/271/237
f 226/226/238 234/234/238 270/270/238 272/272/238
f 271/271/239 235/235/239 228/228/239 273/273/239
f 232/232/240 230/230/240 274/274/240 252/252/240
f 275/275/241 231/231/241 233/233/241 254/254/241
f 230/230/242 227/227/242 276/276/242 274/274/242
f 277/277/243 229/229/243 231/231/243 275/275/243
f 227/227/244 226/226/244 272/272/244 276/276/244
f 273/273/245 228/228/245 229/229/245 277/277/245
f 129/129/246 125/125/246 278/278/246 279/279/246
f 280/280/247 128/128/247 129/129/247 279/279/247
f 125/125/248 121/121/248 281/281/248 278/278/248
f 282/282/249 124/124/249 128/128/249 280/280/249
f 121/121/250 117/117/250 283/283/250 281/281/250
f 284/284/251 120/120/251 124/124/251 282/282/251
f 117/117/252 113/113/252 285/285/252 283/283/252
f 286/286/253 116/116/253 120/120/253 284/284/253
f 113/113/254 109/109/254 287/287/254 285/285/254
f 288/288/255 112/112/255 116/116/255 286/286/255
f 109/109/256 105/105/256 289/289/256 287/287/256
f 290/290/257 108/108/257 112/112/257 288/288/257
f 105/105/258 101/101/258 291/291/258 289/289/258
f 292/292/259 104/104/259 108/108/259 290/290/259
f 101/101/260 97/97/260 293/293/260 291/291/260
f 294/294/261 100/100/261 104/104/261 292/292/261
f 97/97/262 90/90/262 295/295/262 293/293/262
f 296/296/263 94/94/263 100/100/263 294/294/263
f 297/297/264 298/298/264 299/299/264 300/300/264
f 301/301/265 298/302/265 297/303/265 302/304/265
f 303/305/266 297/297/266 300/300/266 304/306/266
f 302/304/267 297/303/267 303/307/267 305/308/267
f 306/309/268 303/305/268 304/306/268 307/310/268
f 305/308/269 303/307/269 306/309/269 308/311/269
f 67/67/270 70/70/270 306/309/270 307/310/270
f 306/309/271 70/70/271 72/72/271 308/311/271
f 73/73/272 67/67/272 307/310/272 309/312/272
f 308/311/273 72/72/273 76/76/273 310/313/273
f 77/77/274 73/73/274 309/312/274 311/314/274
f 310/313/275 76/76/275 80/80/275 312/315/275
f 81/81/276 77/77/276 311/314/276 313/316/276
f 312/315/277 80/80/277 84/84/277 314/317/277
f 311/314/278 304/306/278 300/300/278 313/316/278
f 302/304/279 305/308/279 312/315/279 314/317/279
f 311/314/280 309/312/280 307/310/280 304/306/280
f 308/311/281 310/313/281 312/315/281 305/308/281
f 315/318/282 313/316/282 300/300/282 299/299/282
f 302/304/283 314/317/283 316/319/283 301/301/283
f 85/85/284 81/81/284 313/316/284 315/318/284
f 314/317/285 84/84/285 88/88/285 316/319/285
f 206/206/286 317/320/286 318/321/286 208/208/286
f 319/322/287 320/323/287 207/207/287 209/209/287
f 85/85/288 315/318/288 317/320/288 206/206/288
f 320/323/289 316/319/289 88/88/289 207/207/289
f 89/89/290 208/208/290 318/321/290 321/324/290
f 319/322/291 209/209/291 95/95/291 322/325/291
f 89/89/292 321/324/292 295/295/292 90/90/292
f 296/296/293 322/325/293 95/95/293 94/94/293
f 323/326/294 324/327/294 325/328/294 326/329/294
f 327/330/295 328/331/295 323/332/295 326/333/295
f 326/329/296 325/328/296 329/334/296 330/335/296
f 331/336/297 327/330/297 326/333/297 330/337/297
f 330/335/298 329/334/298 332/338/298 333/339/298
f 334/340/299 331/336/299 330/337/299 333/341/299
f 333/339/300 332/338/300 299/299/300 298/298/300
f 301/301/301 334/340/301 333/341/301 298/302/301
f 315/318/302 299/299/302 332/338/302 317/320/302
f 334/340/303 301/301/303 316/319/303 320/323/303
f 291/291/304 293/293/304 335/342/304 336/343/304
f 337/344/305 294/294/305 292/292/305 338/345/305
f 339/346/306 340/347/306 324/327/306 323/326/306
f 328/331/307 341/348/307 339/349/307 323/332/307
f 342/350/308 343/351/308 344/352/308 345/353/308
f 346/354/309 347/355/309 342/356/309 345/357/309
f 345/353/310 344/352/310 348/358/310 349/359/310
f 350/360/311 346/354/311 345/357/311 349/361/311
f 349/359/312 348/358/312 340/347/312 339/346/312
f 341/348/313 350/360/313 349/361/313 339/349/313
f 287/362/314 289/289/314 351/363/314 352/364/314
f 353/365/315 290/290/315 288/366/315 354/367/315
f 352/364/316 351/363/316 355/368/316 356/369/316
f 357/370/317 353/365/317 354/367/317 358/371/317
f 356/369/318 355/368/318 359/372/318 360/373/318
f 361/374/319 357/370/319 358/371/319 362/375/319
f 360/373/320 359/372/320 363/376/320 364/377/320
f 365/378/321 361/374/321 362/375/321 366/379/321
f 367/380/322 368/381/322 364/377/322 363/376/322
f 366/379/323 369/382/323 370/383/323 365/378/323
f 340/347/324 348/358/324 364/377/324 368/381/324
f 366/379/325 350/360/325 341/348/325 369/382/325
f 348/358/326 344/352/326 360/373/326 364/377/326
f 362/375/327 346/354/327 350/360/327 366/379/327
f 344/352/328 343/351/328 356/369/328 360/373/328
f 358/371/329 347/355/329 346/354/329 362/375/329
f 343/351/330 371/384/330 352/364/330 356/369/330
f 354/367/331 372/385/331 347/355/331 358/371/331
f 285/386/332 287/362/332 352/364/332 371/384/332
f 354/367/333 288/366/333 286/387/333 372/385/333
f 373/388/334 371/384/334 343/351/334 342/350/334
f 347/355/335 372/385/335 373/389/335 342/356/335
f 278/390/336 281/391/336 283/392/336 285/386/336
f 284/393/337 282/394/337 280/395/337 286/387/337
f 278/390/338 285/386/338 371/384/338 373/388/338
f 372/385/339 286/387/339 280/395/339 373/389/339
f 279/396/340 278/390/340 373/388/340
f 373/389/341 280/395/341 279/397/341
f 289/289/342 291/291/342 336/343/342 351/363/342
f 338/345/343 292/292/343 290/290/343 353/365/343
f 336/343/344 374/398/344 355/368/344 351/363/344
f 357/370/345 375/399/345 338/345/345 353/365/345
f 374/398/346 376/400/346 359/372/346 355/368/346
f 361/374/347 377/401/347 375/399/347 357/370/347
f 367/380/348 363/376/348 359/372/348 376/400/348
f 361/374/349 365/378/349 370/383/349 377/401/349
f 332/338/350 329/334/350 378/402/350 379/403/350
f 380/404/351 331/336/351 334/340/351 381/405/351
f 335/342/352 379/403/352 378/402/352 382/406/352
f 380/404/353 381/405/353 337/344/353 383/407/353
f 293/293/354 295/295/354 379/403/354 335/342/354
f 381/405/355 296/296/355 294/294/355 337/344/355
f 295/295/356 318/321/356 317/320/356 379/403/356
f 320/323/357 319/322/357 296/296/357 381/405/357
f 317/320/358 332/338/358 379/403/358
f 381/405/359 334/340/359 320/323/359
f 295/295/360 321/324/360 318/321/360
f 319/322/361 322/325/361 296/296/361
f 367/380/362 384/408/362 385/409/362 368/381/362
f 386/410/363 387/411/363 370/383/363 369/382/363
f 340/347/364 368/381/364 385/409/364 324/327/364
f 386/410/365 369/382/365 341/348/365 328/331/365
f 382/406/366 378/402/366 385/409/366 384/408/366
f 386/410/367 380/404/367 383/407/367 387/411/367
f 329/334/368 325/328/368 385/409/368 378/402/368
f 386/410/369 327/330/369 331/336/369 380/404/369
f 324/327/370 385/409/370 325/328/370
f 327/330/371 386/410/371 328/331/371
f 388/412/372 389/413/372 390/414/372 391/415/372
f 392/416/373 393/417/373 394/418/373 395/419/373
f 388/412/374 391/415/374 396/420/374 397/421/374
f 398/422/375 395/419/375 394/418/375 399/423/375
f 397/421/376 396/420/376 400/424/376 401/425/376
f 402/426/377 398/422/377 399/423/377 403/427/377
f 401/425/378 400/424/378 404/428/378 405/429/378
f 406/430/379 402/426/379 403/427/379 407/431/379
f 405/429/380 404/428/380 408/432/380 409/433/380
f 410/434/381 406/430/381 407/431/381 411/435/381
f 409/433/382 408/432/382 412/436/382 413/437/382
f 414/438/383 410/434/383 411/435/383 415/439/383
f 408/432/384 416/440/384 417/441/384 412/436/384
f 418/442/385 419/443/385 410/434/385 414/438/385
f 404/428/386 420/444/386 416/440/386 408/432/386
f 419/443/387 421/445/387 406/430/387 410/434/387
f 400/424/388 422/446/388 420/444/388 404/428/388
f 421/445/389 423/447/389 402/426/389 406/430/389
f 396/420/390 424/448/390 422/446/390 400/424/390
f 423/447/391 425/449/391 398/422/391 402/426/391
f 391/415/392 426/450/392 424/448/392 396/420/392
f 425/449/393 427/451/393 395/419/393 398/422/393
f 391/415/394 390/414/394 428/452/394 426/450/394
f 429/453/395 392/416/395 395/419/395 427/451/395
f 335/342/396 382/406/396 430/454/396 431/455/396
f 432/456/397 383/407/397 337/344/397 433/457/397
f 382/458/398 413/437/398 412/436/398 430/459/398
f 414/438/399 415/439/399 383/460/399 432/461/399
f 336/343/400 335/342/400 431/455/400 374/398/400
f 433/457/401 337/344/401 338/345/401 375/399/401
f 376/462/402 434/463/402 390/414/402 389/413/402
f 392/416/403 435/464/403 377/465/403 393/417/403
f 412/436/404 417/441/404 436/466/404 430/459/404
f 437/467/405 418/442/405 414/438/405 432/461/405
f 438/468/406 439/469/406 430/459/406 436/466/406
f 432/461/407 440/470/407 441/471/407 437/467/407
f 442/472/408 439/469/408 438/468/408 443/473/408
f 441/471/409 440/470/409 444/474/409 445/475/409
f 446/476/410 447/477/410 439/469/410 442/472/410
f 440/470/411 448/478/411 449/479/411 444/474/411
f 434/463/412 447/477/412 446/476/412 450/480/412
f 449/479/413 448/478/413 435/464/413 451/481/413
f 390/414/414 434/463/414 450/480/414 428/452/414
f 451/481/415 435/464/415 392/416/415 429/453/415
f 374/398/416 447/482/416 434/483/416 376/400/416
f 435/484/417 448/485/417 375/399/417 377/401/417
f 374/398/418 431/455/418 439/486/418 447/482/418
f 440/487/419 433/457/419 375/399/419 448/485/419
f 431/455/420 430/454/420 439/486/420
f 440/487/421 432/456/421 433/457/421
f 428/452/422 450/480/422 452/488/422 453/489/422
f 454/490/423 451/481/423 429/453/423 455/491/423
f 450/480/424 446/476/424 456/492/424 452/488/424
f 457/493/425 449/479/425 451/481/425 454/490/425
f 446/476/426 442/472/426 458/494/426 456/492/426
f 459/495/427 444/474/427 449/479/427 457/493/427
f 442/472/428 443/473/428 460/496/428 458/494/428
f 461/497/429 445/475/429 444/474/429 459/495/429
f 443/473/430 438/468/430 462/498/430 460/496/430
f 463/499/431 441/471/431 445/475/431 461/497/431
f 438/468/432 436/466/432 464/500/432 462/498/432
f 465/501/433 437/467/433 441/471/433 463/499/433
f 436/466/434 417/441/434 466/502/434 464/500/434
f 467/503/435 418/442/435 437/467/435 465/501/435
f 426/450/436 428/452/436 453/489/436 468/504/436
f 455/491/437 429/453/437 427/451/437 469/505/437
f 424/448/438 426/450/438 468/504/438 470/506/438
f 469/505/439 427/451/439 425/449/439 471/507/439
f 422/446/440 424/448/440 470/506/440 472/508/440
f 471/507/441 425/449/441 423/447/441 473/509/441
f 420/444/442 422/446/442 472/508/442 474/510/442
f 473/509/443 423/447/443 421/445/443 475/511/443
f 416/440/444 420/444/444 474/510/444 476/512/444
f 475/511/445 421/445/445 419/443/445 477/513/445
f 417/441/446 416/440/446 476/512/446 466/502/446
f 477/513/447 419/443/447 418/442/447 467/503/447
f 460/496/448 462/498/448 478/514/448 479/515/448
f 480/516/449 463/499/449 461/497/449 481/517/449
f 479/515/450 478/514/450 482/518/450 483/519/450
f 484/520/451 480/516/451 481/517/451 485/521/451
f 483/519/452 482/518/452 486/522/452 487/523/452
f 488/524/453 484/520/453 485/521/453 489/525/453
f 487/523/454 486/522/454 490/526/454 491/527/454
f 492/528/455 488/524/455 489/525/455 493/529/455
f 468/504/456 453/489/456 487/523/456 491/527/456
f 489/525/457 455/491/457 469/505/457 493/529/457
f 452/488/458 483/519/458 487/523/458 453/489/458
f 489/525/459 485/521/459 454/490/459 455/491/459
f 452/488/460 456/492/460 479/515/460 483/519/460
f 481/517/461 457/493/461 454/490/461 485/521/461
f 460/496/462 479/515/462 456/492/462 458/494/462
f 457/493/463 481/517/463 461/497/463 459/495/463
f 464/500/464 466/502/464 478/514/464 462/498/464
f 480/516/465 467/503/465 465/501/465 463/499/465
f 476/512/466 482/518/466 478/514/466 466/502/466
f 480/516/467 484/520/467 477/513/467 467/503/467
f 474/510/468 486/522/468 482/518/468 476/512/468
f 484/520/469 488/524/469 475/511/469 477/513/469
f 472/508/470 490/526/470 486/522/470 474/510/470
f 488/524/471 492/528/471 473/509/471 475/511/471
f 470/506/472 491/527/472 490/526/472 472/508/472
f 492/528/473 493/529/473 471/507/473 473/509/473
f 468/504/474 491/527/474 470/506/474
f 471/507/475 493/529/475 469/505/475
f 409/433/476 413/437/476 494/530/476 495/531/476
f 496/532/477 415/439/477 411/435/477 497/533/477
f 405/429/478 409/433/478 495/531/478 498/534/478
f 497/533/479 411/435/479 407/431/479 499/535/479
f 401/425/480 405/429/480 498/534/480 500/536/480
f 499/535/481 407/431/481 403/427/481 501/537/481
f 397/538/482 401/425/482 500/536/482 502/539/482
f 501/537/483 403/427/483 399/540/483 503/541/483
f 388/542/484 397/538/484 502/539/484 504/543/484
f 503/541/485 399/540/485 394/544/485 505/545/485
f 389/546/486 388/542/486 504/543/486 506/547/486
f 505/545/487 394/544/487 393/548/487 507/549/487
f 504/543/488 495/531/488 494/530/488 506/547/488
f 496/532/489 497/533/489 505/545/489 507/549/489
f 504/543/490 502/539/490 498/534/490 495/531/490
f 499/535/491 503/541/491 505/545/491 497/533/491
f 502/539/492 500/536/492 498/534/492
f 499/535/493 501/537/493 503/541/493
f 367/550/494 376/551/494 389/546/494 506/547/494
f 393/548/495 377/552/495 370/553/495 507/549/495
f 367/550/496 506/547/496 494/530/496 384/554/496
f 496/532/497 507/549/497 370/553/497 387/555/497
f 382/458/498 384/554/498 494/530/498 413/437/498
f 496/532/499 387/555/499 383/460/499 415/439/499
