# Blender 4.5.2 LTS
# www.blender.org
mtllib RingX.mtl
o RotX
v 0.000000 -1.050000 0.000000
v 0.035355 -1.035355 0.000000
v 0.050000 -1.000000 0.000000
v 0.035355 -0.964645 0.000000
v 0.000000 -0.950000 0.000000
v -0.035355 -0.964645 0.000000
v -0.050000 -1.000000 0.000000
v -0.035355 -1.035355 0.000000
v 0.000000 -0.909327 -0.525000
v 0.035355 -0.896644 -0.517678
v 0.050000 -0.866025 -0.500000
v 0.035355 -0.835407 -0.482322
v 0.000000 -0.822724 -0.475000
v -0.035355 -0.835407 -0.482322
v -0.050000 -0.866025 -0.500000
v -0.035355 -0.896644 -0.517678
v 0.000000 -0.525000 -0.909327
v 0.035355 -0.517678 -0.896644
v 0.050000 -0.500000 -0.866025
v 0.035355 -0.482322 -0.835407
v 0.000000 -0.475000 -0.822724
v -0.035355 -0.482322 -0.835407
v -0.050000 -0.500000 -0.866025
v -0.035355 -0.517678 -0.896644
v 0.000000 -0.000000 -1.050000
v 0.035355 -0.000000 -1.035355
v 0.050000 -0.000000 -1.000000
v 0.035355 -0.000000 -0.964645
v 0.000000 -0.000000 -0.950000
v -0.035355 -0.000000 -0.964645
v -0.050000 -0.000000 -1.000000
v -0.035355 -0.000000 -1.035355
v -0.000000 0.525000 -0.909327
v 0.035355 0.517677 -0.896644
v 0.050000 0.500000 -0.866026
v 0.035355 0.482322 -0.835407
v -0.000000 0.475000 -0.822724
v -0.035355 0.482322 -0.835407
v -0.050000 0.500000 -0.866026
v -0.035355 0.517677 -0.896644
v -0.000000 0.909326 -0.525000
v 0.035355 0.896644 -0.517678
v 0.050000 0.866025 -0.500000
v 0.035355 0.835407 -0.482323
v -0.000000 0.822724 -0.475000
v -0.035355 0.835407 -0.482323
v -0.050000 0.866025 -0.500000
v -0.035355 0.896644 -0.517678
v -0.000000 1.050000 -0.000000
v 0.035355 1.035355 -0.000000
v 0.050000 1.000000 -0.000000
v 0.035355 0.964645 -0.000000
v -0.000000 0.950000 -0.000000
v -0.035355 0.964645 -0.000000
v -0.050000 1.000000 -0.000000
v -0.035355 1.035355 -0.000000
v -0.000000 0.909327 0.525000
v 0.035355 0.896644 0.517677
v 0.050000 0.866026 0.500000
v 0.035355 0.835407 0.482322
v -0.000000 0.822724 0.475000
v -0.035355 0.835407 0.482322
v -0.050000 0.866026 0.500000
v -0.035355 0.896644 0.517677
v -0.000000 0.525000 0.909327
v 0.035355 0.517677 0.896644
v 0.050000 0.500000 0.866026
v 0.035355 0.482322 0.835407
v -0.000000 0.475000 0.822724
v -0.035355 0.482322 0.835407
v -0.050000 0.500000 0.866026
v -0.035355 0.517677 0.896644
v 0.000000 -0.000000 1.050000
v 0.035355 -0.000000 1.035355
v 0.050000 -0.000000 1.000000
v 0.035355 -0.000000 0.964645
v 0.000000 -0.000000 0.950000
v -0.035355 -0.000000 0.964645
v -0.050000 -0.000000 1.000000
v -0.035355 -0.000000 1.035355
v 0.000000 -0.525000 0.909327
v 0.035355 -0.517678 0.896644
v 0.050000 -0.500000 0.866025
v 0.035355 -0.482322 0.835407
v 0.000000 -0.475000 0.822724
v -0.035355 -0.482322 0.835407
v -0.050000 -0.500000 0.866025
v -0.035355 -0.517678 0.896644
v 0.000000 -0.909327 0.525000
v 0.035355 -0.896644 0.517678
v 0.050000 -0.866025 0.500000
v 0.035355 -0.835407 0.482322
v 0.000000 -0.822724 0.475000
v -0.035355 -0.835407 0.482322
v -0.050000 -0.866025 0.500000
v -0.035355 -0.896644 0.517678
vn -0.0000 -1.0000 -0.0000
vn 0.6768 -0.7362 -0.0000
vn 0.9980 -0.0635 -0.0000
vn 0.7402 0.6724 -0.0000
vn -0.0000 1.0000 -0.0000
vn -0.7402 0.6724 -0.0000
vn -0.9980 -0.0635 -0.0000
vn -0.6768 -0.7362 -0.0000
vn -0.0000 -0.8660 -0.5000
vn 0.6768 -0.6375 -0.3681
vn 0.9980 -0.0550 -0.0318
vn 0.7402 0.5823 0.3362
vn -0.0000 0.8660 0.5000
vn -0.7402 0.5823 0.3362
vn -0.9980 -0.0550 -0.0318
vn -0.6768 -0.6375 -0.3681
vn -0.0000 -0.5000 -0.8660
vn 0.6768 -0.3681 -0.6375
vn 0.9980 -0.0318 -0.0550
vn 0.7402 0.3362 0.5823
vn -0.0000 0.5000 0.8660
vn -0.7402 0.3362 0.5823
vn -0.9980 -0.0318 -0.0550
vn -0.6768 -0.3681 -0.6375
vn -0.0000 -0.0000 -1.0000
vn 0.6768 -0.0000 -0.7362
vn 0.9980 -0.0000 -0.0635
vn 0.7402 -0.0000 0.6724
vn -0.0000 -0.0000 1.0000
vn -0.7402 -0.0000 0.6724
vn -0.9980 -0.0000 -0.0635
vn -0.6768 -0.0000 -0.7362
vn -0.0000 0.5000 -0.8660
vn 0.6768 0.3681 -0.6375
vn 0.9980 0.0318 -0.0550
vn 0.7402 -0.3362 0.5823
vn -0.0000 -0.5000 0.8660
vn -0.7402 -0.3362 0.5823
vn -0.9980 0.0318 -0.0550
vn -0.6768 0.3681 -0.6375
vn -0.0000 0.8660 -0.5000
vn 0.6768 0.6375 -0.3681
vn 0.9980 0.0550 -0.0318
vn 0.7402 -0.5823 0.3362
vn -0.0000 -0.8660 0.5000
vn -0.7402 -0.5823 0.3362
vn -0.9980 0.0550 -0.0318
vn -0.6768 0.6375 -0.3681
vn 0.6768 0.7362 -0.0000
vn 0.9980 0.0635 -0.0000
vn 0.7402 -0.6724 -0.0000
vn -0.7402 -0.6724 -0.0000
vn -0.9980 0.0635 -0.0000
vn -0.6768 0.7362 -0.0000
vn 0.6768 0.6375 0.3681
vn 0.9980 0.0550 0.0318
vn 0.7402 -0.5823 -0.3362
vn -0.7402 -0.5823 -0.3362
vn -0.9980 0.0550 0.0318
vn -0.6768 0.6375 0.3681
vn 0.6768 0.3681 0.6375
vn 0.9980 0.0318 0.0550
vn 0.7402 -0.3362 -0.5823
vn -0.7402 -0.3362 -0.5823
vn -0.9980 0.0318 0.0550
vn -0.6768 0.3681 0.6375
vn 0.6768 -0.0000 0.7362
vn 0.9980 -0.0000 0.0635
vn 0.7402 -0.0000 -0.6724
vn -0.7402 -0.0000 -0.6724
vn -0.9980 -0.0000 0.0635
vn -0.6768 -0.0000 0.7362
vn 0.6768 -0.3681 0.6375
vn 0.9980 -0.0318 0.0550
vn 0.7402 0.3362 -0.5823
vn -0.7402 0.3362 -0.5823
vn -0.9980 -0.0318 0.0550
vn -0.6768 -0.3681 0.6375
vn 0.6768 -0.6375 0.3681
vn 0.9980 -0.0550 0.0318
vn 0.7402 0.5823 -0.3362
vn -0.7402 0.5823 -0.3362
vn -0.9980 -0.0550 0.0318
vn -0.6768 -0.6375 0.3681
vt 0.500000 0.500000
vt 0.583333 0.500000
vt 0.583333 0.625000
vt 0.500000 0.625000
vt 0.583333 0.750000
vt 0.500000 0.750000
vt 0.583333 0.875000
vt 0.500000 0.875000
vt 0.583333 1.000000
vt 0.500000 1.000000
vt 0.500000 0.000000
vt 0.583333 0.000000
vt 0.583333 0.125000
vt 0.500000 0.125000
vt 0.583333 0.250000
vt 0.500000 0.250000
vt 0.583333 0.375000
vt 0.500000 0.375000
vt 0.666667 0.500000
vt 0.666667 0.625000
vt 0.666667 0.750000
vt 0.666667 0.875000
vt 0.666667 1.000000
vt 0.666667 0.000000
vt 0.666667 0.125000
vt 0.666667 0.250000
vt 0.666667 0.375000
vt 0.750000 0.500000
vt 0.750000 0.625000
vt 0.750000 0.750000
vt 0.750000 0.875000
vt 0.750000 1.000000
vt 0.750000 0.000000
vt 0.750000 0.125000
vt 0.750000 0.250000
vt 0.750000 0.375000
vt 0.833333 0.500000
vt 0.833333 0.625000
vt 0.833333 0.750000
vt 0.833333 0.875000
vt 0.833333 1.000000
vt 0.833333 0.000000
vt 0.833333 0.125000
vt 0.833333 0.250000
vt 0.833333 0.375000
vt 0.916667 0.500000
vt 0.916667 0.625000
vt 0.916667 0.750000
vt 0.916667 0.875000
vt 0.916667 1.000000
vt 0.916667 0.000000
vt 0.916667 0.125000
vt 0.916667 0.250000
vt 0.916667 0.375000
vt 1.000000 0.500000
vt 1.000000 0.625000
vt 1.000000 0.750000
vt 1.000000 0.875000
vt 1.000000 1.000000
vt 1.000000 0.000000
vt 1.000000 0.125000
vt 1.000000 0.250000
vt 1.000000 0.375000
vt 0.000000 0.500000
vt 0.083333 0.500000
vt 0.083333 0.625000
vt 0.000000 0.625000
vt 0.083333 0.750000
vt 0.000000 0.750000
vt 0.083333 0.875000
vt 0.000000 0.875000
vt 0.083333 1.000000
vt 0.000000 1.000000
vt 0.000000 0.000000
vt 0.083333 0.000000
vt 0.083333 0.125000
vt 0.000000 0.125000
vt 0.083333 0.250000
vt 0.000000 0.250000
vt 0.083333 0.375000
vt 0.000000 0.375000
vt 0.166667 0.500000
vt 0.166667 0.625000
vt 0.166667 0.750000
vt 0.166667 0.875000
vt 0.166667 1.000000
vt 0.166667 0.000000
vt 0.166667 0.125000
vt 0.166667 0.250000
vt 0.166667 0.375000
vt 0.250000 0.500000
vt 0.250000 0.625000
vt 0.250000 0.750000
vt 0.250000 0.875000
vt 0.250000 1.000000
vt 0.250000 0.000000
vt 0.250000 0.125000
vt 0.250000 0.250000
vt 0.250000 0.375000
vt 0.333333 0.500000
vt 0.333333 0.625000
vt 0.333333 0.750000
vt 0.333333 0.875000
vt 0.333333 1.000000
vt 0.333333 0.000000
vt 0.333333 0.125000
vt 0.333333 0.250000
vt 0.333333 0.375000
vt 0.416667 0.500000
vt 0.416667 0.625000
vt 0.416667 0.750000
vt 0.416667 0.875000
vt 0.416667 1.000000
vt 0.416667 0.000000
vt 0.416667 0.125000
vt 0.416667 0.250000
vt 0.416667 0.375000
s 1
usemtl X
f 1/1/1 9/2/9 10/3/10 2/4/2
f 2/4/2 10/3/10 11/5/11 3/6/3
f 3/6/3 11/5/11 12/7/12 4/8/4
f 4/8/4 12/7/12 13/9/13 5/10/5
f 5/11/5 13/12/13 14/13/14 6/14/6
f 6/14/6 14/13/14 15/15/15 7/16/7
f 7/16/7 15/15/15 16/17/16 8/18/8
f 8/18/8 16/17/16 9/2/9 1/1/1
f 9/2/9 17/19/17 18/20/18 10/3/10
f 10/3/10 18/20/18 19/21/19 11/5/11
f 11/5/11 19/21/19 20/22/20 12/7/12
f 12/7/12 20/22/20 21/23/21 13/9/13
f 13/12/13 21/24/21 22/25/22 14/13/14
f 14/13/14 22/25/22 23/26/23 15/15/15
f 15/15/15 23/26/23 24/27/24 16/17/16
f 16/17/16 24/27/24 17/19/17 9/2/9
f 17/19/17 25/28/25 26/29/26 18/20/18
f 18/20/18 26/29/26 27/30/27 19/21/19
f 19/21/19 27/30/27 28/31/28 20/22/20
f 20/22/20 28/31/28 29/32/29 21/23/21
f 21/24/21 29/33/29 30/34/30 22/25/22
f 22/25/22 30/34/30 31/35/31 23/26/23
f 23/26/23 31/35/31 32/36/32 24/27/24
f 24/27/24 32/36/32 25/28/25 17/19/17
f 25/28/25 33/37/33 34/38/34 26/29/26
f 26/29/26 34/38/34 35/39/35 27/30/27
f 27/30/27 35/39/35 36/40/36 28/31/28
f 28/31/28 36/40/36 37/41/37 29/32/29
f 29/33/29 37/42/37 38/43/38 30/34/30
f 30/34/30 38/43/38 39/44/39 31/35/31
f 31/35/31 39/44/39 40/45/40 32/36/32
f 32/36/32 40/45/40 33/37/33 25/28/25
f 33/37/33 41/46/41 42/47/42 34/38/34
f 34/38/34 42/47/42 43/48/43 35/39/35
f 35/39/35 43/48/43 44/49/44 36/40/36
f 36/40/36 44/49/44 45/50/45 37/41/37
f 37/42/37 45/51/45 46/52/46 38/43/38
f 38/43/38 46/52/46 47/53/47 39/44/39
f 39/44/39 47/53/47 48/54/48 40/45/40
f 40/45/40 48/54/48 41/46/41 33/37/33
f 41/46/41 49/55/5 50/56/49 42/47/42
f 42/47/42 50/56/49 51/57/50 43/48/43
f 43/48/43 51/57/50 52/58/51 44/49/44
f 44/49/44 52/58/51 53/59/1 45/50/45
f 45/51/45 53/60/1 54/61/52 46/52/46
f 46/52/46 54/61/52 55/62/53 47/53/47
f 47/53/47 55/62/53 56/63/54 48/54/48
f 48/54/48 56/63/54 49/55/5 41/46/41
f 49/64/5 57/65/13 58/66/55 50/67/49
f 50/67/49 58/66/55 59/68/56 51/69/50
f 51/69/50 59/68/56 60/70/57 52/71/51
f 52/71/51 60/70/57 61/72/9 53/73/1
f 53/74/1 61/75/9 62/76/58 54/77/52
f 54/77/52 62/76/58 63/78/59 55/79/53
f 55/79/53 63/78/59 64/80/60 56/81/54
f 56/81/54 64/80/60 57/65/13 49/64/5
f 57/65/13 65/82/21 66/83/61 58/66/55
f 58/66/55 66/83/61 67/84/62 59/68/56
f 59/68/56 67/84/62 68/85/63 60/70/57
f 60/70/57 68/85/63 69/86/17 61/72/9
f 61/75/9 69/87/17 70/88/64 62/76/58
f 62/76/58 70/88/64 71/89/65 63/78/59
f 63/78/59 71/89/65 72/90/66 64/80/60
f 64/80/60 72/90/66 65/82/21 57/65/13
f 65/82/21 73/91/29 74/92/67 66/83/61
f 66/83/61 74/92/67 75/93/68 67/84/62
f 67/84/62 75/93/68 76/94/69 68/85/63
f 68/85/63 76/94/69 77/95/25 69/86/17
f 69/87/17 77/96/25 78/97/70 70/88/64
f 70/88/64 78/97/70 79/98/71 71/89/65
f 71/89/65 79/98/71 80/99/72 72/90/66
f 72/90/66 80/99/72 73/91/29 65/82/21
f 73/91/29 81/100/37 82/101/73 74/92/67
f 74/92/67 82/101/73 83/102/74 75/93/68
f 75/93/68 83/102/74 84/103/75 76/94/69
f 76/94/69 84/103/75 85/104/33 77/95/25
f 77/96/25 85/105/33 86/106/76 78/97/70
f 78/97/70 86/106/76 87/107/77 79/98/71
f 79/98/71 87/107/77 88/108/78 80/99/72
f 80/99/72 88/108/78 81/100/37 73/91/29
f 81/100/37 89/109/45 90/110/79 82/101/73
f 82/101/73 90/110/79 91/111/80 83/102/74
f 83/102/74 91/111/80 92/112/81 84/103/75
f 84/103/75 92/112/81 93/113/41 85/104/33
f 85/105/33 93/114/41 94/115/82 86/106/76
f 86/106/76 94/115/82 95/116/83 87/107/77
f 87/107/77 95/116/83 96/117/84 88/108/78
f 88/108/78 96/117/84 89/109/45 81/100/37
f 89/109/45 1/1/1 2/4/2 90/110/79
f 90/110/79 2/4/2 3/6/3 91/111/80
f 91/111/80 3/6/3 4/8/4 92/112/81
f 92/112/81 4/8/4 5/10/5 93/113/41
f 93/114/41 5/11/5 6/14/6 94/115/82
f 94/115/82 6/14/6 7/16/7 95/116/83
f 95/116/83 7/16/7 8/18/8 96/117/84
f 96/117/84 8/18/8 1/1/1 89/109/45
